<?xml version="1.0"?>
<svg xmlns="http://www.w3.org/2000/svg" viewBox="0 0 64 64" width="512" height="512"><g id="Computer_smartphone" data-name="Computer smartphone"><rect x="3" y="3" width="58" height="40" rx="2" style="fill:#006df0"/><rect x="6" y="6" width="52" height="29" style="fill:#c2dff6"/><path d="M59,27.54a3.827,3.827,0,0,0-1-.41A4.089,4.089,0,0,0,57,27H55v2a1,1,0,0,1-1,1H48a1,1,0,0,1-1-1V27H45a4,4,0,0,0-4,4V57a4,4,0,0,0,4,4H57a4,4,0,0,0,4-4V31A3.98,3.98,0,0,0,59,27.54Z" style="fill:#ff3051"/><polygon points="37 43 27 43 22 55 41 55 41 52.6 37 43" style="fill:#ffcd00"/><path d="M47,29a1,1,0,0,0,1,1h6a1,1,0,0,0,1-1V27H47Z" style="fill:#ffcd00"/><polygon points="6 6 6 33.922 35.717 6 6 6" style="fill:#d1e7f8"/><path d="M59,27.54A3.989,3.989,0,0,0,57,27H55v2a1,1,0,0,1-1,1H48a1,1,0,0,1-1-1V27H45a4,4,0,0,0-4,4V47L59.827,28.173A4,4,0,0,0,59,27.54Z" style="fill:#ff4764"/><rect x="31" y="31" width="2" height="2" style="fill:#f1f2f2"/><rect x="35" y="31" width="2" height="2" style="fill:#f1f2f2"/><rect x="27" y="31" width="2" height="2" style="fill:#f1f2f2"/><rect x="14" y="54" width="2" height="2" style="fill:#ebbf00"/><rect x="18" y="54" width="23" height="2" style="fill:#ebbf00"/><rect x="50" y="55" width="2" height="2" style="fill:#f1f2f2"/><rect x="54" y="55" width="2" height="2" style="fill:#f1f2f2"/><rect x="46" y="55" width="2" height="2" style="fill:#f1f2f2"/></g></svg>
