<svg xmlns="http://www.w3.org/2000/svg" version="1.1" xmlns:xlink="http://www.w3.org/1999/xlink" xmlns:svgjs="http://svgjs.dev/svgjs" viewBox="0 0 800 800" opacity="0.4"><defs><linearGradient x1="50%" y1="0%" x2="50%" y2="100%" id="ccchaos-grad"><stop stop-color="#1b72ba" stop-opacity="1" offset="0%"></stop><stop stop-color="#b29732" stop-opacity="1" offset="100%"></stop></linearGradient></defs><g stroke-width="2" stroke="url(#ccchaos-grad)" fill="none" stroke-linecap="round"><path d="M372.14 119.83C373.84 104.75 392.43 100.57 404.02 112.54Q411.86 120 420.06 127.47 428.5 134.97 437.02 142.5 445.5 150.06 453.8 157.66 461.76 165.31 469.27 173.02 476.2 180.79 482.46 188.63 487.96 196.55 492.65 204.54 499.08 220.84 503.08 237.42 503.69 254.51 502.91 271.93 502.07 280.82 501.22 289.83 500.52 298.95 500.14 308.18 500.23 317.52 500.93 326.97 502.37 336.52 504.64 346.16 507.83 355.91 511.97 365.74 517.09 375.66 523.16 385.66 530.15 395.74 537.97 405.88 546.51 416.07 555.65 426.32 565.22 436.61 575.07 446.93 585 457.27 594.84 467.62 604.39 477.98 613.48 488.33 621.94 498.66 629.62 508.97 636.39 519.23 642.17 529.44 646.88 539.6 650.5 549.68 653.02 559.68 654.49 569.59 654.98 579.4 654.6 589.1 653.48 598.69 651.8 608.14 649.73 617.46 647.47 626.64 645.24 635.67 643.23 644.55 641.12 661.74 641.4 678.42 643.28 686.46 646.33 694.34C652.86 705.36 648.54 722.3 635.6 724.26Q619.65 724.19 603.7 721.38 587.76 716.05 571.81 708.61 555.86 699.64 539.91 689.82 523.96 679.92 508.01 670.71 492.07 662.88 476.12 657.06 460.17 653.68 444.22 653.01 428.27 655.1 412.33 659.79 396.38 666.72 380.43 675.34 364.48 685.01 348.53 694.96 332.59 704.43 316.64 712.69 300.69 719.1 284.74 723.17 268.79 724.57 252.85 723.21 236.9 719.19 220.95 712.82 205 704.58 189.05 695.13 173.11 685.18 157.16 675.5 141.21 666.85 125.26 659.89C112.33 655.86 103.14 640.39 108.69 629.74Q117.35 615.48 126.78 601.59 137.4 588.23 148.59 575.11 160.29 562.3 171.97 549.59 183.04 536.96 193.4 524.3 202.18 511.49 209.86 498.52 215.72 485.22 220.64 471.66 224.52 457.61 228.16 443.23 232.22 428.27 236.98 412.93 239.96 405.05 243.36 397.04 247.22 388.9 251.58 380.64 256.44 372.26 261.78 363.76 267.6 355.15 273.84 346.42 280.44 337.59 287.35 328.65 294.46 319.62 301.7 310.5 308.97 301.29 316.15 292 323.15 282.64 329.88 273.22 336.23 263.74 342.13 254.21 347.51 244.64 352.31 235.04 356.51 225.41 360.08 215.76 363.04 206.1 365.41 196.43 367.23 186.78 368.58 177.13 369.53 167.5 370.18 157.89 370.65 148.31 371.05 138.77 371.82 124.55 372.14 119.83" stroke-dasharray="6 4" transform="rotate(0, 400, 400)" opacity="0.05"></path><path d="M377.2 130.34C378.11 115.81 396.17 111.66 408.2 123.13Q416.1 130.28 424.18 137.44 432.33 144.62 440.42 151.83 448.32 159.07 455.91 166.35 463.08 173.67 469.73 181.05 475.76 188.48 481.11 195.98 489.19 211.21 494.96 226.69 497.2 242.59 497.73 258.78 496.53 275.46 495.07 292.46 494.56 301.13 494.38 309.91 494.69 318.8 495.58 327.79 497.18 336.87 499.56 346.06 502.79 355.34 506.89 364.71 511.89 374.16 517.76 383.7 524.46 393.32 531.92 403 540.06 412.75 548.74 422.56 557.85 432.42 567.23 442.32 576.73 452.25 586.17 462.21 595.4 472.19 604.26 482.18 612.6 492.16 620.27 502.14 627.16 512.1 633.17 522.03 638.23 531.92 642.3 541.76 645.36 551.55 647.43 561.27 648.55 570.91 648.81 580.47 648.3 589.93 647.14 599.3 645.5 608.55 643.53 617.69 641.41 626.7 639.32 635.59 636.26 652.86 634.89 669.7 635.56 677.84 637.21 685.84C641.43 697.05 634.84 712.49 622.46 713.02Q607.21 711.39 591.95 707.34 576.7 701.18 561.44 693.33 546.19 684.36 530.93 674.91 515.67 665.65 500.42 657.25 485.16 650.31 469.91 645.32 454.65 642.64 439.4 642.46 424.14 644.79 408.88 649.47 393.63 656.16 378.37 664.39 363.12 673.56 347.86 683.02 332.61 692.1 317.35 700.15 302.09 706.59 286.84 710.95 271.58 712.94 256.33 712.4 241.07 709.39 225.81 704.1 210.56 696.92 195.3 688.36 180.05 679.04 164.79 669.61 149.53 660.76 134.28 653.12C121.9 648.18 113.55 632.45 119.28 622.74Q128.22 609.65 137.88 596.84 148.57 584.4 159.7 572.11 171.07 559.99 182.3 547.9 192.72 535.76 202.38 523.54 210.44 511.08 217.45 498.44 222.76 485.4 227.23 472.1 230.79 458.29 234.18 444.15 238.01 429.45 242.53 414.39 248.78 398.75 256.33 382.76 260.91 374.57 265.96 366.27 271.46 357.87 277.37 349.37 283.65 340.76 290.23 332.07 297.05 323.29 304.02 314.43 311.06 305.5 318.07 296.5 324.97 287.43 331.66 278.31 338.06 269.14 344.08 259.93 349.65 250.69 354.73 241.41 359.25 232.12 363.2 222.81 366.57 213.49 369.35 204.17 371.59 194.86 373.31 185.56 374.58 176.28 375.48 167.02 376.09 157.79 376.51 148.6 377.02 134.89 377.2 130.34" stroke-dasharray="4 10" transform="rotate(13.08, 400, 400)" opacity="0.09"></path><path d="M382.65 140.85C383.12 126.86 400.64 122.76 412.75 133.74Q428.26 147.42 443.43 161.19 457.43 175.07 469.51 189.11 479.12 203.36 485.96 217.85 490.03 232.63 491.67 247.73 491.47 263.17 490.26 278.97 489 295.16 488.71 311.73 490.3 328.7 494.51 346.05 501.81 363.76 512.34 381.82 525.88 400.19 541.85 418.83 559.41 437.7 577.51 456.75 595 475.91 610.78 495.14 623.91 514.36 633.72 533.5 639.89 552.5 642.51 571.29 642.05 589.81 639.35 607.98 635.51 625.76 631.78 643.08 629.45 659.91 629.66 676.2C631.9 687.57 623.19 701.52 611.33 700.74Q596.72 697.75 582.1 692.7 567.49 685.93 552.88 677.88 538.26 669.08 523.65 660.11 509.04 651.56 494.42 644 479.81 637.93 465.2 633.74 450.58 631.7 435.97 631.97 421.36 634.5 406.74 639.15 392.13 645.6 377.51 653.43 362.9 662.13 348.29 671.11 333.67 679.79 319.06 687.59 304.45 694.01 289.83 698.62 275.22 701.11 260.61 701.33 245.99 699.25 231.38 695.02 216.76 688.9 202.15 681.32 187.54 672.76 172.92 663.79 158.31 655 143.7 646.97C131.84 641.37 124.32 625.55 130.29 616.64Q139.38 604.54 149.34 592.68 159.96 581 170.96 569.43 181.97 557.88 192.6 546.29 202.46 534.58 211.26 522.7 218.78 510.58 224.95 498.18 229.88 485.43 233.79 472.32 237.07 458.8 240.2 444.86 243.7 430.48 248.08 415.66 253.78 400.4 261.1 384.72 270.17 368.64 280.93 352.19 293.12 335.39 306.3 318.29 319.9 300.93 333.27 283.35 345.74 265.61 356.75 247.75 365.86 229.83 372.81 211.89 377.62 193.98 380.52 176.14 381.98 158.42 382.65 140.85 382.65 140.85 382.65 140.85" stroke-dasharray="1 5" transform="rotate(26.16, 400, 400)" opacity="0.13"></path><path d="M388.21 151.34C388.57 137.91 405.59 133.87 417.42 144.34Q432.07 157.41 445.92 170.55 458.28 183.79 468.6 197.19 476.49 210.76 481.85 224.56 484.79 238.62 485.69 252.96 485.17 267.62 484 282.61 483.03 297.95 483.13 313.65 485.08 329.71 489.5 346.14 496.75 362.92 506.94 380.03 519.84 397.46 534.99 415.17 551.63 433.12 568.87 451.28 585.72 469.6 601.19 488.02 614.43 506.5 624.78 524.97 631.88 543.38 635.67 561.66 636.44 579.75 634.81 597.59 631.62 615.13 627.94 632.32 624.87 649.1 623.5 665.42C624.1 676.87 613.57 689.43 602.2 687.51Q588.19 683.38 574.17 677.57 560.15 670.42 546.13 662.35 532.11 653.87 518.09 645.49 504.07 637.7 490.06 630.99 476.04 625.75 462.02 622.32 448 620.88 433.98 621.54 419.96 624.25 405.94 628.85 391.92 635.05 377.91 642.49 363.89 650.71 349.87 659.22 335.85 667.49 321.83 675.04 307.81 681.4 293.79 686.19 279.77 689.11 265.75 690 251.74 688.79 237.72 685.56 223.7 680.51 209.68 673.94 195.66 666.25 181.64 657.9 167.62 649.41 153.6 641.27C142.24 635.29 135.56 619.52 141.74 611.3Q151.07 600.06 161.11 588.96 171.62 577.94 182.32 566.92 192.83 555.85 202.82 544.66 211.96 533.3 220.01 521.71 226.81 509.86 232.36 497.69 236.77 485.17 240.3 472.28 243.29 459 246.21 445.31 249.5 431.21 253.64 416.71 259 401.8 265.87 386.51 274.39 370.87 284.5 354.88 296.02 338.6 308.56 322.06 321.64 305.29 334.69 288.33 347.12 271.24 358.37 254.06 368.01 236.82 375.72 219.58 381.39 202.37 385.13 185.24 387.73 159.78 388.21 151.34" stroke-dasharray="3 7" transform="rotate(39.24, 400, 400)" opacity="0.16"></path><path d="M393.65 161.83C394.21 148.95 410.69 144.98 421.92 154.96Q435.39 167.41 447.72 179.93 458.37 192.54 466.94 205.29 473.25 218.2 477.27 231.31 479.25 244.65 479.59 258.25 478.87 272.13 477.81 286.32 477.16 300.82 477.65 315.66 479.94 330.83 484.52 346.34 491.7 362.19 501.52 378.36 513.81 394.83 528.13 411.59 543.87 428.61 560.25 445.85 576.41 463.28 591.49 480.85 604.73 498.52 615.49 516.24 623.39 533.97 628.26 551.63 630.26 569.2 629.78 586.6 627.47 603.78 624.19 620.71 620.85 637.32 618.45 653.57C617.81 665.02 605.86 676.25 594.94 673.37Q581.48 668.36 568.01 662.02 554.55 654.7 541.09 646.81 527.62 638.77 514.16 631.05 500.69 624.06 487.23 618.19 473.77 613.77 460.3 611.04 446.84 610.15 433.37 611.16 419.91 614.01 406.45 618.53 392.98 624.49 379.52 631.54 366.06 639.3 352.59 647.33 339.13 655.21 325.66 662.47 312.2 668.73 298.74 673.64 285.27 676.92 271.81 678.4 258.35 677.99 244.88 675.71 231.42 671.69 217.96 666.16 204.49 659.42 191.03 651.83 177.57 643.84 164.1 635.87C153.18 629.73 147.32 614.18 153.69 606.54Q163.16 596.01 173.17 585.53 183.46 575.03 193.73 564.46 203.67 553.77 212.95 542.91 221.33 531.83 228.62 520.5 234.72 508.87 239.67 496.92 243.6 484.62 246.76 471.96 249.5 458.92 252.2 445.5 255.3 431.7 259.2 417.53 264.24 403 270.67 388.13 278.63 372.93 288.11 357.45 298.93 341.7 310.8 325.73 323.31 309.57 335.96 293.25 348.24 276.82 359.62 260.32 369.66 243.78 378.03 227.24 384.55 210.75 389.18 194.32 392.88 169.92 393.65 161.83" stroke-dasharray="5 2" transform="rotate(52.32, 400, 400)" opacity="0.20"></path><path d="M398.72 172.31C399.7 159.98 415.64 156.09 425.99 165.59Q438.04 177.43 448.72 189.33 457.64 201.32 464.56 213.42 469.4 225.67 472.28 238.1 473.47 250.74 473.39 263.6 472.6 276.72 471.72 290.11 471.4 303.79 472.28 317.78 474.87 332.07 479.58 346.68 486.65 361.6 496.11 376.82 507.78 392.34 521.3 408.14 536.15 424.2 551.65 440.5 567.09 457 581.71 473.68 594.84 490.49 605.88 507.4 614.43 524.36 620.28 541.32 623.44 558.26 624.16 575.1 622.9 591.82 620.3 608.35 617.12 624.67 614.21 640.71C612.74 652.06 599.83 662.11 589.33 658.46Q576.39 652.82 563.45 646.19 550.51 638.91 537.57 631.34 524.63 623.86 511.68 616.86 498.74 610.68 485.8 605.64 472.86 601.99 459.92 599.92 446.98 599.53 434.04 600.85 421.1 603.79 408.16 608.23 395.21 613.92 382.27 620.59 369.33 627.9 356.39 635.48 343.45 642.94 330.51 649.91 317.57 656.04 304.63 661.01 291.69 664.58 278.75 666.57 265.81 666.87 252.86 665.47 239.92 662.45 226.98 657.94 214.04 652.19 201.1 645.48 188.16 638.15 175.22 630.57C164.72 624.5 159.6 609.34 166.1 602.17Q175.6 592.21 185.45 582.21 195.39 572.13 205.14 561.92 214.41 551.54 222.95 540.94 230.55 530.1 237.08 518.99 242.51 507.57 246.88 495.83 250.36 483.75 253.19 471.32 255.68 458.54 258.19 445.42 261.1 431.94 264.76 418.13 269.48 404 275.49 389.57 282.91 374.86 291.74 359.89 301.86 344.7 313.04 329.32 324.93 313.78 337.11 298.12 349.12 282.36 360.5 266.55 370.83 250.71 379.75 234.89 387.03 219.11 392.56 203.4 397.56 180.05 398.72 172.31" stroke-dasharray="6 4" transform="rotate(65.4, 400, 400)" opacity="0.24"></path><path d="M403.18 182.78C404.8 171.02 420.13 167.21 429.39 176.22Q439.86 187.45 448.83 198.74 456.07 210.1 461.45 221.57 465.02 233.17 466.93 244.93 467.51 256.87 467.15 269.01 466.38 281.38 465.74 293.99 465.77 306.86 467 320.01 469.87 333.43 474.68 347.14 481.62 361.15 490.69 375.44 501.75 390 514.49 404.84 528.45 419.94 543.09 435.28 557.77 450.83 571.87 466.57 584.78 482.47 595.97 498.51 605.03 514.64 611.72 530.83 615.96 547.04 617.87 563.23 617.75 579.36 616.06 595.38 613.4 611.27 610.45 626.97C608.55 638.13 595.14 647.09 585.05 642.89Q572.61 636.87 560.17 630.18 547.73 623.11 535.29 616 522.85 609.16 510.41 602.92 497.98 597.56 485.54 593.32 473.1 590.41 460.66 588.94 448.22 589 435.78 590.57 423.34 593.59 410.9 597.91 398.46 603.34 386.02 609.64 373.58 616.5 361.14 623.62 348.7 630.67 336.26 637.33 323.82 643.29 311.38 648.28 298.94 652.07 286.5 654.49 274.06 655.42 261.62 654.83 249.18 652.74 236.74 649.24 224.3 644.5 211.87 638.73 199.43 632.2 186.99 625.21C176.89 619.42 172.39 604.79 178.93 597.98Q188.33 588.47 197.89 578.85 207.35 569.1 216.47 559.17 225.01 549.03 232.76 538.66 239.58 528.03 245.37 517.11 250.15 505.9 253.99 494.37 257.05 482.52 259.57 470.35 261.83 457.86 264.16 445.04 266.88 431.92 270.32 418.5 274.73 404.8 280.32 390.83 287.21 376.63 295.41 362.21 304.83 347.6 315.3 332.83 326.52 317.93 338.16 302.92 349.81 287.85 361.06 272.73 371.53 257.61 380.87 242.5 388.81 227.44 395.18 212.45 401.56 190.17 403.18 182.78" stroke-dasharray="3 3" transform="rotate(78.48, 400, 400)" opacity="0.28"></path><path d="M406.83 193.25C409.19 182.04 423.89 178.33 431.91 186.86Q440.71 197.5 448 208.17 453.66 218.92 457.67 229.76 460.14 240.71 461.28 251.8 461.41 263.05 460.91 274.48 460.25 286.11 459.88 297.96 460.27 310.03 461.84 322.35 464.94 334.93 469.81 347.76 476.6 360.86 485.28 374.22 495.74 387.84 507.7 401.73 520.79 415.85 534.55 430.22 548.46 444.8 561.98 459.58 574.58 474.54 585.78 489.66 595.21 504.9 602.59 520.24 607.79 535.64 610.83 551.08 611.89 566.52 611.26 581.92 609.39 597.25 606.81 612.47C604.85 623.34 591.41 631.37 581.73 626.84Q569.78 620.68 557.83 614.11 545.88 607.42 533.93 600.87 521.98 594.74 510.03 589.29 498.08 584.73 486.13 581.27 474.18 579.03 462.23 578.11 450.28 578.56 438.33 580.35 426.38 583.4 414.43 587.6 402.48 592.77 390.53 598.69 378.58 605.12 366.64 611.8 354.69 618.44 342.74 624.77 330.79 630.54 318.84 635.49 306.89 639.44 294.94 642.2 282.99 643.68 271.04 643.8 259.09 642.57 247.14 640.03 235.19 636.29 223.24 631.5 211.29 625.87 199.34 619.62C189.65 614.28 185.66 600.32 192.13 593.79Q201.28 584.61 210.4 575.29 219.27 565.8 227.68 556.09 235.44 546.16 242.38 535.99 248.41 525.55 253.5 514.83 257.66 503.82 261 492.52 263.67 480.93 265.91 469.04 267.97 456.85 270.12 444.38 272.67 431.64 275.88 418.64 279.99 405.4 285.17 391.93 291.53 378.26 299.11 364.41 307.84 350.4 317.58 336.25 328.1 322.01 339.13 307.68 350.32 293.3 361.33 278.89 371.79 264.48 381.4 250.1 389.86 235.76 396.98 221.5 404.73 200.29 406.83 193.25" stroke-dasharray="5 1" transform="rotate(91.56, 400, 400)" opacity="0.32"></path><path d="M409.51 203.71C412.66 193.06 426.7 189.46 433.39 197.51Q440.52 207.54 446.22 217.62 450.45 227.75 453.28 237.97 454.85 248.28 455.4 258.71 455.24 269.29 454.71 280.02 454.22 290.92 454.15 302.01 454.89 313.31 456.77 324.82 460.07 336.56 464.97 348.53 471.58 360.74 479.87 373.19 489.72 385.88 500.93 398.81 513.16 411.97 526.06 425.36 539.17 438.96 552.05 452.77 564.25 466.76 575.35 480.92 584.99 495.23 592.91 509.66 598.93 524.19 603.01 538.8 605.21 553.45 605.72 568.12 604.84 582.78 602.96 597.4C601.24 607.87 588.24 615.1 578.94 610.44Q567.48 604.34 556.02 598.09 544.56 591.9 533.1 586 521.64 580.62 510.18 575.96 498.72 572.19 487.26 569.45 475.8 567.83 464.34 567.41 452.88 568.2 441.42 570.16 429.96 573.23 418.5 577.28 407.04 582.18 395.58 587.74 384.12 593.74 372.66 599.98 361.2 606.21 349.74 612.21 338.28 617.75 326.82 622.63 315.36 626.66 303.9 629.7 292.44 631.63 280.98 632.38 269.52 631.93 258.06 630.28 246.6 627.51 235.14 623.71 223.68 619.03 212.22 613.63C202.91 608.87 199.3 595.71 205.6 589.39Q214.34 580.48 222.89 571.38 231.07 562.09 238.71 552.58 245.64 542.84 251.77 532.85 257.04 522.6 261.45 512.09 265.03 501.31 267.91 490.26 270.24 478.95 272.22 467.36 274.09 455.52 276.08 443.43 278.46 431.11 281.45 418.56 285.26 405.81 290.04 392.86 295.9 379.75 302.87 366.49 310.9 353.1 319.91 339.6 329.7 326.02 340.06 312.38 350.71 298.7 361.35 285.01 371.67 271.33 381.38 257.67 390.2 244.06 397.93 230.52 406.95 210.38 409.51 203.71" stroke-dasharray="9 11" transform="rotate(104.64, 400, 400)" opacity="0.35"></path><path d="M411.12 214.16C415.03 204.08 428.36 200.6 433.72 208.17Q439.26 217.61 443.51 227.09 446.5 236.61 448.35 246.21 449.23 255.89 449.36 265.67 449.05 275.58 448.59 285.62 448.33 295.81 448.58 306.16 449.65 316.7 451.81 327.42 455.27 338.34 460.17 349.46 466.57 360.8 474.45 372.35 483.71 384.12 494.17 396.11 505.57 408.32 517.6 420.74 529.9 433.36 542.1 446.18 553.82 459.19 564.7 472.37 574.41 485.71 582.71 499.19 589.4 512.79 594.38 526.5 597.66 540.29 599.31 554.14 599.53 568.03 598.58 581.92C597.35 591.91 585.15 598.47 576.25 593.86Q565.28 588.03 554.32 582.23 543.36 576.64 532.4 571.46 521.44 566.85 510.48 562.97 499.52 559.95 488.55 557.88 477.59 556.83 466.63 556.85 455.67 557.92 444.71 560.01 433.75 563.06 422.79 566.97 411.82 571.59 400.86 576.79 389.9 582.38 378.94 588.18 367.98 594.01 357.02 599.66 346.06 604.95 335.1 609.71 324.13 613.77 313.17 617 302.21 619.3 291.25 620.59 280.29 620.82 269.33 619.99 258.37 618.13 247.41 615.3 236.45 611.58 225.48 607.11C216.59 603.03 213.21 590.75 219.19 584.6Q227.38 575.89 235.26 566.98 242.66 557.87 249.47 548.54 255.58 538.98 260.91 529.18 265.45 519.14 269.21 508.86 272.27 498.33 274.73 487.57 276.74 476.56 278.49 465.32 280.18 453.86 282.03 442.19 284.24 430.31 287.02 418.25 290.54 406.02 294.93 393.63 300.3 381.1 306.67 368.45 314.02 355.7 322.29 342.87 331.34 329.97 340.99 317.03 351.02 304.07 361.18 291.1 371.22 278.14 380.87 265.22 389.88 252.35 398.03 239.53 408.14 220.48 411.12 214.16" stroke-dasharray="0 3" transform="rotate(117.72, 400, 400)" opacity="0.39"></path><path d="M411.6 224.6C416.21 215.09 428.76 211.73 432.87 218.83Q436.96 227.68 439.94 236.56 441.91 245.49 442.98 254.47 443.35 263.52 443.24 272.67 442.9 281.92 442.59 291.28 442.59 300.77 443.17 310.4 444.56 320.19 446.96 330.14 450.54 340.26 455.39 350.56 461.56 361.04 469.03 371.72 477.7 382.59 487.43 393.65 498.01 404.92 509.18 416.38 520.66 428.02 532.14 439.86 543.31 451.88 553.86 464.07 563.51 476.42 572.02 488.92 579.21 501.55 584.94 514.31 589.17 527.18 591.91 540.13 593.25 553.16 593.37 566.23C592.81 575.67 581.7 581.68 573.23 577.28Q562.79 571.88 552.34 566.65 541.89 561.74 531.45 557.31 521 553.47 510.56 550.34 500.11 548.02 489.66 546.56 479.22 546.02 468.77 546.42 458.33 547.72 447.88 549.91 437.44 552.92 426.99 556.65 416.54 561 406.1 565.84 395.65 571.03 385.21 576.41 374.76 581.83 364.32 587.13 353.87 592.15 343.43 596.75 332.98 600.79 322.53 604.14 312.09 606.73 301.64 608.45 291.2 609.28 280.75 609.17 270.31 608.15 259.86 606.22 249.42 603.46 238.97 599.94C230.5 596.6 227.21 585.28 232.8 579.25Q240.31 570.71 247.41 561.98 253.99 553.04 259.95 543.89 265.22 534.52 269.78 524.94 273.63 515.13 276.8 505.11 279.37 494.87 281.45 484.42 283.19 473.76 284.73 462.91 286.26 451.87 287.97 440.65 290.02 429.26 292.59 417.72 295.83 406.04 299.85 394.23 304.74 382.31 310.52 370.3 317.21 358.21 324.75 346.05 333.03 333.85 341.93 321.63 351.28 309.39 360.88 297.15 370.5 284.93 379.93 272.74 388.95 260.6 397.34 248.53 408.27 230.56 411.6 224.6" stroke-dasharray="5 6" transform="rotate(130.8, 400, 400)" opacity="0.43"></path><path d="M410.96 235.03C416.11 226.1 427.86 222.88 430.83 229.5Q435.21 246.07 437.28 262.76 437.09 279.75 436.75 297 437.04 305.81 437.93 314.74 439.61 323.79 442.21 332.98 445.87 342.33 450.64 351.82 456.57 361.48 463.61 371.3 471.7 381.29 480.72 391.45 490.49 401.79 500.81 412.31 511.47 423 522.2 433.86 532.75 444.89 542.87 456.09 552.33 467.44 560.9 478.94 568.4 490.58 574.72 502.36 579.74 514.25 583.46 526.25 585.89 538.34 587.11 550.52C587.31 559.32 577.53 564.89 569.49 560.84Q559.59 556 549.68 551.43 539.78 547.24 529.87 543.56 519.96 540.47 510.06 538.06 500.15 536.38 490.25 535.48 480.34 535.39 470.44 536.1 460.53 537.59 450.63 539.84 440.72 542.77 430.82 546.32 420.91 550.39 411.01 554.89 401.1 559.68 391.19 564.65 381.29 569.67 371.38 574.61 361.48 579.34 351.57 583.74 341.67 587.7 331.76 591.12 321.86 593.9 311.95 595.97 302.04 597.29 292.14 597.81 282.23 597.53 272.33 596.45 262.42 594.59 252.52 592.01C244.48 589.44 241.18 579.12 246.25 573.2Q252.97 564.82 259.23 556.26 264.95 547.51 270.06 538.56 274.53 529.42 278.36 520.08 281.56 510.54 284.19 500.82 286.33 490.91 288.08 480.82 289.57 470.56 290.93 460.14 292.32 449.55 293.89 438.83 295.8 427.96 298.17 416.98 301.13 405.88 304.79 394.68 309.21 383.4 314.44 372.04 320.47 360.63 327.28 349.17 334.81 337.68 342.94 326.17 351.55 314.67 360.49 303.16 369.59 291.69 378.65 280.24 387.49 268.84 395.93 257.5 407.38 240.63 410.96 235.03" stroke-dasharray="4 1" transform="rotate(143.88, 400, 400)" opacity="0.47"></path><path d="M409.25 245.46C414.77 237.1 425.71 234.03 427.7 240.19Q430.35 255.59 431.35 271.08 431.09 286.83 431.1 302.8 433.25 319.22 437.57 335.97 441.26 344.55 445.92 353.26 451.58 362.11 458.19 371.1 465.7 380.24 474.02 389.53 483 398.97 492.49 408.56 502.31 418.31 512.27 428.21 522.16 438.27 531.77 448.48 540.9 458.83 549.38 469.33 557.03 479.97 563.73 490.74 569.38 501.63 573.92 512.64 577.32 523.75 579.61 534.97C580.61 543.09 572.27 548.32 564.69 544.73Q555.35 540.53 546.01 536.66 536.68 533.22 527.34 530.28 518 527.91 508.66 526.15 499.33 525.06 489.99 524.65 480.65 524.93 471.31 525.9 461.97 527.54 452.64 529.8 443.3 532.65 433.96 536 424.62 539.8 415.29 543.94 405.95 548.35 396.61 552.92 387.27 557.54 377.93 562.12 368.6 566.55 359.26 570.73 349.92 574.56 340.58 577.97 331.25 580.87 321.91 583.2 312.57 584.9 303.23 585.95 293.9 586.31 284.56 585.97 275.22 584.95 265.89 583.26C258.31 581.43 254.93 572.12 259.41 566.33Q265.28 558.14 270.67 549.77 275.51 541.23 279.8 532.52 283.51 523.64 286.65 514.59 289.27 505.37 291.42 496 293.18 486.47 294.64 476.79 295.91 466.97 297.11 457.01 298.37 446.93 299.82 436.73 301.57 426.43 303.75 416.03 306.45 405.55 309.75 394.99 313.73 384.36 318.41 373.69 323.81 362.97 329.92 352.22 336.68 341.46 344.03 330.68 351.87 319.91 360.09 309.16 368.55 298.43 377.11 287.73 385.61 277.08 393.89 266.47 405.53 250.7 409.25 245.46" stroke-dasharray="6 2" transform="rotate(156.96, 400, 400)" opacity="0.51"></path><path d="M406.6 255.88C412.29 248.1 422.39 245.18 423.6 250.88Q424.98 265.11 425.32 279.43 425.22 293.96 425.67 308.66 428.35 323.74 433.03 339.09 436.71 346.93 441.23 354.88 446.59 362.95 452.77 371.14 459.71 379.45 467.34 387.88 475.55 396.45 484.22 405.15 493.22 413.98 502.38 422.95 511.56 432.05 520.58 441.29 529.29 450.67 537.53 460.17 545.16 469.8 552.07 479.56 558.14 489.44 563.3 499.44 567.52 509.54 570.76 519.75C572.51 527.16 565.65 532.12 558.55 529.05Q541.07 522.41 523.6 517.47 506.12 514.6 488.64 514.03 471.16 515.8 453.69 519.78 436.21 525.66 418.73 532.99 401.25 541.19 383.77 549.64 366.29 557.68 348.82 564.69 331.34 570.13 313.86 573.58 296.38 574.78 278.9 573.62C271.81 572.5 268.28 564.2 272.13 558.56Q277.11 550.58 281.61 542.45 285.62 534.17 289.12 525.74 292.12 517.17 294.65 508.46 296.75 499.62 298.48 490.64 299.91 481.54 301.12 472.32 302.2 462.99 303.27 453.55 304.41 444.01 305.74 434.39 307.35 424.68 309.33 414.9 311.77 405.06 314.74 395.16 318.29 385.22 322.45 375.24 327.25 365.23 332.66 355.21 338.68 345.18 345.24 335.15 352.29 325.12 359.73 315.12 367.48 305.14 375.41 295.19 383.42 285.28 391.37 275.42 402.86 260.75 406.6 255.88" stroke-dasharray="4 0" transform="rotate(170.04, 400, 400)" opacity="0.54"></path><path d="M403.17 266.29C408.84 259.09 418.06 256.34 418.7 261.58Q419.36 274.66 419.32 287.82 419.4 301.11 420.49 314.6 423.35 328.32 428.59 342.33 436.57 356.68 447.35 371.4 460.68 386.52 476.01 402.08 492.55 418.09 509.36 434.57 525.43 451.51 539.79 468.92 551.67 486.77 560.53 505.05C562.93 511.73 557.48 516.45 550.9 513.95Q534.68 508.74 518.46 505.15 502.24 503.41 486.02 503.63 469.79 505.81 453.57 509.79 437.35 515.32 421.13 522.03 404.9 529.48 388.68 537.18 372.46 544.62 356.23 551.32 340.01 556.82 323.79 560.77 307.56 562.9 291.34 563.09C284.76 562.6 281.06 555.3 284.26 549.82Q292.01 534.27 298 518.22 302.35 501.71 305.37 484.77 307.52 467.44 309.39 449.76 311.64 431.79 314.91 413.59 319.75 395.21 326.56 376.71 335.53 358.14 346.6 339.57 359.49 321.05 373.68 302.63 388.5 284.36 403.17 266.29 403.17 266.29 403.17 266.29" stroke-dasharray="4 5" transform="rotate(183.12, 400, 400)" opacity="0.58"></path><path d="M399.17 276.69C404.62 270.08 412.98 267.51 413.25 272.29Q413.44 284.22 413.46 296.22 413.96 308.33 415.58 320.59 418.88 333.04 424.25 345.71 431.93 358.65 441.92 371.89 454.03 385.45 467.85 399.37 482.78 413.66 498.12 428.33 513.11 443.4 526.99 458.87 539.1 474.74 548.91 490.99C551.82 496.93 547.68 501.45 541.64 499.53Q526.72 495.7 511.81 493.34 496.9 492.57 481.99 493.45 467.08 495.91 452.17 499.83 437.26 504.98 422.35 511.09 407.43 517.81 392.52 524.77 377.61 531.58 362.7 537.88 347.79 543.3 332.88 547.55 317.96 550.39 303.05 551.67C297 551.72 293.16 545.36 295.72 540.1Q301.82 525.23 306.45 509.97 309.79 494.35 312.12 478.4 313.86 462.16 315.5 445.67 317.55 428.98 320.5 412.12 324.8 395.14 330.75 378.09 338.53 361.01 348.14 343.95 359.41 326.95 372.01 310.05 385.45 293.29 399.17 276.69 399.17 276.69 399.17 276.69" stroke-dasharray="2 4" transform="rotate(196.2, 400, 400)" opacity="0.62"></path><path d="M394.84 287.08C399.89 281.06 407.41 278.67 407.49 283Q407.57 293.8 407.86 304.65 408.85 315.59 410.97 326.65 414.61 337.84 420.01 349.22 427.31 360.8 436.5 372.61 447.41 384.67 459.74 397.01 473.08 409.65 486.9 422.6 500.66 435.88 513.77 449.48 525.71 463.42 536.02 477.69C539.25 482.91 536.27 487.23 530.77 485.86Q517.21 483.31 503.66 482.03 490.1 482.07 476.55 483.45 462.99 486.09 449.44 489.87 435.88 494.63 422.32 500.13 408.77 506.14 395.21 512.37 381.66 518.54 368.1 524.37 354.54 529.59 340.99 533.95 327.43 537.27 313.87 539.39C308.38 539.88 304.45 534.39 306.41 529.41Q311.02 515.36 314.47 501.02 316.95 486.42 318.73 471.58 320.14 456.53 321.58 441.31 323.44 425.96 326.09 410.49 329.86 394.96 335 379.4 341.66 363.83 349.88 348.3 359.56 332.83 370.5 317.45 382.4 302.19 394.84 287.08 394.84 287.08 394.84 287.08" stroke-dasharray="5 9" transform="rotate(209.28, 400, 400)" opacity="0.66"></path><path d="M390.43 297.47C394.95 292.04 401.63 289.84 401.68 293.73Q401.93 303.41 402.63 313.13 404.11 322.91 406.67 332.78 410.53 342.75 415.86 352.86 422.72 363.12 431.07 373.56 440.81 384.18 451.7 395.02 463.46 406.09 475.74 417.4 488.14 428.96 500.24 440.78 511.64 452.87 521.97 465.24C525.36 469.75 523.32 473.88 518.38 473.01Q506.22 471.58 494.05 471.21 481.89 471.9 469.72 473.64 457.56 476.35 445.39 479.94 433.23 484.28 421.06 489.19 408.9 494.5 396.73 500.02 384.57 505.53 372.4 510.84 360.24 515.74 348.07 520.06 335.91 523.62 323.74 526.31C318.81 527.13 314.87 522.45 316.3 517.8Q319.63 504.72 322.1 491.44 323.88 477.97 325.22 464.35 326.39 450.59 327.66 436.72 329.33 422.76 331.69 408.75 334.96 394.71 339.34 380.65 344.95 366.62 351.85 352.62 359.99 338.69 369.27 324.84 384.97 304.29 390.43 297.47" stroke-dasharray="8 0" transform="rotate(222.36, 400, 400)" opacity="0.70"></path><path d="M386.21 307.85C390.1 303.01 395.95 301.02 396.09 304.46Q396.7 313.02 397.86 321.62 399.8 330.26 402.69 338.96 406.66 347.75 411.8 356.62 418.14 365.61 425.64 374.72 434.22 383.97 443.72 393.38 453.94 402.95 464.66 412.71 475.61 422.65 486.5 432.79 497.04 443.13 506.96 453.69C510.34 457.55 509.01 461.42 504.66 460.99Q493.91 460.51 483.15 460.86 472.4 462.03 461.64 463.99 450.89 466.67 440.14 470.01 429.38 473.91 418.63 478.24 407.88 482.88 397.12 487.69 386.37 492.55 375.61 497.29 364.86 501.78 354.1 505.89 343.35 509.51 332.59 512.51C328.24 513.53 324.4 509.61 325.39 505.33Q327.67 493.37 329.35 481.28 330.61 469.06 331.62 456.75 332.59 444.36 333.72 431.91 335.22 419.41 337.28 406.89 340.08 394.36 343.76 381.85 348.4 369.36 354.07 356.91 360.76 344.52 368.42 332.21 381.58 313.91 386.21 307.85" stroke-dasharray="5 10" transform="rotate(235.44, 400, 400)" opacity="0.73"></path><path d="M382.43 318.23C385.62 313.98 390.69 312.21 390.98 315.2Q393.98 330.17 399.04 345.22 402.99 352.83 407.84 360.51 413.59 368.26 420.21 376.1 427.65 384.03 435.8 392.08 444.53 400.24 453.71 408.52 463.15 416.94 472.68 425.5 482.11 434.21 491.25 443.07C494.43 446.31 493.63 449.9 489.84 449.82Q480.5 450.08 471.17 450.96 461.83 452.44 452.5 454.49 443.17 457.06 433.83 460.1 424.5 463.54 415.16 467.29 405.83 471.28 396.49 475.42 387.16 479.6 377.82 483.75 368.49 487.76 359.15 491.54 349.82 495.02 340.48 498.1C336.69 499.23 333.08 495.96 333.71 492.12Q335.18 481.41 336.29 470.62 337.16 459.76 337.94 448.86 338.76 437.91 339.77 426.93 341.1 415.94 342.88 404.95 345.24 393.96 348.26 383 352.01 372.07 356.55 361.17 361.89 350.34 368.02 339.56 378.66 323.54 382.43 318.23" stroke-dasharray="0 3" transform="rotate(248.52, 400, 400)" opacity="0.77"></path><path d="M379.31 328.59C381.81 324.95 386.11 323.4 386.58 325.95Q390.02 338.7 395.71 351.53 403.96 364.51 414.79 377.67 427.94 391.1 442.9 404.82 458.89 418.9 475.05 433.38C477.9 436.03 477.43 439.28 474.22 439.47Q458.38 441.46 442.54 445.12 426.69 450.18 410.85 456.34 395 463.17 379.16 470.23 363.31 477.05 347.47 483.18C344.26 484.31 340.98 481.64 341.36 478.28Q342.96 459.56 344.21 440.72 345.81 421.82 348.48 402.93 352.83 384.11 359.32 365.42 368.16 346.89 379.31 328.59 379.31 328.59 379.31 328.59" stroke-dasharray="2 8" transform="rotate(261.6, 400, 400)" opacity="0.81"></path><path d="M377.06 338.95C378.9 335.91 382.46 334.59 383.07 336.71Q387.05 347.28 392.71 357.91 400.15 368.62 409.35 379.44 420.15 390.42 432.25 401.58 445.25 412.95 458.65 424.57C461.06 426.69 460.78 429.53 458.13 429.89Q445.08 432.34 432.03 435.86 418.98 440.27 405.93 445.38 392.88 450.96 379.83 456.75 366.78 462.48 353.72 467.89C351.08 468.92 348.25 466.79 348.45 463.96Q349.45 448.2 350.44 432.4 351.85 416.61 354.09 400.87 357.5 385.2 362.38 369.64 372.97 346.58 377.06 338.95" stroke-dasharray="3 2" transform="rotate(274.68, 400, 400)" opacity="0.85"></path><path d="M375.83 349.3C377.08 346.86 379.9 345.79 380.61 347.48Q384.76 355.9 390.03 364.35 396.42 372.84 403.92 381.4 412.42 390.03 421.79 398.76 431.83 407.6 442.31 416.58C444.24 418.21 444.02 420.6 441.94 421.03Q431.63 423.56 421.32 426.7 411 430.36 400.69 434.44 390.38 438.81 380.06 443.34 369.75 447.91 359.43 452.37C357.35 453.25 355.04 451.6 355.16 449.31Q355.85 436.64 356.69 423.99 357.9 411.36 359.7 398.79 362.26 386.28 365.74 373.86 373.03 355.42 375.83 349.3" stroke-dasharray="2 10" transform="rotate(287.76, 400, 400)" opacity="0.89"></path><path d="M375.71 359.65C376.48 357.82 378.59 357 379.29 358.25Q387.65 370.84 398.48 383.5 411.54 396.31 426.29 409.31C427.68 410.5 427.5 412.35 425.95 412.77Q410.68 417.61 395.4 423.48 380.13 430 364.85 436.74C363.3 437.42 361.59 436.21 361.68 434.49Q362.95 415.53 365.31 396.7 369.4 378.05 375.71 359.65 375.71 359.65 375.71 359.65" stroke-dasharray="10 9" transform="rotate(300.84000000000003, 400, 400)" opacity="0.92"></path><path d="M376.74 369.99C377.14 368.76 378.55 368.2 379.14 369.04Q385.56 377.39 393.05 385.76 401.51 394.18 410.81 402.65C411.68 403.42 411.51 404.71 410.5 405.04Q400.44 408.59 390.38 412.54 380.32 416.77 370.25 421.17C369.24 421.62 368.12 420.81 368.19 419.67Q369.27 407.11 370.93 394.63 375.06 376.12 376.74 369.99" stroke-dasharray="10 7" transform="rotate(313.92, 400, 400)" opacity="0.96"></path></g></svg>