<svg xmlns="http://www.w3.org/2000/svg" version="1.1" xmlns:xlink="http://www.w3.org/1999/xlink" xmlns:svgjs="http://svgjs.dev/svgjs" width="1440" height="560" preserveAspectRatio="none" viewBox="0 0 1440 560"><g mask="url(&quot;#SvgjsMask1056&quot;)" fill="none"><rect width="1440" height="560" x="0" y="0" fill="url(&quot;#SvgjsLinearGradient1057&quot;)"></rect><path d="M-102.96 361.48L-102.96 361.48" stroke="rgba(185, 191, 203, 1)" stroke-width="1.5"></path><path d="M-102.96 361.48L-49.51 533.22" stroke="rgba(185, 191, 203, 1)" stroke-width="1.5"></path><path d="M-102.96 361.48L92.58 361.05" stroke="rgba(185, 191, 203, 1)" stroke-width="1.5"></path><path d="M-102.96 361.48L110.12 487.65" stroke="rgba(185, 191, 203, 1)" stroke-width="1.5"></path><path d="M-49.51 533.22L-49.51 533.22" stroke="rgba(185, 191, 203, 1)" stroke-width="1.5"></path><path d="M-49.51 533.22L-50.98 673.11" stroke="rgba(185, 191, 203, 1)" stroke-width="1.5"></path><path d="M-49.51 533.22L110.12 487.65" stroke="rgba(185, 191, 203, 1)" stroke-width="1.5"></path><path d="M-49.51 533.22L92.58 361.05" stroke="rgba(185, 191, 203, 1)" stroke-width="1.5"></path><path d="M-49.51 533.22L252.47 518.04" stroke="rgba(185, 191, 203, 1)" stroke-width="1.5"></path><path d="M-50.98 673.11L-50.98 673.11" stroke="rgba(185, 191, 203, 1)" stroke-width="1.5"></path><path d="M-50.98 673.11L110.12 487.65" stroke="rgba(185, 191, 203, 1)" stroke-width="1.5"></path><path d="M92.58 361.05L92.58 361.05" stroke="rgba(185, 191, 203, 1)" stroke-width="1.5"></path><path d="M92.58 361.05L110.12 487.65" stroke="rgba(185, 191, 203, 1)" stroke-width="1.5"></path><path d="M92.58 361.05L245.04 407.57" stroke="rgba(185, 191, 203, 1)" stroke-width="1.5"></path><path d="M110.12 487.65L110.12 487.65" stroke="rgba(185, 191, 203, 1)" stroke-width="1.5"></path><path d="M110.12 487.65L252.47 518.04" stroke="rgba(185, 191, 203, 1)" stroke-width="1.5"></path><path d="M110.12 487.65L245.04 407.57" stroke="rgba(185, 191, 203, 1)" stroke-width="1.5"></path><path d="M110.12 487.65L245.12 691.14" stroke="rgba(185, 191, 203, 1)" stroke-width="1.5"></path><path d="M245.04 407.57L245.04 407.57" stroke="rgba(185, 191, 203, 1)" stroke-width="1.5"></path><path d="M245.04 407.57L252.47 518.04" stroke="rgba(185, 191, 203, 1)" stroke-width="1.5"></path><path d="M252.47 518.04L252.47 518.04" stroke="rgba(185, 191, 203, 1)" stroke-width="1.5"></path><path d="M252.47 518.04L245.12 691.14" stroke="rgba(185, 191, 203, 1)" stroke-width="1.5"></path><path d="M252.47 518.04L409.19 664.75" stroke="rgba(185, 191, 203, 1)" stroke-width="1.5"></path><path d="M252.47 518.04L403.81 362.33" stroke="rgba(185, 191, 203, 1)" stroke-width="1.5"></path><path d="M252.47 518.04L92.58 361.05" stroke="rgba(185, 191, 203, 1)" stroke-width="1.5"></path><path d="M245.12 691.14L245.12 691.14" stroke="rgba(185, 191, 203, 1)" stroke-width="1.5"></path><path d="M245.12 691.14L409.19 664.75" stroke="rgba(185, 191, 203, 1)" stroke-width="1.5"></path><path d="M245.12 691.14L498.64 651.95" stroke="rgba(185, 191, 203, 1)" stroke-width="1.5"></path><path d="M403.81 362.33L403.81 362.33" stroke="rgba(185, 191, 203, 1)" stroke-width="1.5"></path><path d="M403.81 362.33L521.78 411.38" stroke="rgba(185, 191, 203, 1)" stroke-width="1.5"></path><path d="M403.81 362.33L245.04 407.57" stroke="rgba(185, 191, 203, 1)" stroke-width="1.5"></path><path d="M409.19 664.75L409.19 664.75" stroke="rgba(185, 191, 203, 1)" stroke-width="1.5"></path><path d="M409.19 664.75L498.64 651.95" stroke="rgba(185, 191, 203, 1)" stroke-width="1.5"></path><path d="M409.19 664.75L559.28 498.94" stroke="rgba(185, 191, 203, 1)" stroke-width="1.5"></path><path d="M409.19 664.75L521.78 411.38" stroke="rgba(185, 191, 203, 1)" stroke-width="1.5"></path><path d="M409.19 664.75L699.1 691.4" stroke="rgba(185, 191, 203, 1)" stroke-width="1.5"></path><path d="M521.78 411.38L521.78 411.38" stroke="rgba(185, 191, 203, 1)" stroke-width="1.5"></path><path d="M521.78 411.38L559.28 498.94" stroke="rgba(185, 191, 203, 1)" stroke-width="1.5"></path><path d="M521.78 411.38L664.7 521.55" stroke="rgba(185, 191, 203, 1)" stroke-width="1.5"></path><path d="M521.78 411.38L698.95 344.82" stroke="rgba(185, 191, 203, 1)" stroke-width="1.5"></path><path d="M559.28 498.94L559.28 498.94" stroke="rgba(185, 191, 203, 1)" stroke-width="1.5"></path><path d="M559.28 498.94L664.7 521.55" stroke="rgba(185, 191, 203, 1)" stroke-width="1.5"></path><path d="M559.28 498.94L498.64 651.95" stroke="rgba(185, 191, 203, 1)" stroke-width="1.5"></path><path d="M559.28 498.94L403.81 362.33" stroke="rgba(185, 191, 203, 1)" stroke-width="1.5"></path><path d="M498.64 651.95L498.64 651.95" stroke="rgba(185, 191, 203, 1)" stroke-width="1.5"></path><path d="M498.64 651.95L699.1 691.4" stroke="rgba(185, 191, 203, 1)" stroke-width="1.5"></path><path d="M498.64 651.95L664.7 521.55" stroke="rgba(185, 191, 203, 1)" stroke-width="1.5"></path><path d="M498.64 651.95L521.78 411.38" stroke="rgba(185, 191, 203, 1)" stroke-width="1.5"></path><path d="M665.43 244.57L665.43 244.57" stroke="rgba(185, 191, 203, 1)" stroke-width="1.5"></path><path d="M665.43 244.57L698.95 344.82" stroke="rgba(185, 191, 203, 1)" stroke-width="1.5"></path><path d="M665.43 244.57L851.18 236.94" stroke="rgba(185, 191, 203, 1)" stroke-width="1.5"></path><path d="M665.43 244.57L794.27 410.22" stroke="rgba(185, 191, 203, 1)" stroke-width="1.5"></path><path d="M698.95 344.82L698.95 344.82" stroke="rgba(185, 191, 203, 1)" stroke-width="1.5"></path><path d="M698.95 344.82L794.27 410.22" stroke="rgba(185, 191, 203, 1)" stroke-width="1.5"></path><path d="M698.95 344.82L664.7 521.55" stroke="rgba(185, 191, 203, 1)" stroke-width="1.5"></path><path d="M698.95 344.82L851.18 236.94" stroke="rgba(185, 191, 203, 1)" stroke-width="1.5"></path><path d="M664.7 521.55L664.7 521.55" stroke="rgba(185, 191, 203, 1)" stroke-width="1.5"></path><path d="M664.7 521.55L799.28 532.85" stroke="rgba(185, 191, 203, 1)" stroke-width="1.5"></path><path d="M664.7 521.55L794.27 410.22" stroke="rgba(185, 191, 203, 1)" stroke-width="1.5"></path><path d="M664.7 521.55L699.1 691.4" stroke="rgba(185, 191, 203, 1)" stroke-width="1.5"></path><path d="M699.1 691.4L699.1 691.4" stroke="rgba(185, 191, 203, 1)" stroke-width="1.5"></path><path d="M699.1 691.4L847.87 675.81" stroke="rgba(185, 191, 203, 1)" stroke-width="1.5"></path><path d="M699.1 691.4L799.28 532.85" stroke="rgba(185, 191, 203, 1)" stroke-width="1.5"></path><path d="M699.1 691.4L559.28 498.94" stroke="rgba(185, 191, 203, 1)" stroke-width="1.5"></path><path d="M862.39 53.93L862.39 53.93" stroke="rgba(185, 191, 203, 1)" stroke-width="1.5"></path><path d="M862.39 53.93L1008.91 80.72" stroke="rgba(185, 191, 203, 1)" stroke-width="1.5"></path><path d="M862.39 53.93L989.73 -69.25" stroke="rgba(185, 191, 203, 1)" stroke-width="1.5"></path><path d="M862.39 53.93L851.18 236.94" stroke="rgba(185, 191, 203, 1)" stroke-width="1.5"></path><path d="M862.39 53.93L956.14 252.89" stroke="rgba(185, 191, 203, 1)" stroke-width="1.5"></path><path d="M862.39 53.93L665.43 244.57" stroke="rgba(185, 191, 203, 1)" stroke-width="1.5"></path><path d="M851.18 236.94L851.18 236.94" stroke="rgba(185, 191, 203, 1)" stroke-width="1.5"></path><path d="M851.18 236.94L956.14 252.89" stroke="rgba(185, 191, 203, 1)" stroke-width="1.5"></path><path d="M851.18 236.94L940.14 351.07" stroke="rgba(185, 191, 203, 1)" stroke-width="1.5"></path><path d="M851.18 236.94L794.27 410.22" stroke="rgba(185, 191, 203, 1)" stroke-width="1.5"></path><path d="M794.27 410.22L794.27 410.22" stroke="rgba(185, 191, 203, 1)" stroke-width="1.5"></path><path d="M794.27 410.22L799.28 532.85" stroke="rgba(185, 191, 203, 1)" stroke-width="1.5"></path><path d="M794.27 410.22L940.14 351.07" stroke="rgba(185, 191, 203, 1)" stroke-width="1.5"></path><path d="M799.28 532.85L799.28 532.85" stroke="rgba(185, 191, 203, 1)" stroke-width="1.5"></path><path d="M799.28 532.85L847.87 675.81" stroke="rgba(185, 191, 203, 1)" stroke-width="1.5"></path><path d="M799.28 532.85L991.3 555.78" stroke="rgba(185, 191, 203, 1)" stroke-width="1.5"></path><path d="M799.28 532.85L698.95 344.82" stroke="rgba(185, 191, 203, 1)" stroke-width="1.5"></path><path d="M847.87 675.81L847.87 675.81" stroke="rgba(185, 191, 203, 1)" stroke-width="1.5"></path><path d="M847.87 675.81L957.16 689.14" stroke="rgba(185, 191, 203, 1)" stroke-width="1.5"></path><path d="M847.87 675.81L991.3 555.78" stroke="rgba(185, 191, 203, 1)" stroke-width="1.5"></path><path d="M847.87 675.81L664.7 521.55" stroke="rgba(185, 191, 203, 1)" stroke-width="1.5"></path><path d="M989.73 -69.25L989.73 -69.25" stroke="rgba(185, 191, 203, 1)" stroke-width="1.5"></path><path d="M989.73 -69.25L1008.91 80.72" stroke="rgba(185, 191, 203, 1)" stroke-width="1.5"></path><path d="M989.73 -69.25L1149.45 -64.18" stroke="rgba(185, 191, 203, 1)" stroke-width="1.5"></path><path d="M989.73 -69.25L1136.57 42.85" stroke="rgba(185, 191, 203, 1)" stroke-width="1.5"></path><path d="M1008.91 80.72L1008.91 80.72" stroke="rgba(185, 191, 203, 1)" stroke-width="1.5"></path><path d="M1008.91 80.72L1136.57 42.85" stroke="rgba(185, 191, 203, 1)" stroke-width="1.5"></path><path d="M956.14 252.89L956.14 252.89" stroke="rgba(185, 191, 203, 1)" stroke-width="1.5"></path><path d="M956.14 252.89L940.14 351.07" stroke="rgba(185, 191, 203, 1)" stroke-width="1.5"></path><path d="M956.14 252.89L1121.32 199.86" stroke="rgba(185, 191, 203, 1)" stroke-width="1.5"></path><path d="M940.14 351.07L940.14 351.07" stroke="rgba(185, 191, 203, 1)" stroke-width="1.5"></path><path d="M991.3 555.78L991.3 555.78" stroke="rgba(185, 191, 203, 1)" stroke-width="1.5"></path><path d="M991.3 555.78L1108.54 496.48" stroke="rgba(185, 191, 203, 1)" stroke-width="1.5"></path><path d="M991.3 555.78L957.16 689.14" stroke="rgba(185, 191, 203, 1)" stroke-width="1.5"></path><path d="M957.16 689.14L957.16 689.14" stroke="rgba(185, 191, 203, 1)" stroke-width="1.5"></path><path d="M957.16 689.14L1096.45 675.84" stroke="rgba(185, 191, 203, 1)" stroke-width="1.5"></path><path d="M957.16 689.14L799.28 532.85" stroke="rgba(185, 191, 203, 1)" stroke-width="1.5"></path><path d="M957.16 689.14L1108.54 496.48" stroke="rgba(185, 191, 203, 1)" stroke-width="1.5"></path><path d="M1149.45 -64.18L1149.45 -64.18" stroke="rgba(185, 191, 203, 1)" stroke-width="1.5"></path><path d="M1149.45 -64.18L1136.57 42.85" stroke="rgba(185, 191, 203, 1)" stroke-width="1.5"></path><path d="M1149.45 -64.18L1259.82 -52.84" stroke="rgba(185, 191, 203, 1)" stroke-width="1.5"></path><path d="M1149.45 -64.18L1237.57 39.68" stroke="rgba(185, 191, 203, 1)" stroke-width="1.5"></path><path d="M1136.57 42.85L1136.57 42.85" stroke="rgba(185, 191, 203, 1)" stroke-width="1.5"></path><path d="M1136.57 42.85L1237.57 39.68" stroke="rgba(185, 191, 203, 1)" stroke-width="1.5"></path><path d="M1121.32 199.86L1121.32 199.86" stroke="rgba(185, 191, 203, 1)" stroke-width="1.5"></path><path d="M1121.32 199.86L1122.54 348.45" stroke="rgba(185, 191, 203, 1)" stroke-width="1.5"></path><path d="M1121.32 199.86L1136.57 42.85" stroke="rgba(185, 191, 203, 1)" stroke-width="1.5"></path><path d="M1121.32 199.86L1008.91 80.72" stroke="rgba(185, 191, 203, 1)" stroke-width="1.5"></path><path d="M1121.32 199.86L1286.72 212.31" stroke="rgba(185, 191, 203, 1)" stroke-width="1.5"></path><path d="M1122.54 348.45L1122.54 348.45" stroke="rgba(185, 191, 203, 1)" stroke-width="1.5"></path><path d="M1122.54 348.45L1246.82 349.66" stroke="rgba(185, 191, 203, 1)" stroke-width="1.5"></path><path d="M1122.54 348.45L1108.54 496.48" stroke="rgba(185, 191, 203, 1)" stroke-width="1.5"></path><path d="M1122.54 348.45L940.14 351.07" stroke="rgba(185, 191, 203, 1)" stroke-width="1.5"></path><path d="M1122.54 348.45L956.14 252.89" stroke="rgba(185, 191, 203, 1)" stroke-width="1.5"></path><path d="M1122.54 348.45L1286.72 212.31" stroke="rgba(185, 191, 203, 1)" stroke-width="1.5"></path><path d="M1108.54 496.48L1108.54 496.48" stroke="rgba(185, 191, 203, 1)" stroke-width="1.5"></path><path d="M1108.54 496.48L1246.38 524.71" stroke="rgba(185, 191, 203, 1)" stroke-width="1.5"></path><path d="M1096.45 675.84L1096.45 675.84" stroke="rgba(185, 191, 203, 1)" stroke-width="1.5"></path><path d="M1096.45 675.84L991.3 555.78" stroke="rgba(185, 191, 203, 1)" stroke-width="1.5"></path><path d="M1096.45 675.84L1108.54 496.48" stroke="rgba(185, 191, 203, 1)" stroke-width="1.5"></path><path d="M1096.45 675.84L1275.91 654.79" stroke="rgba(185, 191, 203, 1)" stroke-width="1.5"></path><path d="M1096.45 675.84L1246.38 524.71" stroke="rgba(185, 191, 203, 1)" stroke-width="1.5"></path><path d="M1259.82 -52.84L1259.82 -52.84" stroke="rgba(185, 191, 203, 1)" stroke-width="1.5"></path><path d="M1259.82 -52.84L1237.57 39.68" stroke="rgba(185, 191, 203, 1)" stroke-width="1.5"></path><path d="M1237.57 39.68L1237.57 39.68" stroke="rgba(185, 191, 203, 1)" stroke-width="1.5"></path><path d="M1237.57 39.68L1286.72 212.31" stroke="rgba(185, 191, 203, 1)" stroke-width="1.5"></path><path d="M1237.57 39.68L1121.32 199.86" stroke="rgba(185, 191, 203, 1)" stroke-width="1.5"></path><path d="M1237.57 39.68L1461.74 69.09" stroke="rgba(185, 191, 203, 1)" stroke-width="1.5"></path><path d="M1286.72 212.31L1286.72 212.31" stroke="rgba(185, 191, 203, 1)" stroke-width="1.5"></path><path d="M1286.72 212.31L1246.82 349.66" stroke="rgba(185, 191, 203, 1)" stroke-width="1.5"></path><path d="M1286.72 212.31L1454.3 339.65" stroke="rgba(185, 191, 203, 1)" stroke-width="1.5"></path><path d="M1286.72 212.31L1461.74 69.09" stroke="rgba(185, 191, 203, 1)" stroke-width="1.5"></path><path d="M1246.82 349.66L1246.82 349.66" stroke="rgba(185, 191, 203, 1)" stroke-width="1.5"></path><path d="M1246.82 349.66L1246.38 524.71" stroke="rgba(185, 191, 203, 1)" stroke-width="1.5"></path><path d="M1246.82 349.66L1121.32 199.86" stroke="rgba(185, 191, 203, 1)" stroke-width="1.5"></path><path d="M1246.82 349.66L1108.54 496.48" stroke="rgba(185, 191, 203, 1)" stroke-width="1.5"></path><path d="M1246.38 524.71L1246.38 524.71" stroke="rgba(185, 191, 203, 1)" stroke-width="1.5"></path><path d="M1246.38 524.71L1275.91 654.79" stroke="rgba(185, 191, 203, 1)" stroke-width="1.5"></path><path d="M1275.91 654.79L1275.91 654.79" stroke="rgba(185, 191, 203, 1)" stroke-width="1.5"></path><path d="M1275.91 654.79L1433.28 670.48" stroke="rgba(185, 191, 203, 1)" stroke-width="1.5"></path><path d="M1275.91 654.79L1442.27 515.84" stroke="rgba(185, 191, 203, 1)" stroke-width="1.5"></path><path d="M1275.91 654.79L1108.54 496.48" stroke="rgba(185, 191, 203, 1)" stroke-width="1.5"></path><path d="M1275.91 654.79L991.3 555.78" stroke="rgba(185, 191, 203, 1)" stroke-width="1.5"></path><path d="M1461.74 69.09L1461.74 69.09" stroke="rgba(185, 191, 203, 1)" stroke-width="1.5"></path><path d="M1461.74 69.09L1549.82 100.84" stroke="rgba(185, 191, 203, 1)" stroke-width="1.5"></path><path d="M1461.74 69.09L1545.74 219.75" stroke="rgba(185, 191, 203, 1)" stroke-width="1.5"></path><path d="M1461.74 69.09L1567.45 -93.79" stroke="rgba(185, 191, 203, 1)" stroke-width="1.5"></path><path d="M1454.3 339.65L1454.3 339.65" stroke="rgba(185, 191, 203, 1)" stroke-width="1.5"></path><path d="M1454.3 339.65L1546.48 384.35" stroke="rgba(185, 191, 203, 1)" stroke-width="1.5"></path><path d="M1454.3 339.65L1545.74 219.75" stroke="rgba(185, 191, 203, 1)" stroke-width="1.5"></path><path d="M1454.3 339.65L1442.27 515.84" stroke="rgba(185, 191, 203, 1)" stroke-width="1.5"></path><path d="M1454.3 339.65L1246.82 349.66" stroke="rgba(185, 191, 203, 1)" stroke-width="1.5"></path><path d="M1442.27 515.84L1442.27 515.84" stroke="rgba(185, 191, 203, 1)" stroke-width="1.5"></path><path d="M1442.27 515.84L1571.8 559.86" stroke="rgba(185, 191, 203, 1)" stroke-width="1.5"></path><path d="M1442.27 515.84L1433.28 670.48" stroke="rgba(185, 191, 203, 1)" stroke-width="1.5"></path><path d="M1442.27 515.84L1546.48 384.35" stroke="rgba(185, 191, 203, 1)" stroke-width="1.5"></path><path d="M1433.28 670.48L1433.28 670.48" stroke="rgba(185, 191, 203, 1)" stroke-width="1.5"></path><path d="M1433.28 670.48L1581.42 647.37" stroke="rgba(185, 191, 203, 1)" stroke-width="1.5"></path><path d="M1433.28 670.48L1571.8 559.86" stroke="rgba(185, 191, 203, 1)" stroke-width="1.5"></path><path d="M1567.45 -93.79L1567.45 -93.79" stroke="rgba(185, 191, 203, 1)" stroke-width="1.5"></path><path d="M1567.45 -93.79L1549.82 100.84" stroke="rgba(185, 191, 203, 1)" stroke-width="1.5"></path><path d="M1549.82 100.84L1549.82 100.84" stroke="rgba(185, 191, 203, 1)" stroke-width="1.5"></path><path d="M1549.82 100.84L1545.74 219.75" stroke="rgba(185, 191, 203, 1)" stroke-width="1.5"></path><path d="M1545.74 219.75L1545.74 219.75" stroke="rgba(185, 191, 203, 1)" stroke-width="1.5"></path><path d="M1545.74 219.75L1546.48 384.35" stroke="rgba(185, 191, 203, 1)" stroke-width="1.5"></path><path d="M1546.48 384.35L1546.48 384.35" stroke="rgba(185, 191, 203, 1)" stroke-width="1.5"></path><path d="M1571.8 559.86L1571.8 559.86" stroke="rgba(185, 191, 203, 1)" stroke-width="1.5"></path><path d="M1571.8 559.86L1581.42 647.37" stroke="rgba(185, 191, 203, 1)" stroke-width="1.5"></path><path d="M1571.8 559.86L1546.48 384.35" stroke="rgba(185, 191, 203, 1)" stroke-width="1.5"></path><path d="M1571.8 559.86L1454.3 339.65" stroke="rgba(185, 191, 203, 1)" stroke-width="1.5"></path><path d="M1581.42 647.37L1581.42 647.37" stroke="rgba(185, 191, 203, 1)" stroke-width="1.5"></path><path d="M1581.42 647.37L1442.27 515.84" stroke="rgba(185, 191, 203, 1)" stroke-width="1.5"></path><path d="M1581.42 647.37L1546.48 384.35" stroke="rgba(185, 191, 203, 1)" stroke-width="1.5"></path><path d="M1581.42 647.37L1275.91 654.79" stroke="rgba(185, 191, 203, 1)" stroke-width="1.5"></path><circle r="5" cx="-102.96" cy="361.48" fill="rgba(185, 191, 203, 1)"></circle><circle r="5" cx="-49.51" cy="533.22" fill="rgba(185, 191, 203, 1)"></circle><circle r="5" cx="-50.98" cy="673.11" fill="rgba(185, 191, 203, 1)"></circle><circle r="5" cx="92.58" cy="361.05" fill="rgba(185, 191, 203, 1)"></circle><circle r="5" cx="110.12" cy="487.65" fill="rgba(185, 191, 203, 1)"></circle><circle r="5" cx="245.04" cy="407.57" fill="rgba(185, 191, 203, 1)"></circle><circle r="5" cx="252.47" cy="518.04" fill="rgba(185, 191, 203, 1)"></circle><circle r="5" cx="245.12" cy="691.14" fill="rgba(185, 191, 203, 1)"></circle><circle r="5" cx="403.81" cy="362.33" fill="rgba(185, 191, 203, 1)"></circle><circle r="5" cx="409.19" cy="664.75" fill="rgba(185, 191, 203, 1)"></circle><circle r="5" cx="521.78" cy="411.38" fill="rgba(185, 191, 203, 1)"></circle><circle r="5" cx="559.28" cy="498.94" fill="rgba(185, 191, 203, 1)"></circle><circle r="5" cx="498.64" cy="651.95" fill="rgba(185, 191, 203, 1)"></circle><circle r="5" cx="665.43" cy="244.57" fill="rgba(185, 191, 203, 1)"></circle><circle r="5" cx="698.95" cy="344.82" fill="rgba(185, 191, 203, 1)"></circle><circle r="5" cx="664.7" cy="521.55" fill="rgba(185, 191, 203, 1)"></circle><circle r="5" cx="699.1" cy="691.4" fill="rgba(185, 191, 203, 1)"></circle><circle r="5" cx="862.39" cy="53.93" fill="rgba(185, 191, 203, 1)"></circle><circle r="5" cx="851.18" cy="236.94" fill="rgba(185, 191, 203, 1)"></circle><circle r="5" cx="794.27" cy="410.22" fill="rgba(185, 191, 203, 1)"></circle><circle r="5" cx="799.28" cy="532.85" fill="rgba(185, 191, 203, 1)"></circle><circle r="5" cx="847.87" cy="675.81" fill="rgba(185, 191, 203, 1)"></circle><circle r="5" cx="989.73" cy="-69.25" fill="rgba(185, 191, 203, 1)"></circle><circle r="5" cx="1008.91" cy="80.72" fill="rgba(185, 191, 203, 1)"></circle><circle r="5" cx="956.14" cy="252.89" fill="rgba(185, 191, 203, 1)"></circle><circle r="5" cx="940.14" cy="351.07" fill="rgba(185, 191, 203, 1)"></circle><circle r="5" cx="991.3" cy="555.78" fill="rgba(185, 191, 203, 1)"></circle><circle r="5" cx="957.16" cy="689.14" fill="rgba(185, 191, 203, 1)"></circle><circle r="5" cx="1149.45" cy="-64.18" fill="rgba(185, 191, 203, 1)"></circle><circle r="5" cx="1136.57" cy="42.85" fill="rgba(185, 191, 203, 1)"></circle><circle r="5" cx="1121.32" cy="199.86" fill="rgba(185, 191, 203, 1)"></circle><circle r="5" cx="1122.54" cy="348.45" fill="rgba(185, 191, 203, 1)"></circle><circle r="5" cx="1108.54" cy="496.48" fill="rgba(185, 191, 203, 1)"></circle><circle r="5" cx="1096.45" cy="675.84" fill="rgba(185, 191, 203, 1)"></circle><circle r="5" cx="1259.82" cy="-52.84" fill="rgba(185, 191, 203, 1)"></circle><circle r="5" cx="1237.57" cy="39.68" fill="rgba(185, 191, 203, 1)"></circle><circle r="5" cx="1286.72" cy="212.31" fill="rgba(185, 191, 203, 1)"></circle><circle r="5" cx="1246.82" cy="349.66" fill="rgba(185, 191, 203, 1)"></circle><circle r="5" cx="1246.38" cy="524.71" fill="rgba(185, 191, 203, 1)"></circle><circle r="5" cx="1275.91" cy="654.79" fill="rgba(185, 191, 203, 1)"></circle><circle r="5" cx="1461.74" cy="69.09" fill="rgba(185, 191, 203, 1)"></circle><circle r="5" cx="1454.3" cy="339.65" fill="rgba(185, 191, 203, 1)"></circle><circle r="5" cx="1442.27" cy="515.84" fill="rgba(185, 191, 203, 1)"></circle><circle r="5" cx="1433.28" cy="670.48" fill="rgba(185, 191, 203, 1)"></circle><circle r="5" cx="1567.45" cy="-93.79" fill="rgba(185, 191, 203, 1)"></circle><circle r="5" cx="1549.82" cy="100.84" fill="rgba(185, 191, 203, 1)"></circle><circle r="5" cx="1545.74" cy="219.75" fill="rgba(185, 191, 203, 1)"></circle><circle r="5" cx="1546.48" cy="384.35" fill="rgba(185, 191, 203, 1)"></circle><circle r="5" cx="1571.8" cy="559.86" fill="rgba(185, 191, 203, 1)"></circle><circle r="5" cx="1581.42" cy="647.37" fill="rgba(185, 191, 203, 1)"></circle><path d="M-43.28 510.57L-43.28 510.57" stroke="hsl(228.79999999999995, 16.7%, 100%)" stroke-width="1.5"></path><path d="M-43.28 510.57L98.96 528.14" stroke="hsl(228.79999999999995, 16.7%, 100%)" stroke-width="1.5"></path><path d="M-43.28 510.57L-73.64 688.66" stroke="hsl(228.79999999999995, 16.7%, 100%)" stroke-width="1.5"></path><path d="M-43.28 510.57L224.43 560.2" stroke="hsl(228.79999999999995, 16.7%, 100%)" stroke-width="1.5"></path><path d="M-43.28 510.57L206.84 642.86" stroke="hsl(228.79999999999995, 16.7%, 100%)" stroke-width="1.5"></path><path d="M-43.28 510.57L344.45 687.34" stroke="hsl(228.79999999999995, 16.7%, 100%)" stroke-width="1.5"></path><path d="M-73.64 688.66L-73.64 688.66" stroke="hsl(228.79999999999995, 16.7%, 100%)" stroke-width="1.5"></path><path d="M-73.64 688.66L98.96 528.14" stroke="hsl(228.79999999999995, 16.7%, 100%)" stroke-width="1.5"></path><path d="M-73.64 688.66L206.84 642.86" stroke="hsl(228.79999999999995, 16.7%, 100%)" stroke-width="1.5"></path><path d="M224.43 560.2L224.43 560.2" stroke="hsl(228.79999999999995, 16.7%, 100%)" stroke-width="1.5"></path><path d="M224.43 560.2L206.84 642.86" stroke="hsl(228.79999999999995, 16.7%, 100%)" stroke-width="1.5"></path><path d="M224.43 560.2L98.96 528.14" stroke="hsl(228.79999999999995, 16.7%, 100%)" stroke-width="1.5"></path><path d="M224.43 560.2L392.37 550.41" stroke="hsl(228.79999999999995, 16.7%, 100%)" stroke-width="1.5"></path><path d="M344.45 687.34L344.45 687.34" stroke="hsl(228.79999999999995, 16.7%, 100%)" stroke-width="1.5"></path><path d="M344.45 687.34L206.84 642.86" stroke="hsl(228.79999999999995, 16.7%, 100%)" stroke-width="1.5"></path><path d="M344.45 687.34L392.37 550.41" stroke="hsl(228.79999999999995, 16.7%, 100%)" stroke-width="1.5"></path><path d="M822.34 710.43L822.34 710.43" stroke="hsl(228.79999999999995, 16.7%, 100%)" stroke-width="1.5"></path><path d="M822.34 710.43L947.48 676.19" stroke="hsl(228.79999999999995, 16.7%, 100%)" stroke-width="1.5"></path><path d="M822.34 710.43L659.81 662.43" stroke="hsl(228.79999999999995, 16.7%, 100%)" stroke-width="1.5"></path><path d="M822.34 710.43L805.17 515.46" stroke="hsl(228.79999999999995, 16.7%, 100%)" stroke-width="1.5"></path><path d="M822.34 710.43L658.53 537.56" stroke="hsl(228.79999999999995, 16.7%, 100%)" stroke-width="1.5"></path><path d="M822.34 710.43L995.1 521.28" stroke="hsl(228.79999999999995, 16.7%, 100%)" stroke-width="1.5"></path><path d="M822.34 710.43L550.75 661.92" stroke="hsl(228.79999999999995, 16.7%, 100%)" stroke-width="1.5"></path><path d="M947.48 676.19L947.48 676.19" stroke="hsl(228.79999999999995, 16.7%, 100%)" stroke-width="1.5"></path><path d="M947.48 676.19L1105.14 698.18" stroke="hsl(228.79999999999995, 16.7%, 100%)" stroke-width="1.5"></path><path d="M1152.46 259.4L1152.46 259.4" stroke="hsl(228.79999999999995, 16.7%, 100%)" stroke-width="1.5"></path><path d="M1152.46 259.4L1119.83 372.06" stroke="hsl(228.79999999999995, 16.7%, 100%)" stroke-width="1.5"></path><path d="M1152.46 259.4L1290.45 225.94" stroke="hsl(228.79999999999995, 16.7%, 100%)" stroke-width="1.5"></path><path d="M1152.46 259.4L1240.66 386.06" stroke="hsl(228.79999999999995, 16.7%, 100%)" stroke-width="1.5"></path><path d="M1152.46 259.4L1300 93.39" stroke="hsl(228.79999999999995, 16.7%, 100%)" stroke-width="1.5"></path><path d="M1109.15 514.53L1109.15 514.53" stroke="hsl(228.79999999999995, 16.7%, 100%)" stroke-width="1.5"></path><path d="M1109.15 514.53L995.1 521.28" stroke="hsl(228.79999999999995, 16.7%, 100%)" stroke-width="1.5"></path><path d="M1109.15 514.53L1119.83 372.06" stroke="hsl(228.79999999999995, 16.7%, 100%)" stroke-width="1.5"></path><path d="M1109.15 514.53L971.69 403.57" stroke="hsl(228.79999999999995, 16.7%, 100%)" stroke-width="1.5"></path><path d="M1109.15 514.53L1288.14 521.88" stroke="hsl(228.79999999999995, 16.7%, 100%)" stroke-width="1.5"></path><path d="M1105.14 698.18L1105.14 698.18" stroke="hsl(228.79999999999995, 16.7%, 100%)" stroke-width="1.5"></path><path d="M1105.14 698.18L1109.15 514.53" stroke="hsl(228.79999999999995, 16.7%, 100%)" stroke-width="1.5"></path><path d="M1105.14 698.18L1299.61 670.23" stroke="hsl(228.79999999999995, 16.7%, 100%)" stroke-width="1.5"></path><path d="M1299.61 670.23L1299.61 670.23" stroke="hsl(228.79999999999995, 16.7%, 100%)" stroke-width="1.5"></path><path d="M1299.61 670.23L1387.54 687.3" stroke="hsl(228.79999999999995, 16.7%, 100%)" stroke-width="1.5"></path><path d="M1299.61 670.23L1288.14 521.88" stroke="hsl(228.79999999999995, 16.7%, 100%)" stroke-width="1.5"></path><path d="M1299.61 670.23L1440.56 522.53" stroke="hsl(228.79999999999995, 16.7%, 100%)" stroke-width="1.5"></path><path d="M1299.61 670.23L1109.15 514.53" stroke="hsl(228.79999999999995, 16.7%, 100%)" stroke-width="1.5"></path><path d="M1440.56 522.53L1440.56 522.53" stroke="hsl(228.79999999999995, 16.7%, 100%)" stroke-width="1.5"></path><path d="M1440.56 522.53L1288.14 521.88" stroke="hsl(228.79999999999995, 16.7%, 100%)" stroke-width="1.5"></path><path d="M1440.56 522.53L1449.57 369.75" stroke="hsl(228.79999999999995, 16.7%, 100%)" stroke-width="1.5"></path><path d="M1440.56 522.53L1600.69 556.74" stroke="hsl(228.79999999999995, 16.7%, 100%)" stroke-width="1.5"></path><path d="M1440.56 522.53L1387.54 687.3" stroke="hsl(228.79999999999995, 16.7%, 100%)" stroke-width="1.5"></path><path d="M1600.69 556.74L1600.69 556.74" stroke="hsl(228.79999999999995, 16.7%, 100%)" stroke-width="1.5"></path><path d="M1600.69 556.74L1599.82 701.42" stroke="hsl(228.79999999999995, 16.7%, 100%)" stroke-width="1.5"></path><path d="M1600.69 556.74L1565.55 393.74" stroke="hsl(228.79999999999995, 16.7%, 100%)" stroke-width="1.5"></path><path d="M98.96 528.14L98.96 528.14" stroke="hsl(228.79999999999995, 16.7%, 100%)" stroke-width="1.5"></path><path d="M98.96 528.14L206.84 642.86" stroke="hsl(228.79999999999995, 16.7%, 100%)" stroke-width="1.5"></path><path d="M206.84 642.86L206.84 642.86" stroke="hsl(228.79999999999995, 16.7%, 100%)" stroke-width="1.5"></path><path d="M392.37 550.41L392.37 550.41" stroke="hsl(228.79999999999995, 16.7%, 100%)" stroke-width="1.5"></path><path d="M392.37 550.41L533.94 549.48" stroke="hsl(228.79999999999995, 16.7%, 100%)" stroke-width="1.5"></path><path d="M533.94 549.48L533.94 549.48" stroke="hsl(228.79999999999995, 16.7%, 100%)" stroke-width="1.5"></path><path d="M533.94 549.48L550.75 661.92" stroke="hsl(228.79999999999995, 16.7%, 100%)" stroke-width="1.5"></path><path d="M533.94 549.48L658.53 537.56" stroke="hsl(228.79999999999995, 16.7%, 100%)" stroke-width="1.5"></path><path d="M550.75 661.92L550.75 661.92" stroke="hsl(228.79999999999995, 16.7%, 100%)" stroke-width="1.5"></path><path d="M550.75 661.92L659.81 662.43" stroke="hsl(228.79999999999995, 16.7%, 100%)" stroke-width="1.5"></path><path d="M550.75 661.92L658.53 537.56" stroke="hsl(228.79999999999995, 16.7%, 100%)" stroke-width="1.5"></path><path d="M550.75 661.92L392.37 550.41" stroke="hsl(228.79999999999995, 16.7%, 100%)" stroke-width="1.5"></path><path d="M550.75 661.92L344.45 687.34" stroke="hsl(228.79999999999995, 16.7%, 100%)" stroke-width="1.5"></path><path d="M658.53 537.56L658.53 537.56" stroke="hsl(228.79999999999995, 16.7%, 100%)" stroke-width="1.5"></path><path d="M658.53 537.56L659.81 662.43" stroke="hsl(228.79999999999995, 16.7%, 100%)" stroke-width="1.5"></path><path d="M659.81 662.43L659.81 662.43" stroke="hsl(228.79999999999995, 16.7%, 100%)" stroke-width="1.5"></path><path d="M659.81 662.43L533.94 549.48" stroke="hsl(228.79999999999995, 16.7%, 100%)" stroke-width="1.5"></path><path d="M659.81 662.43L805.17 515.46" stroke="hsl(228.79999999999995, 16.7%, 100%)" stroke-width="1.5"></path><path d="M798.35 344.51L798.35 344.51" stroke="hsl(228.79999999999995, 16.7%, 100%)" stroke-width="1.5"></path><path d="M798.35 344.51L805.17 515.46" stroke="hsl(228.79999999999995, 16.7%, 100%)" stroke-width="1.5"></path><path d="M798.35 344.51L971.69 403.57" stroke="hsl(228.79999999999995, 16.7%, 100%)" stroke-width="1.5"></path><path d="M798.35 344.51L658.53 537.56" stroke="hsl(228.79999999999995, 16.7%, 100%)" stroke-width="1.5"></path><path d="M805.17 515.46L805.17 515.46" stroke="hsl(228.79999999999995, 16.7%, 100%)" stroke-width="1.5"></path><path d="M805.17 515.46L658.53 537.56" stroke="hsl(228.79999999999995, 16.7%, 100%)" stroke-width="1.5"></path><path d="M805.17 515.46L995.1 521.28" stroke="hsl(228.79999999999995, 16.7%, 100%)" stroke-width="1.5"></path><path d="M805.17 515.46L971.69 403.57" stroke="hsl(228.79999999999995, 16.7%, 100%)" stroke-width="1.5"></path><path d="M971.69 403.57L971.69 403.57" stroke="hsl(228.79999999999995, 16.7%, 100%)" stroke-width="1.5"></path><path d="M971.69 403.57L995.1 521.28" stroke="hsl(228.79999999999995, 16.7%, 100%)" stroke-width="1.5"></path><path d="M971.69 403.57L1119.83 372.06" stroke="hsl(228.79999999999995, 16.7%, 100%)" stroke-width="1.5"></path><path d="M995.1 521.28L995.1 521.28" stroke="hsl(228.79999999999995, 16.7%, 100%)" stroke-width="1.5"></path><path d="M1119.83 372.06L1119.83 372.06" stroke="hsl(228.79999999999995, 16.7%, 100%)" stroke-width="1.5"></path><path d="M1119.83 372.06L1240.66 386.06" stroke="hsl(228.79999999999995, 16.7%, 100%)" stroke-width="1.5"></path><path d="M1119.83 372.06L995.1 521.28" stroke="hsl(228.79999999999995, 16.7%, 100%)" stroke-width="1.5"></path><path d="M1119.83 372.06L1290.45 225.94" stroke="hsl(228.79999999999995, 16.7%, 100%)" stroke-width="1.5"></path><path d="M1260.39 -108.7L1260.39 -108.7" stroke="hsl(228.79999999999995, 16.7%, 100%)" stroke-width="1.5"></path><path d="M1260.39 -108.7L1395.38 -54.31" stroke="hsl(228.79999999999995, 16.7%, 100%)" stroke-width="1.5"></path><path d="M1300 93.39L1300 93.39" stroke="hsl(228.79999999999995, 16.7%, 100%)" stroke-width="1.5"></path><path d="M1300 93.39L1406.68 63.52" stroke="hsl(228.79999999999995, 16.7%, 100%)" stroke-width="1.5"></path><path d="M1300 93.39L1290.45 225.94" stroke="hsl(228.79999999999995, 16.7%, 100%)" stroke-width="1.5"></path><path d="M1300 93.39L1395.38 -54.31" stroke="hsl(228.79999999999995, 16.7%, 100%)" stroke-width="1.5"></path><path d="M1290.45 225.94L1290.45 225.94" stroke="hsl(228.79999999999995, 16.7%, 100%)" stroke-width="1.5"></path><path d="M1240.66 386.06L1240.66 386.06" stroke="hsl(228.79999999999995, 16.7%, 100%)" stroke-width="1.5"></path><path d="M1240.66 386.06L1288.14 521.88" stroke="hsl(228.79999999999995, 16.7%, 100%)" stroke-width="1.5"></path><path d="M1240.66 386.06L1290.45 225.94" stroke="hsl(228.79999999999995, 16.7%, 100%)" stroke-width="1.5"></path><path d="M1240.66 386.06L1109.15 514.53" stroke="hsl(228.79999999999995, 16.7%, 100%)" stroke-width="1.5"></path><path d="M1288.14 521.88L1288.14 521.88" stroke="hsl(228.79999999999995, 16.7%, 100%)" stroke-width="1.5"></path><path d="M1288.14 521.88L1387.54 687.3" stroke="hsl(228.79999999999995, 16.7%, 100%)" stroke-width="1.5"></path><path d="M1288.14 521.88L1449.57 369.75" stroke="hsl(228.79999999999995, 16.7%, 100%)" stroke-width="1.5"></path><path d="M1395.38 -54.31L1395.38 -54.31" stroke="hsl(228.79999999999995, 16.7%, 100%)" stroke-width="1.5"></path><path d="M1395.38 -54.31L1406.68 63.52" stroke="hsl(228.79999999999995, 16.7%, 100%)" stroke-width="1.5"></path><path d="M1395.38 -54.31L1564.72 -61.73" stroke="hsl(228.79999999999995, 16.7%, 100%)" stroke-width="1.5"></path><path d="M1395.38 -54.31L1537.5 47.4" stroke="hsl(228.79999999999995, 16.7%, 100%)" stroke-width="1.5"></path><path d="M1406.68 63.52L1406.68 63.52" stroke="hsl(228.79999999999995, 16.7%, 100%)" stroke-width="1.5"></path><path d="M1406.68 63.52L1537.5 47.4" stroke="hsl(228.79999999999995, 16.7%, 100%)" stroke-width="1.5"></path><path d="M1458.59 209.4L1458.59 209.4" stroke="hsl(228.79999999999995, 16.7%, 100%)" stroke-width="1.5"></path><path d="M1458.59 209.4L1562.62 259.19" stroke="hsl(228.79999999999995, 16.7%, 100%)" stroke-width="1.5"></path><path d="M1458.59 209.4L1406.68 63.52" stroke="hsl(228.79999999999995, 16.7%, 100%)" stroke-width="1.5"></path><path d="M1458.59 209.4L1449.57 369.75" stroke="hsl(228.79999999999995, 16.7%, 100%)" stroke-width="1.5"></path><path d="M1458.59 209.4L1290.45 225.94" stroke="hsl(228.79999999999995, 16.7%, 100%)" stroke-width="1.5"></path><path d="M1458.59 209.4L1537.5 47.4" stroke="hsl(228.79999999999995, 16.7%, 100%)" stroke-width="1.5"></path><path d="M1458.59 209.4L1300 93.39" stroke="hsl(228.79999999999995, 16.7%, 100%)" stroke-width="1.5"></path><path d="M1449.57 369.75L1449.57 369.75" stroke="hsl(228.79999999999995, 16.7%, 100%)" stroke-width="1.5"></path><path d="M1449.57 369.75L1565.55 393.74" stroke="hsl(228.79999999999995, 16.7%, 100%)" stroke-width="1.5"></path><path d="M1387.54 687.3L1387.54 687.3" stroke="hsl(228.79999999999995, 16.7%, 100%)" stroke-width="1.5"></path><path d="M1387.54 687.3L1599.82 701.42" stroke="hsl(228.79999999999995, 16.7%, 100%)" stroke-width="1.5"></path><path d="M1564.72 -61.73L1564.72 -61.73" stroke="hsl(228.79999999999995, 16.7%, 100%)" stroke-width="1.5"></path><path d="M1564.72 -61.73L1537.5 47.4" stroke="hsl(228.79999999999995, 16.7%, 100%)" stroke-width="1.5"></path><path d="M1564.72 -61.73L1406.68 63.52" stroke="hsl(228.79999999999995, 16.7%, 100%)" stroke-width="1.5"></path><path d="M1537.5 47.4L1537.5 47.4" stroke="hsl(228.79999999999995, 16.7%, 100%)" stroke-width="1.5"></path><path d="M1562.62 259.19L1562.62 259.19" stroke="hsl(228.79999999999995, 16.7%, 100%)" stroke-width="1.5"></path><path d="M1562.62 259.19L1565.55 393.74" stroke="hsl(228.79999999999995, 16.7%, 100%)" stroke-width="1.5"></path><path d="M1562.62 259.19L1449.57 369.75" stroke="hsl(228.79999999999995, 16.7%, 100%)" stroke-width="1.5"></path><path d="M1562.62 259.19L1537.5 47.4" stroke="hsl(228.79999999999995, 16.7%, 100%)" stroke-width="1.5"></path><path d="M1565.55 393.74L1565.55 393.74" stroke="hsl(228.79999999999995, 16.7%, 100%)" stroke-width="1.5"></path><path d="M1565.55 393.74L1440.56 522.53" stroke="hsl(228.79999999999995, 16.7%, 100%)" stroke-width="1.5"></path><path d="M1565.55 393.74L1458.59 209.4" stroke="hsl(228.79999999999995, 16.7%, 100%)" stroke-width="1.5"></path><path d="M1599.82 701.42L1599.82 701.42" stroke="hsl(228.79999999999995, 16.7%, 100%)" stroke-width="1.5"></path><path d="M1599.82 701.42L1440.56 522.53" stroke="hsl(228.79999999999995, 16.7%, 100%)" stroke-width="1.5"></path><path d="M1599.82 701.42L1299.61 670.23" stroke="hsl(228.79999999999995, 16.7%, 100%)" stroke-width="1.5"></path><circle r="25" cx="-43.28" cy="510.57" fill="url(&quot;#SvgjsRadialGradient1058&quot;)"></circle><circle r="25" cx="-73.64" cy="688.66" fill="url(&quot;#SvgjsRadialGradient1058&quot;)"></circle><circle r="25" cx="224.43" cy="560.2" fill="url(&quot;#SvgjsRadialGradient1058&quot;)"></circle><circle r="25" cx="344.45" cy="687.34" fill="url(&quot;#SvgjsRadialGradient1058&quot;)"></circle><circle r="25" cx="822.34" cy="710.43" fill="url(&quot;#SvgjsRadialGradient1058&quot;)"></circle><circle r="25" cx="947.48" cy="676.19" fill="url(&quot;#SvgjsRadialGradient1058&quot;)"></circle><circle r="25" cx="1152.46" cy="259.4" fill="url(&quot;#SvgjsRadialGradient1058&quot;)"></circle><circle r="25" cx="1109.15" cy="514.53" fill="url(&quot;#SvgjsRadialGradient1058&quot;)"></circle><circle r="25" cx="1105.14" cy="698.18" fill="url(&quot;#SvgjsRadialGradient1058&quot;)"></circle><circle r="25" cx="1299.61" cy="670.23" fill="url(&quot;#SvgjsRadialGradient1058&quot;)"></circle><circle r="25" cx="1440.56" cy="522.53" fill="url(&quot;#SvgjsRadialGradient1058&quot;)"></circle><circle r="25" cx="1600.69" cy="556.74" fill="url(&quot;#SvgjsRadialGradient1058&quot;)"></circle><circle r="5" cx="98.96" cy="528.14" fill="#e3e5eb"></circle><circle r="5" cx="206.84" cy="642.86" fill="#e3e5eb"></circle><circle r="5" cx="392.37" cy="550.41" fill="#e3e5eb"></circle><circle r="5" cx="533.94" cy="549.48" fill="#e3e5eb"></circle><circle r="5" cx="550.75" cy="661.92" fill="#e3e5eb"></circle><circle r="5" cx="658.53" cy="537.56" fill="#e3e5eb"></circle><circle r="5" cx="659.81" cy="662.43" fill="#e3e5eb"></circle><circle r="5" cx="798.35" cy="344.51" fill="#e3e5eb"></circle><circle r="5" cx="805.17" cy="515.46" fill="#e3e5eb"></circle><circle r="5" cx="971.69" cy="403.57" fill="#e3e5eb"></circle><circle r="5" cx="995.1" cy="521.28" fill="#e3e5eb"></circle><circle r="5" cx="1119.83" cy="372.06" fill="#e3e5eb"></circle><circle r="5" cx="1260.39" cy="-108.7" fill="#e3e5eb"></circle><circle r="5" cx="1300" cy="93.39" fill="#e3e5eb"></circle><circle r="5" cx="1290.45" cy="225.94" fill="#e3e5eb"></circle><circle r="5" cx="1240.66" cy="386.06" fill="#e3e5eb"></circle><circle r="5" cx="1288.14" cy="521.88" fill="#e3e5eb"></circle><circle r="5" cx="1395.38" cy="-54.31" fill="#e3e5eb"></circle><circle r="5" cx="1406.68" cy="63.52" fill="#e3e5eb"></circle><circle r="5" cx="1458.59" cy="209.4" fill="#e3e5eb"></circle><circle r="5" cx="1449.57" cy="369.75" fill="#e3e5eb"></circle><circle r="5" cx="1387.54" cy="687.3" fill="#e3e5eb"></circle><circle r="5" cx="1564.72" cy="-61.73" fill="#e3e5eb"></circle><circle r="5" cx="1537.5" cy="47.4" fill="#e3e5eb"></circle><circle r="5" cx="1562.62" cy="259.19" fill="#e3e5eb"></circle><circle r="5" cx="1565.55" cy="393.74" fill="#e3e5eb"></circle><circle r="5" cx="1599.82" cy="701.42" fill="#e3e5eb"></circle></g><defs><mask id="SvgjsMask1056"><rect width="1440" height="560" fill="#ffffff"></rect></mask><linearGradient x1="15.28%" y1="-39.29%" x2="84.72%" y2="139.29%" gradientUnits="userSpaceOnUse" id="SvgjsLinearGradient1057"><stop stop-color="#0e2a47" offset="0"></stop><stop stop-color="rgba(27, 114, 186, 0.1)" offset="1"></stop></linearGradient><radialGradient id="SvgjsRadialGradient1058"><stop stop-color="#ffffff" offset="0.1"></stop><stop stop-color="rgba(199, 202, 215, 1)" offset="0.2"></stop><stop stop-color="rgba(199, 202, 215, 0)" offset="1"></stop></radialGradient></defs></svg>