<svg xmlns="http://www.w3.org/2000/svg" version="1.1" xmlns:xlink="http://www.w3.org/1999/xlink" xmlns:svgjs="http://svgjs.dev/svgjs" width="1440" height="560" preserveAspectRatio="none" viewBox="0 0 1440 560"><g mask="url(&quot;#SvgjsMask1102&quot;)" fill="none"><rect width="1440" height="560" x="0" y="0" fill="url(&quot;#SvgjsLinearGradient1103&quot;)"></rect><path d="M-46.05 404.66L-46.05 404.66" stroke="rgba(255, 255, 255, 0.12)" stroke-width="1.5"></path><path d="M-46.05 404.66L-54.06 541.44" stroke="rgba(255, 255, 255, 0.12)" stroke-width="1.5"></path><path d="M-46.05 404.66L63.31 552.74" stroke="rgba(255, 255, 255, 0.12)" stroke-width="1.5"></path><path d="M-46.05 404.66L-109.03 676.29" stroke="rgba(255, 255, 255, 0.12)" stroke-width="1.5"></path><path d="M-46.05 404.66L112.1 650.16" stroke="rgba(255, 255, 255, 0.12)" stroke-width="1.5"></path><path d="M-54.06 541.44L-54.06 541.44" stroke="rgba(255, 255, 255, 0.12)" stroke-width="1.5"></path><path d="M-54.06 541.44L63.31 552.74" stroke="rgba(255, 255, 255, 0.12)" stroke-width="1.5"></path><path d="M-109.03 676.29L-109.03 676.29" stroke="rgba(255, 255, 255, 0.12)" stroke-width="1.5"></path><path d="M-109.03 676.29L-54.06 541.44" stroke="rgba(255, 255, 255, 0.12)" stroke-width="1.5"></path><path d="M-109.03 676.29L63.31 552.74" stroke="rgba(255, 255, 255, 0.12)" stroke-width="1.5"></path><path d="M63.31 552.74L63.31 552.74" stroke="rgba(255, 255, 255, 0.12)" stroke-width="1.5"></path><path d="M63.31 552.74L112.1 650.16" stroke="rgba(255, 255, 255, 0.12)" stroke-width="1.5"></path><path d="M63.31 552.74L224.32 542.23" stroke="rgba(255, 255, 255, 0.12)" stroke-width="1.5"></path><path d="M63.31 552.74L213.1 637.72" stroke="rgba(255, 255, 255, 0.12)" stroke-width="1.5"></path><path d="M112.1 650.16L112.1 650.16" stroke="rgba(255, 255, 255, 0.12)" stroke-width="1.5"></path><path d="M112.1 650.16L213.1 637.72" stroke="rgba(255, 255, 255, 0.12)" stroke-width="1.5"></path><path d="M224.32 542.23L224.32 542.23" stroke="rgba(255, 255, 255, 0.12)" stroke-width="1.5"></path><path d="M224.32 542.23L213.1 637.72" stroke="rgba(255, 255, 255, 0.12)" stroke-width="1.5"></path><path d="M224.32 542.23L368.63 516.24" stroke="rgba(255, 255, 255, 0.12)" stroke-width="1.5"></path><path d="M224.32 542.23L112.1 650.16" stroke="rgba(255, 255, 255, 0.12)" stroke-width="1.5"></path><path d="M224.32 542.23L384.67 641.45" stroke="rgba(255, 255, 255, 0.12)" stroke-width="1.5"></path><path d="M213.1 637.72L213.1 637.72" stroke="rgba(255, 255, 255, 0.12)" stroke-width="1.5"></path><path d="M360.66 347.88L360.66 347.88" stroke="rgba(255, 255, 255, 0.12)" stroke-width="1.5"></path><path d="M360.66 347.88L519.31 343.39" stroke="rgba(255, 255, 255, 0.12)" stroke-width="1.5"></path><path d="M360.66 347.88L368.63 516.24" stroke="rgba(255, 255, 255, 0.12)" stroke-width="1.5"></path><path d="M368.63 516.24L368.63 516.24" stroke="rgba(255, 255, 255, 0.12)" stroke-width="1.5"></path><path d="M368.63 516.24L384.67 641.45" stroke="rgba(255, 255, 255, 0.12)" stroke-width="1.5"></path><path d="M368.63 516.24L506.96 518.39" stroke="rgba(255, 255, 255, 0.12)" stroke-width="1.5"></path><path d="M384.67 641.45L384.67 641.45" stroke="rgba(255, 255, 255, 0.12)" stroke-width="1.5"></path><path d="M384.67 641.45L489.74 660.42" stroke="rgba(255, 255, 255, 0.12)" stroke-width="1.5"></path><path d="M384.67 641.45L213.1 637.72" stroke="rgba(255, 255, 255, 0.12)" stroke-width="1.5"></path><path d="M384.67 641.45L506.96 518.39" stroke="rgba(255, 255, 255, 0.12)" stroke-width="1.5"></path><path d="M384.67 641.45L650.92 655.97" stroke="rgba(255, 255, 255, 0.12)" stroke-width="1.5"></path><path d="M519.31 343.39L519.31 343.39" stroke="rgba(255, 255, 255, 0.12)" stroke-width="1.5"></path><path d="M519.31 343.39L506.96 518.39" stroke="rgba(255, 255, 255, 0.12)" stroke-width="1.5"></path><path d="M519.31 343.39L702.31 342.23" stroke="rgba(255, 255, 255, 0.12)" stroke-width="1.5"></path><path d="M519.31 343.39L679.34 217.05" stroke="rgba(255, 255, 255, 0.12)" stroke-width="1.5"></path><path d="M519.31 343.39L656.98 517.67" stroke="rgba(255, 255, 255, 0.12)" stroke-width="1.5"></path><path d="M506.96 518.39L506.96 518.39" stroke="rgba(255, 255, 255, 0.12)" stroke-width="1.5"></path><path d="M506.96 518.39L489.74 660.42" stroke="rgba(255, 255, 255, 0.12)" stroke-width="1.5"></path><path d="M506.96 518.39L656.98 517.67" stroke="rgba(255, 255, 255, 0.12)" stroke-width="1.5"></path><path d="M489.74 660.42L489.74 660.42" stroke="rgba(255, 255, 255, 0.12)" stroke-width="1.5"></path><path d="M679.34 217.05L679.34 217.05" stroke="rgba(255, 255, 255, 0.12)" stroke-width="1.5"></path><path d="M679.34 217.05L702.31 342.23" stroke="rgba(255, 255, 255, 0.12)" stroke-width="1.5"></path><path d="M679.34 217.05L842.83 248.35" stroke="rgba(255, 255, 255, 0.12)" stroke-width="1.5"></path><path d="M702.31 342.23L702.31 342.23" stroke="rgba(255, 255, 255, 0.12)" stroke-width="1.5"></path><path d="M702.31 342.23L823.09 412.36" stroke="rgba(255, 255, 255, 0.12)" stroke-width="1.5"></path><path d="M702.31 342.23L842.83 248.35" stroke="rgba(255, 255, 255, 0.12)" stroke-width="1.5"></path><path d="M702.31 342.23L656.98 517.67" stroke="rgba(255, 255, 255, 0.12)" stroke-width="1.5"></path><path d="M656.98 517.67L656.98 517.67" stroke="rgba(255, 255, 255, 0.12)" stroke-width="1.5"></path><path d="M656.98 517.67L787.84 521.28" stroke="rgba(255, 255, 255, 0.12)" stroke-width="1.5"></path><path d="M656.98 517.67L650.92 655.97" stroke="rgba(255, 255, 255, 0.12)" stroke-width="1.5"></path><path d="M656.98 517.67L823.09 412.36" stroke="rgba(255, 255, 255, 0.12)" stroke-width="1.5"></path><path d="M650.92 655.97L650.92 655.97" stroke="rgba(255, 255, 255, 0.12)" stroke-width="1.5"></path><path d="M650.92 655.97L489.74 660.42" stroke="rgba(255, 255, 255, 0.12)" stroke-width="1.5"></path><path d="M650.92 655.97L835.34 677.92" stroke="rgba(255, 255, 255, 0.12)" stroke-width="1.5"></path><path d="M842.83 248.35L842.83 248.35" stroke="rgba(255, 255, 255, 0.12)" stroke-width="1.5"></path><path d="M842.83 248.35L977.09 241.93" stroke="rgba(255, 255, 255, 0.12)" stroke-width="1.5"></path><path d="M842.83 248.35L823.09 412.36" stroke="rgba(255, 255, 255, 0.12)" stroke-width="1.5"></path><path d="M823.09 412.36L823.09 412.36" stroke="rgba(255, 255, 255, 0.12)" stroke-width="1.5"></path><path d="M823.09 412.36L787.84 521.28" stroke="rgba(255, 255, 255, 0.12)" stroke-width="1.5"></path><path d="M823.09 412.36L976.93 364.64" stroke="rgba(255, 255, 255, 0.12)" stroke-width="1.5"></path><path d="M787.84 521.28L787.84 521.28" stroke="rgba(255, 255, 255, 0.12)" stroke-width="1.5"></path><path d="M787.84 521.28L835.34 677.92" stroke="rgba(255, 255, 255, 0.12)" stroke-width="1.5"></path><path d="M835.34 677.92L835.34 677.92" stroke="rgba(255, 255, 255, 0.12)" stroke-width="1.5"></path><path d="M835.34 677.92L1008.17 673.21" stroke="rgba(255, 255, 255, 0.12)" stroke-width="1.5"></path><path d="M835.34 677.92L656.98 517.67" stroke="rgba(255, 255, 255, 0.12)" stroke-width="1.5"></path><path d="M992.41 -85.94L992.41 -85.94" stroke="rgba(255, 255, 255, 0.12)" stroke-width="1.5"></path><path d="M992.41 -85.94L939.32 53.46" stroke="rgba(255, 255, 255, 0.12)" stroke-width="1.5"></path><path d="M992.41 -85.94L1147.5 -101.2" stroke="rgba(255, 255, 255, 0.12)" stroke-width="1.5"></path><path d="M992.41 -85.94L1125.27 68.65" stroke="rgba(255, 255, 255, 0.12)" stroke-width="1.5"></path><path d="M992.41 -85.94L1241.54 -50.15" stroke="rgba(255, 255, 255, 0.12)" stroke-width="1.5"></path><path d="M992.41 -85.94L977.09 241.93" stroke="rgba(255, 255, 255, 0.12)" stroke-width="1.5"></path><path d="M992.41 -85.94L1123.63 238.64" stroke="rgba(255, 255, 255, 0.12)" stroke-width="1.5"></path><path d="M939.32 53.46L939.32 53.46" stroke="rgba(255, 255, 255, 0.12)" stroke-width="1.5"></path><path d="M939.32 53.46L1125.27 68.65" stroke="rgba(255, 255, 255, 0.12)" stroke-width="1.5"></path><path d="M939.32 53.46L977.09 241.93" stroke="rgba(255, 255, 255, 0.12)" stroke-width="1.5"></path><path d="M939.32 53.46L842.83 248.35" stroke="rgba(255, 255, 255, 0.12)" stroke-width="1.5"></path><path d="M939.32 53.46L1147.5 -101.2" stroke="rgba(255, 255, 255, 0.12)" stroke-width="1.5"></path><path d="M977.09 241.93L977.09 241.93" stroke="rgba(255, 255, 255, 0.12)" stroke-width="1.5"></path><path d="M977.09 241.93L976.93 364.64" stroke="rgba(255, 255, 255, 0.12)" stroke-width="1.5"></path><path d="M977.09 241.93L1123.63 238.64" stroke="rgba(255, 255, 255, 0.12)" stroke-width="1.5"></path><path d="M977.09 241.93L1119.54 369.61" stroke="rgba(255, 255, 255, 0.12)" stroke-width="1.5"></path><path d="M977.09 241.93L1125.27 68.65" stroke="rgba(255, 255, 255, 0.12)" stroke-width="1.5"></path><path d="M976.93 364.64L976.93 364.64" stroke="rgba(255, 255, 255, 0.12)" stroke-width="1.5"></path><path d="M976.93 364.64L1000.29 498.29" stroke="rgba(255, 255, 255, 0.12)" stroke-width="1.5"></path><path d="M976.93 364.64L1119.54 369.61" stroke="rgba(255, 255, 255, 0.12)" stroke-width="1.5"></path><path d="M1000.29 498.29L1000.29 498.29" stroke="rgba(255, 255, 255, 0.12)" stroke-width="1.5"></path><path d="M1000.29 498.29L1152.45 530.24" stroke="rgba(255, 255, 255, 0.12)" stroke-width="1.5"></path><path d="M1008.17 673.21L1008.17 673.21" stroke="rgba(255, 255, 255, 0.12)" stroke-width="1.5"></path><path d="M1008.17 673.21L1091.38 695.76" stroke="rgba(255, 255, 255, 0.12)" stroke-width="1.5"></path><path d="M1008.17 673.21L1000.29 498.29" stroke="rgba(255, 255, 255, 0.12)" stroke-width="1.5"></path><path d="M1008.17 673.21L1152.45 530.24" stroke="rgba(255, 255, 255, 0.12)" stroke-width="1.5"></path><path d="M1008.17 673.21L1260.32 708.88" stroke="rgba(255, 255, 255, 0.12)" stroke-width="1.5"></path><path d="M1147.5 -101.2L1147.5 -101.2" stroke="rgba(255, 255, 255, 0.12)" stroke-width="1.5"></path><path d="M1147.5 -101.2L1241.54 -50.15" stroke="rgba(255, 255, 255, 0.12)" stroke-width="1.5"></path><path d="M1147.5 -101.2L1125.27 68.65" stroke="rgba(255, 255, 255, 0.12)" stroke-width="1.5"></path><path d="M1147.5 -101.2L1295.64 111.65" stroke="rgba(255, 255, 255, 0.12)" stroke-width="1.5"></path><path d="M1147.5 -101.2L1407.69 -48.63" stroke="rgba(255, 255, 255, 0.12)" stroke-width="1.5"></path><path d="M1125.27 68.65L1125.27 68.65" stroke="rgba(255, 255, 255, 0.12)" stroke-width="1.5"></path><path d="M1125.27 68.65L1241.54 -50.15" stroke="rgba(255, 255, 255, 0.12)" stroke-width="1.5"></path><path d="M1125.27 68.65L1123.63 238.64" stroke="rgba(255, 255, 255, 0.12)" stroke-width="1.5"></path><path d="M1125.27 68.65L1295.64 111.65" stroke="rgba(255, 255, 255, 0.12)" stroke-width="1.5"></path><path d="M1123.63 238.64L1123.63 238.64" stroke="rgba(255, 255, 255, 0.12)" stroke-width="1.5"></path><path d="M1123.63 238.64L1119.54 369.61" stroke="rgba(255, 255, 255, 0.12)" stroke-width="1.5"></path><path d="M1123.63 238.64L1259.12 246.37" stroke="rgba(255, 255, 255, 0.12)" stroke-width="1.5"></path><path d="M1119.54 369.61L1119.54 369.61" stroke="rgba(255, 255, 255, 0.12)" stroke-width="1.5"></path><path d="M1119.54 369.61L1152.45 530.24" stroke="rgba(255, 255, 255, 0.12)" stroke-width="1.5"></path><path d="M1119.54 369.61L1288.31 358.07" stroke="rgba(255, 255, 255, 0.12)" stroke-width="1.5"></path><path d="M1119.54 369.61L1000.29 498.29" stroke="rgba(255, 255, 255, 0.12)" stroke-width="1.5"></path><path d="M1119.54 369.61L1259.12 246.37" stroke="rgba(255, 255, 255, 0.12)" stroke-width="1.5"></path><path d="M1152.45 530.24L1152.45 530.24" stroke="rgba(255, 255, 255, 0.12)" stroke-width="1.5"></path><path d="M1152.45 530.24L1264.07 507.22" stroke="rgba(255, 255, 255, 0.12)" stroke-width="1.5"></path><path d="M1152.45 530.24L1091.38 695.76" stroke="rgba(255, 255, 255, 0.12)" stroke-width="1.5"></path><path d="M1091.38 695.76L1091.38 695.76" stroke="rgba(255, 255, 255, 0.12)" stroke-width="1.5"></path><path d="M1091.38 695.76L1260.32 708.88" stroke="rgba(255, 255, 255, 0.12)" stroke-width="1.5"></path><path d="M1091.38 695.76L1000.29 498.29" stroke="rgba(255, 255, 255, 0.12)" stroke-width="1.5"></path><path d="M1241.54 -50.15L1241.54 -50.15" stroke="rgba(255, 255, 255, 0.12)" stroke-width="1.5"></path><path d="M1295.64 111.65L1295.64 111.65" stroke="rgba(255, 255, 255, 0.12)" stroke-width="1.5"></path><path d="M1295.64 111.65L1259.12 246.37" stroke="rgba(255, 255, 255, 0.12)" stroke-width="1.5"></path><path d="M1295.64 111.65L1456.92 99.95" stroke="rgba(255, 255, 255, 0.12)" stroke-width="1.5"></path><path d="M1259.12 246.37L1259.12 246.37" stroke="rgba(255, 255, 255, 0.12)" stroke-width="1.5"></path><path d="M1259.12 246.37L1288.31 358.07" stroke="rgba(255, 255, 255, 0.12)" stroke-width="1.5"></path><path d="M1288.31 358.07L1288.31 358.07" stroke="rgba(255, 255, 255, 0.12)" stroke-width="1.5"></path><path d="M1288.31 358.07L1387.72 381.64" stroke="rgba(255, 255, 255, 0.12)" stroke-width="1.5"></path><path d="M1288.31 358.07L1264.07 507.22" stroke="rgba(255, 255, 255, 0.12)" stroke-width="1.5"></path><path d="M1264.07 507.22L1264.07 507.22" stroke="rgba(255, 255, 255, 0.12)" stroke-width="1.5"></path><path d="M1264.07 507.22L1429.54 516" stroke="rgba(255, 255, 255, 0.12)" stroke-width="1.5"></path><path d="M1260.32 708.88L1260.32 708.88" stroke="rgba(255, 255, 255, 0.12)" stroke-width="1.5"></path><path d="M1260.32 708.88L1400.92 659.96" stroke="rgba(255, 255, 255, 0.12)" stroke-width="1.5"></path><path d="M1407.69 -48.63L1407.69 -48.63" stroke="rgba(255, 255, 255, 0.12)" stroke-width="1.5"></path><path d="M1407.69 -48.63L1456.92 99.95" stroke="rgba(255, 255, 255, 0.12)" stroke-width="1.5"></path><path d="M1407.69 -48.63L1241.54 -50.15" stroke="rgba(255, 255, 255, 0.12)" stroke-width="1.5"></path><path d="M1407.69 -48.63L1538.08 76.88" stroke="rgba(255, 255, 255, 0.12)" stroke-width="1.5"></path><path d="M1407.69 -48.63L1295.64 111.65" stroke="rgba(255, 255, 255, 0.12)" stroke-width="1.5"></path><path d="M1456.92 99.95L1456.92 99.95" stroke="rgba(255, 255, 255, 0.12)" stroke-width="1.5"></path><path d="M1456.92 99.95L1538.08 76.88" stroke="rgba(255, 255, 255, 0.12)" stroke-width="1.5"></path><path d="M1456.92 99.95L1589.59 254.23" stroke="rgba(255, 255, 255, 0.12)" stroke-width="1.5"></path><path d="M1456.92 99.95L1602.38 -75.65" stroke="rgba(255, 255, 255, 0.12)" stroke-width="1.5"></path><path d="M1387.72 381.64L1387.72 381.64" stroke="rgba(255, 255, 255, 0.12)" stroke-width="1.5"></path><path d="M1387.72 381.64L1429.54 516" stroke="rgba(255, 255, 255, 0.12)" stroke-width="1.5"></path><path d="M1387.72 381.64L1540.85 373.68" stroke="rgba(255, 255, 255, 0.12)" stroke-width="1.5"></path><path d="M1387.72 381.64L1264.07 507.22" stroke="rgba(255, 255, 255, 0.12)" stroke-width="1.5"></path><path d="M1387.72 381.64L1259.12 246.37" stroke="rgba(255, 255, 255, 0.12)" stroke-width="1.5"></path><path d="M1387.72 381.64L1589.59 254.23" stroke="rgba(255, 255, 255, 0.12)" stroke-width="1.5"></path><path d="M1429.54 516L1429.54 516" stroke="rgba(255, 255, 255, 0.12)" stroke-width="1.5"></path><path d="M1429.54 516L1400.92 659.96" stroke="rgba(255, 255, 255, 0.12)" stroke-width="1.5"></path><path d="M1400.92 659.96L1400.92 659.96" stroke="rgba(255, 255, 255, 0.12)" stroke-width="1.5"></path><path d="M1602.38 -75.65L1602.38 -75.65" stroke="rgba(255, 255, 255, 0.12)" stroke-width="1.5"></path><path d="M1602.38 -75.65L1538.08 76.88" stroke="rgba(255, 255, 255, 0.12)" stroke-width="1.5"></path><path d="M1602.38 -75.65L1407.69 -48.63" stroke="rgba(255, 255, 255, 0.12)" stroke-width="1.5"></path><path d="M1602.38 -75.65L1589.59 254.23" stroke="rgba(255, 255, 255, 0.12)" stroke-width="1.5"></path><path d="M1602.38 -75.65L1295.64 111.65" stroke="rgba(255, 255, 255, 0.12)" stroke-width="1.5"></path><path d="M1602.38 -75.65L1241.54 -50.15" stroke="rgba(255, 255, 255, 0.12)" stroke-width="1.5"></path><path d="M1538.08 76.88L1538.08 76.88" stroke="rgba(255, 255, 255, 0.12)" stroke-width="1.5"></path><path d="M1589.59 254.23L1589.59 254.23" stroke="rgba(255, 255, 255, 0.12)" stroke-width="1.5"></path><path d="M1589.59 254.23L1540.85 373.68" stroke="rgba(255, 255, 255, 0.12)" stroke-width="1.5"></path><path d="M1589.59 254.23L1538.08 76.88" stroke="rgba(255, 255, 255, 0.12)" stroke-width="1.5"></path><path d="M1589.59 254.23L1607.02 495.72" stroke="rgba(255, 255, 255, 0.12)" stroke-width="1.5"></path><path d="M1540.85 373.68L1540.85 373.68" stroke="rgba(255, 255, 255, 0.12)" stroke-width="1.5"></path><path d="M1540.85 373.68L1607.02 495.72" stroke="rgba(255, 255, 255, 0.12)" stroke-width="1.5"></path><path d="M1540.85 373.68L1429.54 516" stroke="rgba(255, 255, 255, 0.12)" stroke-width="1.5"></path><path d="M1540.85 373.68L1288.31 358.07" stroke="rgba(255, 255, 255, 0.12)" stroke-width="1.5"></path><path d="M1540.85 373.68L1456.92 99.95" stroke="rgba(255, 255, 255, 0.12)" stroke-width="1.5"></path><path d="M1607.02 495.72L1607.02 495.72" stroke="rgba(255, 255, 255, 0.12)" stroke-width="1.5"></path><path d="M1607.02 495.72L1581.77 669.72" stroke="rgba(255, 255, 255, 0.12)" stroke-width="1.5"></path><path d="M1607.02 495.72L1429.54 516" stroke="rgba(255, 255, 255, 0.12)" stroke-width="1.5"></path><path d="M1581.77 669.72L1581.77 669.72" stroke="rgba(255, 255, 255, 0.12)" stroke-width="1.5"></path><path d="M1581.77 669.72L1400.92 659.96" stroke="rgba(255, 255, 255, 0.12)" stroke-width="1.5"></path><path d="M1581.77 669.72L1429.54 516" stroke="rgba(255, 255, 255, 0.12)" stroke-width="1.5"></path><path d="M1581.77 669.72L1540.85 373.68" stroke="rgba(255, 255, 255, 0.12)" stroke-width="1.5"></path><path d="M1581.77 669.72L1260.32 708.88" stroke="rgba(255, 255, 255, 0.12)" stroke-width="1.5"></path><path d="M1581.77 669.72L1387.72 381.64" stroke="rgba(255, 255, 255, 0.12)" stroke-width="1.5"></path><circle r="5" cx="-46.05" cy="404.66" fill="rgba(255, 255, 255, 0.12)"></circle><circle r="5" cx="-54.06" cy="541.44" fill="rgba(255, 255, 255, 0.12)"></circle><circle r="5" cx="-109.03" cy="676.29" fill="rgba(255, 255, 255, 0.12)"></circle><circle r="5" cx="63.31" cy="552.74" fill="rgba(255, 255, 255, 0.12)"></circle><circle r="5" cx="112.1" cy="650.16" fill="rgba(255, 255, 255, 0.12)"></circle><circle r="5" cx="224.32" cy="542.23" fill="rgba(255, 255, 255, 0.12)"></circle><circle r="5" cx="213.1" cy="637.72" fill="rgba(255, 255, 255, 0.12)"></circle><circle r="5" cx="360.66" cy="347.88" fill="rgba(255, 255, 255, 0.12)"></circle><circle r="5" cx="368.63" cy="516.24" fill="rgba(255, 255, 255, 0.12)"></circle><circle r="5" cx="384.67" cy="641.45" fill="rgba(255, 255, 255, 0.12)"></circle><circle r="5" cx="519.31" cy="343.39" fill="rgba(255, 255, 255, 0.12)"></circle><circle r="5" cx="506.96" cy="518.39" fill="rgba(255, 255, 255, 0.12)"></circle><circle r="5" cx="489.74" cy="660.42" fill="rgba(255, 255, 255, 0.12)"></circle><circle r="5" cx="679.34" cy="217.05" fill="rgba(255, 255, 255, 0.12)"></circle><circle r="5" cx="702.31" cy="342.23" fill="rgba(255, 255, 255, 0.12)"></circle><circle r="5" cx="656.98" cy="517.67" fill="rgba(255, 255, 255, 0.12)"></circle><circle r="5" cx="650.92" cy="655.97" fill="rgba(255, 255, 255, 0.12)"></circle><circle r="5" cx="842.83" cy="248.35" fill="rgba(255, 255, 255, 0.12)"></circle><circle r="5" cx="823.09" cy="412.36" fill="rgba(255, 255, 255, 0.12)"></circle><circle r="5" cx="787.84" cy="521.28" fill="rgba(255, 255, 255, 0.12)"></circle><circle r="5" cx="835.34" cy="677.92" fill="rgba(255, 255, 255, 0.12)"></circle><circle r="5" cx="992.41" cy="-85.94" fill="rgba(255, 255, 255, 0.12)"></circle><circle r="5" cx="939.32" cy="53.46" fill="rgba(255, 255, 255, 0.12)"></circle><circle r="5" cx="977.09" cy="241.93" fill="rgba(255, 255, 255, 0.12)"></circle><circle r="5" cx="976.93" cy="364.64" fill="rgba(255, 255, 255, 0.12)"></circle><circle r="5" cx="1000.29" cy="498.29" fill="rgba(255, 255, 255, 0.12)"></circle><circle r="5" cx="1008.17" cy="673.21" fill="rgba(255, 255, 255, 0.12)"></circle><circle r="5" cx="1147.5" cy="-101.2" fill="rgba(255, 255, 255, 0.12)"></circle><circle r="5" cx="1125.27" cy="68.65" fill="rgba(255, 255, 255, 0.12)"></circle><circle r="5" cx="1123.63" cy="238.64" fill="rgba(255, 255, 255, 0.12)"></circle><circle r="5" cx="1119.54" cy="369.61" fill="rgba(255, 255, 255, 0.12)"></circle><circle r="5" cx="1152.45" cy="530.24" fill="rgba(255, 255, 255, 0.12)"></circle><circle r="5" cx="1091.38" cy="695.76" fill="rgba(255, 255, 255, 0.12)"></circle><circle r="5" cx="1241.54" cy="-50.15" fill="rgba(255, 255, 255, 0.12)"></circle><circle r="5" cx="1295.64" cy="111.65" fill="rgba(255, 255, 255, 0.12)"></circle><circle r="5" cx="1259.12" cy="246.37" fill="rgba(255, 255, 255, 0.12)"></circle><circle r="5" cx="1288.31" cy="358.07" fill="rgba(255, 255, 255, 0.12)"></circle><circle r="5" cx="1264.07" cy="507.22" fill="rgba(255, 255, 255, 0.12)"></circle><circle r="5" cx="1260.32" cy="708.88" fill="rgba(255, 255, 255, 0.12)"></circle><circle r="5" cx="1407.69" cy="-48.63" fill="rgba(255, 255, 255, 0.12)"></circle><circle r="5" cx="1456.92" cy="99.95" fill="rgba(255, 255, 255, 0.12)"></circle><circle r="5" cx="1387.72" cy="381.64" fill="rgba(255, 255, 255, 0.12)"></circle><circle r="5" cx="1429.54" cy="516" fill="rgba(255, 255, 255, 0.12)"></circle><circle r="5" cx="1400.92" cy="659.96" fill="rgba(255, 255, 255, 0.12)"></circle><circle r="5" cx="1602.38" cy="-75.65" fill="rgba(255, 255, 255, 0.12)"></circle><circle r="5" cx="1538.08" cy="76.88" fill="rgba(255, 255, 255, 0.12)"></circle><circle r="5" cx="1589.59" cy="254.23" fill="rgba(255, 255, 255, 0.12)"></circle><circle r="5" cx="1540.85" cy="373.68" fill="rgba(255, 255, 255, 0.12)"></circle><circle r="5" cx="1607.02" cy="495.72" fill="rgba(255, 255, 255, 0.12)"></circle><circle r="5" cx="1581.77" cy="669.72" fill="rgba(255, 255, 255, 0.12)"></circle><path d="M-69.54 558.15L-69.54 558.15" stroke="hsla(0, 0%, 100%, 0.09)" stroke-width="1.5"></path><path d="M-69.54 558.15L-57.83 646.74" stroke="hsla(0, 0%, 100%, 0.09)" stroke-width="1.5"></path><path d="M-69.54 558.15L98.97 541.85" stroke="hsla(0, 0%, 100%, 0.09)" stroke-width="1.5"></path><path d="M-57.83 646.74L-57.83 646.74" stroke="hsla(0, 0%, 100%, 0.09)" stroke-width="1.5"></path><path d="M-57.83 646.74L102.15 650.84" stroke="hsla(0, 0%, 100%, 0.09)" stroke-width="1.5"></path><path d="M-57.83 646.74L98.97 541.85" stroke="hsla(0, 0%, 100%, 0.09)" stroke-width="1.5"></path><path d="M-57.83 646.74L256.54 545.24" stroke="hsla(0, 0%, 100%, 0.09)" stroke-width="1.5"></path><path d="M-57.83 646.74L340.76 699.86" stroke="hsla(0, 0%, 100%, 0.09)" stroke-width="1.5"></path><path d="M98.97 541.85L98.97 541.85" stroke="hsla(0, 0%, 100%, 0.09)" stroke-width="1.5"></path><path d="M98.97 541.85L102.15 650.84" stroke="hsla(0, 0%, 100%, 0.09)" stroke-width="1.5"></path><path d="M98.97 541.85L256.54 545.24" stroke="hsla(0, 0%, 100%, 0.09)" stroke-width="1.5"></path><path d="M684.85 685.7L684.85 685.7" stroke="hsla(0, 0%, 100%, 0.09)" stroke-width="1.5"></path><path d="M684.85 685.7L521.09 700.86" stroke="hsla(0, 0%, 100%, 0.09)" stroke-width="1.5"></path><path d="M684.85 685.7L849.93 699.2" stroke="hsla(0, 0%, 100%, 0.09)" stroke-width="1.5"></path><path d="M684.85 685.7L792.6 551.7" stroke="hsla(0, 0%, 100%, 0.09)" stroke-width="1.5"></path><path d="M792.6 551.7L792.6 551.7" stroke="hsla(0, 0%, 100%, 0.09)" stroke-width="1.5"></path><path d="M792.6 551.7L849.93 699.2" stroke="hsla(0, 0%, 100%, 0.09)" stroke-width="1.5"></path><path d="M792.6 551.7L844.43 393.77" stroke="hsla(0, 0%, 100%, 0.09)" stroke-width="1.5"></path><path d="M792.6 551.7L966.19 638.1" stroke="hsla(0, 0%, 100%, 0.09)" stroke-width="1.5"></path><path d="M792.6 551.7L984.5 495.24" stroke="hsla(0, 0%, 100%, 0.09)" stroke-width="1.5"></path><path d="M1267.39 -54.23L1267.39 -54.23" stroke="hsla(0, 0%, 100%, 0.09)" stroke-width="1.5"></path><path d="M1267.39 -54.23L1301.31 57.77" stroke="hsla(0, 0%, 100%, 0.09)" stroke-width="1.5"></path><path d="M1267.39 -54.23L1141.36 61.15" stroke="hsla(0, 0%, 100%, 0.09)" stroke-width="1.5"></path><path d="M1267.39 -54.23L1445.79 -46.76" stroke="hsla(0, 0%, 100%, 0.09)" stroke-width="1.5"></path><path d="M1267.39 -54.23L1458.21 51.16" stroke="hsla(0, 0%, 100%, 0.09)" stroke-width="1.5"></path><path d="M1266.97 353.3L1266.97 353.3" stroke="hsla(0, 0%, 100%, 0.09)" stroke-width="1.5"></path><path d="M1266.97 353.3L1138.09 368" stroke="hsla(0, 0%, 100%, 0.09)" stroke-width="1.5"></path><path d="M1266.97 353.3L1414.15 362.08" stroke="hsla(0, 0%, 100%, 0.09)" stroke-width="1.5"></path><path d="M1267.33 676.48L1267.33 676.48" stroke="hsla(0, 0%, 100%, 0.09)" stroke-width="1.5"></path><path d="M1267.33 676.48L1297.93 508.98" stroke="hsla(0, 0%, 100%, 0.09)" stroke-width="1.5"></path><path d="M1267.33 676.48L1091.01 664.88" stroke="hsla(0, 0%, 100%, 0.09)" stroke-width="1.5"></path><path d="M1583.2 55.2L1583.2 55.2" stroke="hsla(0, 0%, 100%, 0.09)" stroke-width="1.5"></path><path d="M1583.2 55.2L1458.21 51.16" stroke="hsla(0, 0%, 100%, 0.09)" stroke-width="1.5"></path><path d="M102.15 650.84L102.15 650.84" stroke="hsla(0, 0%, 100%, 0.09)" stroke-width="1.5"></path><path d="M102.15 650.84L256.54 545.24" stroke="hsla(0, 0%, 100%, 0.09)" stroke-width="1.5"></path><path d="M102.15 650.84L-69.54 558.15" stroke="hsla(0, 0%, 100%, 0.09)" stroke-width="1.5"></path><path d="M256.54 545.24L256.54 545.24" stroke="hsla(0, 0%, 100%, 0.09)" stroke-width="1.5"></path><path d="M256.54 545.24L396.38 527.4" stroke="hsla(0, 0%, 100%, 0.09)" stroke-width="1.5"></path><path d="M256.54 545.24L340.76 699.86" stroke="hsla(0, 0%, 100%, 0.09)" stroke-width="1.5"></path><path d="M256.54 545.24L560.83 528.52" stroke="hsla(0, 0%, 100%, 0.09)" stroke-width="1.5"></path><path d="M256.54 545.24L521.09 700.86" stroke="hsla(0, 0%, 100%, 0.09)" stroke-width="1.5"></path><path d="M396.38 527.4L396.38 527.4" stroke="hsla(0, 0%, 100%, 0.09)" stroke-width="1.5"></path><path d="M396.38 527.4L560.83 528.52" stroke="hsla(0, 0%, 100%, 0.09)" stroke-width="1.5"></path><path d="M396.38 527.4L340.76 699.86" stroke="hsla(0, 0%, 100%, 0.09)" stroke-width="1.5"></path><path d="M396.38 527.4L521.09 700.86" stroke="hsla(0, 0%, 100%, 0.09)" stroke-width="1.5"></path><path d="M396.38 527.4L98.97 541.85" stroke="hsla(0, 0%, 100%, 0.09)" stroke-width="1.5"></path><path d="M340.76 699.86L340.76 699.86" stroke="hsla(0, 0%, 100%, 0.09)" stroke-width="1.5"></path><path d="M340.76 699.86L521.09 700.86" stroke="hsla(0, 0%, 100%, 0.09)" stroke-width="1.5"></path><path d="M340.76 699.86L102.15 650.84" stroke="hsla(0, 0%, 100%, 0.09)" stroke-width="1.5"></path><path d="M340.76 699.86L560.83 528.52" stroke="hsla(0, 0%, 100%, 0.09)" stroke-width="1.5"></path><path d="M340.76 699.86L98.97 541.85" stroke="hsla(0, 0%, 100%, 0.09)" stroke-width="1.5"></path><path d="M560.83 528.52L560.83 528.52" stroke="hsla(0, 0%, 100%, 0.09)" stroke-width="1.5"></path><path d="M560.83 528.52L521.09 700.86" stroke="hsla(0, 0%, 100%, 0.09)" stroke-width="1.5"></path><path d="M560.83 528.52L684.85 685.7" stroke="hsla(0, 0%, 100%, 0.09)" stroke-width="1.5"></path><path d="M521.09 700.86L521.09 700.86" stroke="hsla(0, 0%, 100%, 0.09)" stroke-width="1.5"></path><path d="M844.43 393.77L844.43 393.77" stroke="hsla(0, 0%, 100%, 0.09)" stroke-width="1.5"></path><path d="M844.43 393.77L1005.75 353.38" stroke="hsla(0, 0%, 100%, 0.09)" stroke-width="1.5"></path><path d="M844.43 393.77L984.5 495.24" stroke="hsla(0, 0%, 100%, 0.09)" stroke-width="1.5"></path><path d="M844.43 393.77L966.19 638.1" stroke="hsla(0, 0%, 100%, 0.09)" stroke-width="1.5"></path><path d="M844.43 393.77L1107.14 496.44" stroke="hsla(0, 0%, 100%, 0.09)" stroke-width="1.5"></path><path d="M844.43 393.77L1138.09 368" stroke="hsla(0, 0%, 100%, 0.09)" stroke-width="1.5"></path><path d="M849.93 699.2L849.93 699.2" stroke="hsla(0, 0%, 100%, 0.09)" stroke-width="1.5"></path><path d="M849.93 699.2L966.19 638.1" stroke="hsla(0, 0%, 100%, 0.09)" stroke-width="1.5"></path><path d="M849.93 699.2L1091.01 664.88" stroke="hsla(0, 0%, 100%, 0.09)" stroke-width="1.5"></path><path d="M849.93 699.2L984.5 495.24" stroke="hsla(0, 0%, 100%, 0.09)" stroke-width="1.5"></path><path d="M1005.75 353.38L1005.75 353.38" stroke="hsla(0, 0%, 100%, 0.09)" stroke-width="1.5"></path><path d="M1005.75 353.38L1138.09 368" stroke="hsla(0, 0%, 100%, 0.09)" stroke-width="1.5"></path><path d="M984.5 495.24L984.5 495.24" stroke="hsla(0, 0%, 100%, 0.09)" stroke-width="1.5"></path><path d="M984.5 495.24L1107.14 496.44" stroke="hsla(0, 0%, 100%, 0.09)" stroke-width="1.5"></path><path d="M984.5 495.24L1005.75 353.38" stroke="hsla(0, 0%, 100%, 0.09)" stroke-width="1.5"></path><path d="M984.5 495.24L966.19 638.1" stroke="hsla(0, 0%, 100%, 0.09)" stroke-width="1.5"></path><path d="M966.19 638.1L966.19 638.1" stroke="hsla(0, 0%, 100%, 0.09)" stroke-width="1.5"></path><path d="M966.19 638.1L1091.01 664.88" stroke="hsla(0, 0%, 100%, 0.09)" stroke-width="1.5"></path><path d="M966.19 638.1L1107.14 496.44" stroke="hsla(0, 0%, 100%, 0.09)" stroke-width="1.5"></path><path d="M1141.36 61.15L1141.36 61.15" stroke="hsla(0, 0%, 100%, 0.09)" stroke-width="1.5"></path><path d="M1141.36 61.15L1091.7 202.27" stroke="hsla(0, 0%, 100%, 0.09)" stroke-width="1.5"></path><path d="M1141.36 61.15L1301.31 57.77" stroke="hsla(0, 0%, 100%, 0.09)" stroke-width="1.5"></path><path d="M1141.36 61.15L1276.55 196.22" stroke="hsla(0, 0%, 100%, 0.09)" stroke-width="1.5"></path><path d="M1141.36 61.15L1138.09 368" stroke="hsla(0, 0%, 100%, 0.09)" stroke-width="1.5"></path><path d="M1091.7 202.27L1091.7 202.27" stroke="hsla(0, 0%, 100%, 0.09)" stroke-width="1.5"></path><path d="M1091.7 202.27L1138.09 368" stroke="hsla(0, 0%, 100%, 0.09)" stroke-width="1.5"></path><path d="M1091.7 202.27L1005.75 353.38" stroke="hsla(0, 0%, 100%, 0.09)" stroke-width="1.5"></path><path d="M1091.7 202.27L1276.55 196.22" stroke="hsla(0, 0%, 100%, 0.09)" stroke-width="1.5"></path><path d="M1138.09 368L1138.09 368" stroke="hsla(0, 0%, 100%, 0.09)" stroke-width="1.5"></path><path d="M1138.09 368L1107.14 496.44" stroke="hsla(0, 0%, 100%, 0.09)" stroke-width="1.5"></path><path d="M1107.14 496.44L1107.14 496.44" stroke="hsla(0, 0%, 100%, 0.09)" stroke-width="1.5"></path><path d="M1107.14 496.44L1091.01 664.88" stroke="hsla(0, 0%, 100%, 0.09)" stroke-width="1.5"></path><path d="M1107.14 496.44L1005.75 353.38" stroke="hsla(0, 0%, 100%, 0.09)" stroke-width="1.5"></path><path d="M1107.14 496.44L1297.93 508.98" stroke="hsla(0, 0%, 100%, 0.09)" stroke-width="1.5"></path><path d="M1091.01 664.88L1091.01 664.88" stroke="hsla(0, 0%, 100%, 0.09)" stroke-width="1.5"></path><path d="M1091.01 664.88L984.5 495.24" stroke="hsla(0, 0%, 100%, 0.09)" stroke-width="1.5"></path><path d="M1091.01 664.88L1297.93 508.98" stroke="hsla(0, 0%, 100%, 0.09)" stroke-width="1.5"></path><path d="M1301.31 57.77L1301.31 57.77" stroke="hsla(0, 0%, 100%, 0.09)" stroke-width="1.5"></path><path d="M1301.31 57.77L1276.55 196.22" stroke="hsla(0, 0%, 100%, 0.09)" stroke-width="1.5"></path><path d="M1301.31 57.77L1458.21 51.16" stroke="hsla(0, 0%, 100%, 0.09)" stroke-width="1.5"></path><path d="M1276.55 196.22L1276.55 196.22" stroke="hsla(0, 0%, 100%, 0.09)" stroke-width="1.5"></path><path d="M1276.55 196.22L1390.22 249.74" stroke="hsla(0, 0%, 100%, 0.09)" stroke-width="1.5"></path><path d="M1276.55 196.22L1266.97 353.3" stroke="hsla(0, 0%, 100%, 0.09)" stroke-width="1.5"></path><path d="M1297.93 508.98L1297.93 508.98" stroke="hsla(0, 0%, 100%, 0.09)" stroke-width="1.5"></path><path d="M1297.93 508.98L1431.64 487.51" stroke="hsla(0, 0%, 100%, 0.09)" stroke-width="1.5"></path><path d="M1297.93 508.98L1266.97 353.3" stroke="hsla(0, 0%, 100%, 0.09)" stroke-width="1.5"></path><path d="M1445.79 -46.76L1445.79 -46.76" stroke="hsla(0, 0%, 100%, 0.09)" stroke-width="1.5"></path><path d="M1445.79 -46.76L1458.21 51.16" stroke="hsla(0, 0%, 100%, 0.09)" stroke-width="1.5"></path><path d="M1445.79 -46.76L1573.8 -74.14" stroke="hsla(0, 0%, 100%, 0.09)" stroke-width="1.5"></path><path d="M1445.79 -46.76L1583.2 55.2" stroke="hsla(0, 0%, 100%, 0.09)" stroke-width="1.5"></path><path d="M1445.79 -46.76L1301.31 57.77" stroke="hsla(0, 0%, 100%, 0.09)" stroke-width="1.5"></path><path d="M1458.21 51.16L1458.21 51.16" stroke="hsla(0, 0%, 100%, 0.09)" stroke-width="1.5"></path><path d="M1458.21 51.16L1573.8 -74.14" stroke="hsla(0, 0%, 100%, 0.09)" stroke-width="1.5"></path><path d="M1390.22 249.74L1390.22 249.74" stroke="hsla(0, 0%, 100%, 0.09)" stroke-width="1.5"></path><path d="M1390.22 249.74L1414.15 362.08" stroke="hsla(0, 0%, 100%, 0.09)" stroke-width="1.5"></path><path d="M1390.22 249.74L1266.97 353.3" stroke="hsla(0, 0%, 100%, 0.09)" stroke-width="1.5"></path><path d="M1390.22 249.74L1552.8 226.22" stroke="hsla(0, 0%, 100%, 0.09)" stroke-width="1.5"></path><path d="M1414.15 362.08L1414.15 362.08" stroke="hsla(0, 0%, 100%, 0.09)" stroke-width="1.5"></path><path d="M1414.15 362.08L1431.64 487.51" stroke="hsla(0, 0%, 100%, 0.09)" stroke-width="1.5"></path><path d="M1431.64 487.51L1431.64 487.51" stroke="hsla(0, 0%, 100%, 0.09)" stroke-width="1.5"></path><path d="M1431.64 487.51L1542.16 516.75" stroke="hsla(0, 0%, 100%, 0.09)" stroke-width="1.5"></path><path d="M1449.72 653.24L1449.72 653.24" stroke="hsla(0, 0%, 100%, 0.09)" stroke-width="1.5"></path><path d="M1449.72 653.24L1605.77 668.86" stroke="hsla(0, 0%, 100%, 0.09)" stroke-width="1.5"></path><path d="M1449.72 653.24L1542.16 516.75" stroke="hsla(0, 0%, 100%, 0.09)" stroke-width="1.5"></path><path d="M1573.8 -74.14L1573.8 -74.14" stroke="hsla(0, 0%, 100%, 0.09)" stroke-width="1.5"></path><path d="M1573.8 -74.14L1583.2 55.2" stroke="hsla(0, 0%, 100%, 0.09)" stroke-width="1.5"></path><path d="M1573.8 -74.14L1552.8 226.22" stroke="hsla(0, 0%, 100%, 0.09)" stroke-width="1.5"></path><path d="M1573.8 -74.14L1301.31 57.77" stroke="hsla(0, 0%, 100%, 0.09)" stroke-width="1.5"></path><path d="M1573.8 -74.14L1267.39 -54.23" stroke="hsla(0, 0%, 100%, 0.09)" stroke-width="1.5"></path><path d="M1552.8 226.22L1552.8 226.22" stroke="hsla(0, 0%, 100%, 0.09)" stroke-width="1.5"></path><path d="M1552.8 226.22L1598.58 375.26" stroke="hsla(0, 0%, 100%, 0.09)" stroke-width="1.5"></path><path d="M1552.8 226.22L1583.2 55.2" stroke="hsla(0, 0%, 100%, 0.09)" stroke-width="1.5"></path><path d="M1552.8 226.22L1414.15 362.08" stroke="hsla(0, 0%, 100%, 0.09)" stroke-width="1.5"></path><path d="M1552.8 226.22L1458.21 51.16" stroke="hsla(0, 0%, 100%, 0.09)" stroke-width="1.5"></path><path d="M1552.8 226.22L1276.55 196.22" stroke="hsla(0, 0%, 100%, 0.09)" stroke-width="1.5"></path><path d="M1598.58 375.26L1598.58 375.26" stroke="hsla(0, 0%, 100%, 0.09)" stroke-width="1.5"></path><path d="M1598.58 375.26L1542.16 516.75" stroke="hsla(0, 0%, 100%, 0.09)" stroke-width="1.5"></path><path d="M1598.58 375.26L1414.15 362.08" stroke="hsla(0, 0%, 100%, 0.09)" stroke-width="1.5"></path><path d="M1598.58 375.26L1431.64 487.51" stroke="hsla(0, 0%, 100%, 0.09)" stroke-width="1.5"></path><path d="M1542.16 516.75L1542.16 516.75" stroke="hsla(0, 0%, 100%, 0.09)" stroke-width="1.5"></path><path d="M1542.16 516.75L1605.77 668.86" stroke="hsla(0, 0%, 100%, 0.09)" stroke-width="1.5"></path><path d="M1605.77 668.86L1605.77 668.86" stroke="hsla(0, 0%, 100%, 0.09)" stroke-width="1.5"></path><path d="M1605.77 668.86L1431.64 487.51" stroke="hsla(0, 0%, 100%, 0.09)" stroke-width="1.5"></path><path d="M1605.77 668.86L1598.58 375.26" stroke="hsla(0, 0%, 100%, 0.09)" stroke-width="1.5"></path><path d="M1605.77 668.86L1267.33 676.48" stroke="hsla(0, 0%, 100%, 0.09)" stroke-width="1.5"></path><path d="M1605.77 668.86L1297.93 508.98" stroke="hsla(0, 0%, 100%, 0.09)" stroke-width="1.5"></path><circle r="25" cx="-69.54" cy="558.15" fill="url(&quot;#SvgjsRadialGradient1104&quot;)"></circle><circle r="25" cx="-57.83" cy="646.74" fill="url(&quot;#SvgjsRadialGradient1104&quot;)"></circle><circle r="25" cx="98.97" cy="541.85" fill="url(&quot;#SvgjsRadialGradient1104&quot;)"></circle><circle r="25" cx="684.85" cy="685.7" fill="url(&quot;#SvgjsRadialGradient1104&quot;)"></circle><circle r="25" cx="792.6" cy="551.7" fill="url(&quot;#SvgjsRadialGradient1104&quot;)"></circle><circle r="25" cx="1267.39" cy="-54.23" fill="url(&quot;#SvgjsRadialGradient1104&quot;)"></circle><circle r="25" cx="1266.97" cy="353.3" fill="url(&quot;#SvgjsRadialGradient1104&quot;)"></circle><circle r="25" cx="1267.33" cy="676.48" fill="url(&quot;#SvgjsRadialGradient1104&quot;)"></circle><circle r="25" cx="1583.2" cy="55.2" fill="url(&quot;#SvgjsRadialGradient1104&quot;)"></circle><circle r="5" cx="102.15" cy="650.84" fill="rgba(255, 255, 255, 0.545)"></circle><circle r="5" cx="256.54" cy="545.24" fill="rgba(255, 255, 255, 0.545)"></circle><circle r="5" cx="396.38" cy="527.4" fill="rgba(255, 255, 255, 0.545)"></circle><circle r="5" cx="340.76" cy="699.86" fill="rgba(255, 255, 255, 0.545)"></circle><circle r="5" cx="560.83" cy="528.52" fill="rgba(255, 255, 255, 0.545)"></circle><circle r="5" cx="521.09" cy="700.86" fill="rgba(255, 255, 255, 0.545)"></circle><circle r="5" cx="844.43" cy="393.77" fill="rgba(255, 255, 255, 0.545)"></circle><circle r="5" cx="849.93" cy="699.2" fill="rgba(255, 255, 255, 0.545)"></circle><circle r="5" cx="1005.75" cy="353.38" fill="rgba(255, 255, 255, 0.545)"></circle><circle r="5" cx="984.5" cy="495.24" fill="rgba(255, 255, 255, 0.545)"></circle><circle r="5" cx="966.19" cy="638.1" fill="rgba(255, 255, 255, 0.545)"></circle><circle r="5" cx="1141.36" cy="61.15" fill="rgba(255, 255, 255, 0.545)"></circle><circle r="5" cx="1091.7" cy="202.27" fill="rgba(255, 255, 255, 0.545)"></circle><circle r="5" cx="1138.09" cy="368" fill="rgba(255, 255, 255, 0.545)"></circle><circle r="5" cx="1107.14" cy="496.44" fill="rgba(255, 255, 255, 0.545)"></circle><circle r="5" cx="1091.01" cy="664.88" fill="rgba(255, 255, 255, 0.545)"></circle><circle r="5" cx="1301.31" cy="57.77" fill="rgba(255, 255, 255, 0.545)"></circle><circle r="5" cx="1276.55" cy="196.22" fill="rgba(255, 255, 255, 0.545)"></circle><circle r="5" cx="1297.93" cy="508.98" fill="rgba(255, 255, 255, 0.545)"></circle><circle r="5" cx="1445.79" cy="-46.76" fill="rgba(255, 255, 255, 0.545)"></circle><circle r="5" cx="1458.21" cy="51.16" fill="rgba(255, 255, 255, 0.545)"></circle><circle r="5" cx="1390.22" cy="249.74" fill="rgba(255, 255, 255, 0.545)"></circle><circle r="5" cx="1414.15" cy="362.08" fill="rgba(255, 255, 255, 0.545)"></circle><circle r="5" cx="1431.64" cy="487.51" fill="rgba(255, 255, 255, 0.545)"></circle><circle r="5" cx="1449.72" cy="653.24" fill="rgba(255, 255, 255, 0.545)"></circle><circle r="5" cx="1573.8" cy="-74.14" fill="rgba(255, 255, 255, 0.545)"></circle><circle r="5" cx="1552.8" cy="226.22" fill="rgba(255, 255, 255, 0.545)"></circle><circle r="5" cx="1598.58" cy="375.26" fill="rgba(255, 255, 255, 0.545)"></circle><circle r="5" cx="1542.16" cy="516.75" fill="rgba(255, 255, 255, 0.545)"></circle><circle r="5" cx="1605.77" cy="668.86" fill="rgba(255, 255, 255, 0.545)"></circle></g><defs><mask id="SvgjsMask1102"><rect width="1440" height="560" fill="#ffffff"></rect></mask><linearGradient x1="15.28%" y1="-39.29%" x2="84.72%" y2="139.29%" gradientUnits="userSpaceOnUse" id="SvgjsLinearGradient1103"><stop stop-color="#0e2a47" offset="0"></stop><stop stop-color="rgba(27, 114, 186, 0)" offset="1"></stop></linearGradient><radialGradient id="SvgjsRadialGradient1104"><stop stop-color="#ffffff" offset="0.1"></stop><stop stop-color="rgba(255, 255, 255, 0.09)" offset="0.2"></stop><stop stop-color="rgba(255, 255, 255, 0)" offset="1"></stop></radialGradient></defs></svg>