<svg xmlns="http://www.w3.org/2000/svg" version="1.1" xmlns:xlink="http://www.w3.org/1999/xlink" xmlns:svgjs="http://svgjs.dev/svgjs" width="1440" height="560" preserveAspectRatio="none" viewBox="0 0 1440 560"><g mask="url(&quot;#SvgjsMask2349&quot;)" fill="none"><rect width="1440" height="560" x="0" y="0" fill="url(&quot;#SvgjsLinearGradient2350&quot;)"></rect><path d="M-41.55 389.11L-41.55 389.11" stroke="rgba(234, 234, 234, 0.28)" stroke-width="1.5"></path><path d="M-41.55 389.11L109.74 341.44" stroke="rgba(234, 234, 234, 0.28)" stroke-width="1.5"></path><path d="M-41.55 389.11L-49.39 549.88" stroke="rgba(234, 234, 234, 0.28)" stroke-width="1.5"></path><path d="M-41.55 389.11L90.42 531.29" stroke="rgba(234, 234, 234, 0.28)" stroke-width="1.5"></path><path d="M-49.39 549.88L-49.39 549.88" stroke="rgba(234, 234, 234, 0.28)" stroke-width="1.5"></path><path d="M-49.39 549.88L90.42 531.29" stroke="rgba(234, 234, 234, 0.28)" stroke-width="1.5"></path><path d="M-60.15 696.12L-60.15 696.12" stroke="rgba(234, 234, 234, 0.28)" stroke-width="1.5"></path><path d="M-60.15 696.12L-49.39 549.88" stroke="rgba(234, 234, 234, 0.28)" stroke-width="1.5"></path><path d="M-60.15 696.12L94.81 699.73" stroke="rgba(234, 234, 234, 0.28)" stroke-width="1.5"></path><path d="M-60.15 696.12L90.42 531.29" stroke="rgba(234, 234, 234, 0.28)" stroke-width="1.5"></path><path d="M-60.15 696.12L209.85 677.69" stroke="rgba(234, 234, 234, 0.28)" stroke-width="1.5"></path><path d="M-60.15 696.12L-41.55 389.11" stroke="rgba(234, 234, 234, 0.28)" stroke-width="1.5"></path><path d="M-60.15 696.12L197.23 512.15" stroke="rgba(234, 234, 234, 0.28)" stroke-width="1.5"></path><path d="M109.74 341.44L109.74 341.44" stroke="rgba(234, 234, 234, 0.28)" stroke-width="1.5"></path><path d="M109.74 341.44L261.47 341.37" stroke="rgba(234, 234, 234, 0.28)" stroke-width="1.5"></path><path d="M90.42 531.29L90.42 531.29" stroke="rgba(234, 234, 234, 0.28)" stroke-width="1.5"></path><path d="M90.42 531.29L197.23 512.15" stroke="rgba(234, 234, 234, 0.28)" stroke-width="1.5"></path><path d="M90.42 531.29L94.81 699.73" stroke="rgba(234, 234, 234, 0.28)" stroke-width="1.5"></path><path d="M90.42 531.29L209.85 677.69" stroke="rgba(234, 234, 234, 0.28)" stroke-width="1.5"></path><path d="M94.81 699.73L94.81 699.73" stroke="rgba(234, 234, 234, 0.28)" stroke-width="1.5"></path><path d="M94.81 699.73L209.85 677.69" stroke="rgba(234, 234, 234, 0.28)" stroke-width="1.5"></path><path d="M94.81 699.73L-49.39 549.88" stroke="rgba(234, 234, 234, 0.28)" stroke-width="1.5"></path><path d="M261.47 341.37L261.47 341.37" stroke="rgba(234, 234, 234, 0.28)" stroke-width="1.5"></path><path d="M261.47 341.37L381.99 402.37" stroke="rgba(234, 234, 234, 0.28)" stroke-width="1.5"></path><path d="M261.47 341.37L197.23 512.15" stroke="rgba(234, 234, 234, 0.28)" stroke-width="1.5"></path><path d="M197.23 512.15L197.23 512.15" stroke="rgba(234, 234, 234, 0.28)" stroke-width="1.5"></path><path d="M209.85 677.69L209.85 677.69" stroke="rgba(234, 234, 234, 0.28)" stroke-width="1.5"></path><path d="M209.85 677.69L197.23 512.15" stroke="rgba(234, 234, 234, 0.28)" stroke-width="1.5"></path><path d="M381.99 402.37L381.99 402.37" stroke="rgba(234, 234, 234, 0.28)" stroke-width="1.5"></path><path d="M381.99 402.37L341.32 520.81" stroke="rgba(234, 234, 234, 0.28)" stroke-width="1.5"></path><path d="M381.99 402.37L530.48 531.05" stroke="rgba(234, 234, 234, 0.28)" stroke-width="1.5"></path><path d="M341.32 520.81L341.32 520.81" stroke="rgba(234, 234, 234, 0.28)" stroke-width="1.5"></path><path d="M341.32 520.81L197.23 512.15" stroke="rgba(234, 234, 234, 0.28)" stroke-width="1.5"></path><path d="M530.48 531.05L530.48 531.05" stroke="rgba(234, 234, 234, 0.28)" stroke-width="1.5"></path><path d="M530.48 531.05L487.7 653.47" stroke="rgba(234, 234, 234, 0.28)" stroke-width="1.5"></path><path d="M530.48 531.05L699.43 500.24" stroke="rgba(234, 234, 234, 0.28)" stroke-width="1.5"></path><path d="M530.48 531.05L640.52 395.45" stroke="rgba(234, 234, 234, 0.28)" stroke-width="1.5"></path><path d="M487.7 653.47L487.7 653.47" stroke="rgba(234, 234, 234, 0.28)" stroke-width="1.5"></path><path d="M487.7 653.47L341.32 520.81" stroke="rgba(234, 234, 234, 0.28)" stroke-width="1.5"></path><path d="M674.16 257.2L674.16 257.2" stroke="rgba(234, 234, 234, 0.28)" stroke-width="1.5"></path><path d="M674.16 257.2L640.52 395.45" stroke="rgba(234, 234, 234, 0.28)" stroke-width="1.5"></path><path d="M674.16 257.2L853.58 260.93" stroke="rgba(234, 234, 234, 0.28)" stroke-width="1.5"></path><path d="M674.16 257.2L699.43 500.24" stroke="rgba(234, 234, 234, 0.28)" stroke-width="1.5"></path><path d="M674.16 257.2L530.48 531.05" stroke="rgba(234, 234, 234, 0.28)" stroke-width="1.5"></path><path d="M674.16 257.2L993.12 224.43" stroke="rgba(234, 234, 234, 0.28)" stroke-width="1.5"></path><path d="M674.16 257.2L842.26 531.3" stroke="rgba(234, 234, 234, 0.28)" stroke-width="1.5"></path><path d="M640.52 395.45L640.52 395.45" stroke="rgba(234, 234, 234, 0.28)" stroke-width="1.5"></path><path d="M640.52 395.45L699.43 500.24" stroke="rgba(234, 234, 234, 0.28)" stroke-width="1.5"></path><path d="M640.52 395.45L842.26 531.3" stroke="rgba(234, 234, 234, 0.28)" stroke-width="1.5"></path><path d="M640.52 395.45L853.58 260.93" stroke="rgba(234, 234, 234, 0.28)" stroke-width="1.5"></path><path d="M699.43 500.24L699.43 500.24" stroke="rgba(234, 234, 234, 0.28)" stroke-width="1.5"></path><path d="M699.43 500.24L842.26 531.3" stroke="rgba(234, 234, 234, 0.28)" stroke-width="1.5"></path><path d="M699.43 500.24L706.25 660.79" stroke="rgba(234, 234, 234, 0.28)" stroke-width="1.5"></path><path d="M706.25 660.79L706.25 660.79" stroke="rgba(234, 234, 234, 0.28)" stroke-width="1.5"></path><path d="M706.25 660.79L821.42 670.41" stroke="rgba(234, 234, 234, 0.28)" stroke-width="1.5"></path><path d="M706.25 660.79L842.26 531.3" stroke="rgba(234, 234, 234, 0.28)" stroke-width="1.5"></path><path d="M706.25 660.79L530.48 531.05" stroke="rgba(234, 234, 234, 0.28)" stroke-width="1.5"></path><path d="M706.25 660.79L487.7 653.47" stroke="rgba(234, 234, 234, 0.28)" stroke-width="1.5"></path><path d="M706.25 660.79L640.52 395.45" stroke="rgba(234, 234, 234, 0.28)" stroke-width="1.5"></path><path d="M853.58 260.93L853.58 260.93" stroke="rgba(234, 234, 234, 0.28)" stroke-width="1.5"></path><path d="M853.58 260.93L993.12 224.43" stroke="rgba(234, 234, 234, 0.28)" stroke-width="1.5"></path><path d="M853.58 260.93L991.14 411.26" stroke="rgba(234, 234, 234, 0.28)" stroke-width="1.5"></path><path d="M842.26 531.3L842.26 531.3" stroke="rgba(234, 234, 234, 0.28)" stroke-width="1.5"></path><path d="M842.26 531.3L821.42 670.41" stroke="rgba(234, 234, 234, 0.28)" stroke-width="1.5"></path><path d="M821.42 670.41L821.42 670.41" stroke="rgba(234, 234, 234, 0.28)" stroke-width="1.5"></path><path d="M821.42 670.41L699.43 500.24" stroke="rgba(234, 234, 234, 0.28)" stroke-width="1.5"></path><path d="M821.42 670.41L998.05 512.24" stroke="rgba(234, 234, 234, 0.28)" stroke-width="1.5"></path><path d="M947.68 -63.23L947.68 -63.23" stroke="rgba(234, 234, 234, 0.28)" stroke-width="1.5"></path><path d="M947.68 -63.23L999.73 49.52" stroke="rgba(234, 234, 234, 0.28)" stroke-width="1.5"></path><path d="M947.68 -63.23L1104.42 45.94" stroke="rgba(234, 234, 234, 0.28)" stroke-width="1.5"></path><path d="M947.68 -63.23L1161.36 -43.36" stroke="rgba(234, 234, 234, 0.28)" stroke-width="1.5"></path><path d="M947.68 -63.23L993.12 224.43" stroke="rgba(234, 234, 234, 0.28)" stroke-width="1.5"></path><path d="M947.68 -63.23L1238.72 67.52" stroke="rgba(234, 234, 234, 0.28)" stroke-width="1.5"></path><path d="M947.68 -63.23L853.58 260.93" stroke="rgba(234, 234, 234, 0.28)" stroke-width="1.5"></path><path d="M999.73 49.52L999.73 49.52" stroke="rgba(234, 234, 234, 0.28)" stroke-width="1.5"></path><path d="M999.73 49.52L1104.42 45.94" stroke="rgba(234, 234, 234, 0.28)" stroke-width="1.5"></path><path d="M999.73 49.52L993.12 224.43" stroke="rgba(234, 234, 234, 0.28)" stroke-width="1.5"></path><path d="M999.73 49.52L1161.36 -43.36" stroke="rgba(234, 234, 234, 0.28)" stroke-width="1.5"></path><path d="M999.73 49.52L1161.81 217.81" stroke="rgba(234, 234, 234, 0.28)" stroke-width="1.5"></path><path d="M993.12 224.43L993.12 224.43" stroke="rgba(234, 234, 234, 0.28)" stroke-width="1.5"></path><path d="M993.12 224.43L1161.81 217.81" stroke="rgba(234, 234, 234, 0.28)" stroke-width="1.5"></path><path d="M993.12 224.43L991.14 411.26" stroke="rgba(234, 234, 234, 0.28)" stroke-width="1.5"></path><path d="M993.12 224.43L1106.47 373.36" stroke="rgba(234, 234, 234, 0.28)" stroke-width="1.5"></path><path d="M991.14 411.26L991.14 411.26" stroke="rgba(234, 234, 234, 0.28)" stroke-width="1.5"></path><path d="M991.14 411.26L998.05 512.24" stroke="rgba(234, 234, 234, 0.28)" stroke-width="1.5"></path><path d="M991.14 411.26L1106.47 373.36" stroke="rgba(234, 234, 234, 0.28)" stroke-width="1.5"></path><path d="M991.14 411.26L1108.43 503.47" stroke="rgba(234, 234, 234, 0.28)" stroke-width="1.5"></path><path d="M998.05 512.24L998.05 512.24" stroke="rgba(234, 234, 234, 0.28)" stroke-width="1.5"></path><path d="M998.05 512.24L1108.43 503.47" stroke="rgba(234, 234, 234, 0.28)" stroke-width="1.5"></path><path d="M998.05 512.24L842.26 531.3" stroke="rgba(234, 234, 234, 0.28)" stroke-width="1.5"></path><path d="M998.05 512.24L1106.47 373.36" stroke="rgba(234, 234, 234, 0.28)" stroke-width="1.5"></path><path d="M998.05 512.24L1139.99 637.81" stroke="rgba(234, 234, 234, 0.28)" stroke-width="1.5"></path><path d="M1161.36 -43.36L1161.36 -43.36" stroke="rgba(234, 234, 234, 0.28)" stroke-width="1.5"></path><path d="M1161.36 -43.36L1104.42 45.94" stroke="rgba(234, 234, 234, 0.28)" stroke-width="1.5"></path><path d="M1161.36 -43.36L1238.72 67.52" stroke="rgba(234, 234, 234, 0.28)" stroke-width="1.5"></path><path d="M1104.42 45.94L1104.42 45.94" stroke="rgba(234, 234, 234, 0.28)" stroke-width="1.5"></path><path d="M1161.81 217.81L1161.81 217.81" stroke="rgba(234, 234, 234, 0.28)" stroke-width="1.5"></path><path d="M1161.81 217.81L1244.14 246.36" stroke="rgba(234, 234, 234, 0.28)" stroke-width="1.5"></path><path d="M1161.81 217.81L1106.47 373.36" stroke="rgba(234, 234, 234, 0.28)" stroke-width="1.5"></path><path d="M1106.47 373.36L1106.47 373.36" stroke="rgba(234, 234, 234, 0.28)" stroke-width="1.5"></path><path d="M1106.47 373.36L1108.43 503.47" stroke="rgba(234, 234, 234, 0.28)" stroke-width="1.5"></path><path d="M1108.43 503.47L1108.43 503.47" stroke="rgba(234, 234, 234, 0.28)" stroke-width="1.5"></path><path d="M1139.99 637.81L1139.99 637.81" stroke="rgba(234, 234, 234, 0.28)" stroke-width="1.5"></path><path d="M1139.99 637.81L1108.43 503.47" stroke="rgba(234, 234, 234, 0.28)" stroke-width="1.5"></path><path d="M1139.99 637.81L1280.46 695.16" stroke="rgba(234, 234, 234, 0.28)" stroke-width="1.5"></path><path d="M1238.72 67.52L1238.72 67.52" stroke="rgba(234, 234, 234, 0.28)" stroke-width="1.5"></path><path d="M1238.72 67.52L1104.42 45.94" stroke="rgba(234, 234, 234, 0.28)" stroke-width="1.5"></path><path d="M1238.72 67.52L1161.81 217.81" stroke="rgba(234, 234, 234, 0.28)" stroke-width="1.5"></path><path d="M1244.14 246.36L1244.14 246.36" stroke="rgba(234, 234, 234, 0.28)" stroke-width="1.5"></path><path d="M1244.14 246.36L1260.19 372.02" stroke="rgba(234, 234, 234, 0.28)" stroke-width="1.5"></path><path d="M1244.14 246.36L1238.72 67.52" stroke="rgba(234, 234, 234, 0.28)" stroke-width="1.5"></path><path d="M1244.14 246.36L1106.47 373.36" stroke="rgba(234, 234, 234, 0.28)" stroke-width="1.5"></path><path d="M1244.14 246.36L1450.46 235.18" stroke="rgba(234, 234, 234, 0.28)" stroke-width="1.5"></path><path d="M1244.14 246.36L1413.26 403.08" stroke="rgba(234, 234, 234, 0.28)" stroke-width="1.5"></path><path d="M1260.19 372.02L1260.19 372.02" stroke="rgba(234, 234, 234, 0.28)" stroke-width="1.5"></path><path d="M1260.19 372.02L1106.47 373.36" stroke="rgba(234, 234, 234, 0.28)" stroke-width="1.5"></path><path d="M1260.19 372.02L1413.26 403.08" stroke="rgba(234, 234, 234, 0.28)" stroke-width="1.5"></path><path d="M1295.19 555.5L1295.19 555.5" stroke="rgba(234, 234, 234, 0.28)" stroke-width="1.5"></path><path d="M1295.19 555.5L1413.99 513.53" stroke="rgba(234, 234, 234, 0.28)" stroke-width="1.5"></path><path d="M1295.19 555.5L1280.46 695.16" stroke="rgba(234, 234, 234, 0.28)" stroke-width="1.5"></path><path d="M1295.19 555.5L1139.99 637.81" stroke="rgba(234, 234, 234, 0.28)" stroke-width="1.5"></path><path d="M1295.19 555.5L1260.19 372.02" stroke="rgba(234, 234, 234, 0.28)" stroke-width="1.5"></path><path d="M1295.19 555.5L1413.26 403.08" stroke="rgba(234, 234, 234, 0.28)" stroke-width="1.5"></path><path d="M1280.46 695.16L1280.46 695.16" stroke="rgba(234, 234, 234, 0.28)" stroke-width="1.5"></path><path d="M1280.46 695.16L1455.66 669.58" stroke="rgba(234, 234, 234, 0.28)" stroke-width="1.5"></path><path d="M1280.46 695.16L1413.99 513.53" stroke="rgba(234, 234, 234, 0.28)" stroke-width="1.5"></path><path d="M1280.46 695.16L1108.43 503.47" stroke="rgba(234, 234, 234, 0.28)" stroke-width="1.5"></path><path d="M1452.52 -40.58L1452.52 -40.58" stroke="rgba(234, 234, 234, 0.28)" stroke-width="1.5"></path><path d="M1452.52 -40.58L1443.97 83.21" stroke="rgba(234, 234, 234, 0.28)" stroke-width="1.5"></path><path d="M1452.52 -40.58L1601.57 -67.7" stroke="rgba(234, 234, 234, 0.28)" stroke-width="1.5"></path><path d="M1452.52 -40.58L1561.71 105.2" stroke="rgba(234, 234, 234, 0.28)" stroke-width="1.5"></path><path d="M1452.52 -40.58L1238.72 67.52" stroke="rgba(234, 234, 234, 0.28)" stroke-width="1.5"></path><path d="M1452.52 -40.58L1450.46 235.18" stroke="rgba(234, 234, 234, 0.28)" stroke-width="1.5"></path><path d="M1443.97 83.21L1443.97 83.21" stroke="rgba(234, 234, 234, 0.28)" stroke-width="1.5"></path><path d="M1443.97 83.21L1561.71 105.2" stroke="rgba(234, 234, 234, 0.28)" stroke-width="1.5"></path><path d="M1450.46 235.18L1450.46 235.18" stroke="rgba(234, 234, 234, 0.28)" stroke-width="1.5"></path><path d="M1450.46 235.18L1597.72 210.9" stroke="rgba(234, 234, 234, 0.28)" stroke-width="1.5"></path><path d="M1450.46 235.18L1443.97 83.21" stroke="rgba(234, 234, 234, 0.28)" stroke-width="1.5"></path><path d="M1450.46 235.18L1564.41 339.45" stroke="rgba(234, 234, 234, 0.28)" stroke-width="1.5"></path><path d="M1450.46 235.18L1561.71 105.2" stroke="rgba(234, 234, 234, 0.28)" stroke-width="1.5"></path><path d="M1413.26 403.08L1413.26 403.08" stroke="rgba(234, 234, 234, 0.28)" stroke-width="1.5"></path><path d="M1413.26 403.08L1413.99 513.53" stroke="rgba(234, 234, 234, 0.28)" stroke-width="1.5"></path><path d="M1413.26 403.08L1564.41 339.45" stroke="rgba(234, 234, 234, 0.28)" stroke-width="1.5"></path><path d="M1413.26 403.08L1558.03 494.31" stroke="rgba(234, 234, 234, 0.28)" stroke-width="1.5"></path><path d="M1413.26 403.08L1450.46 235.18" stroke="rgba(234, 234, 234, 0.28)" stroke-width="1.5"></path><path d="M1413.99 513.53L1413.99 513.53" stroke="rgba(234, 234, 234, 0.28)" stroke-width="1.5"></path><path d="M1413.99 513.53L1558.03 494.31" stroke="rgba(234, 234, 234, 0.28)" stroke-width="1.5"></path><path d="M1413.99 513.53L1455.66 669.58" stroke="rgba(234, 234, 234, 0.28)" stroke-width="1.5"></path><path d="M1455.66 669.58L1455.66 669.58" stroke="rgba(234, 234, 234, 0.28)" stroke-width="1.5"></path><path d="M1455.66 669.58L1295.19 555.5" stroke="rgba(234, 234, 234, 0.28)" stroke-width="1.5"></path><path d="M1601.57 -67.7L1601.57 -67.7" stroke="rgba(234, 234, 234, 0.28)" stroke-width="1.5"></path><path d="M1561.71 105.2L1561.71 105.2" stroke="rgba(234, 234, 234, 0.28)" stroke-width="1.5"></path><path d="M1561.71 105.2L1597.72 210.9" stroke="rgba(234, 234, 234, 0.28)" stroke-width="1.5"></path><path d="M1561.71 105.2L1601.57 -67.7" stroke="rgba(234, 234, 234, 0.28)" stroke-width="1.5"></path><path d="M1597.72 210.9L1597.72 210.9" stroke="rgba(234, 234, 234, 0.28)" stroke-width="1.5"></path><path d="M1597.72 210.9L1564.41 339.45" stroke="rgba(234, 234, 234, 0.28)" stroke-width="1.5"></path><path d="M1564.41 339.45L1564.41 339.45" stroke="rgba(234, 234, 234, 0.28)" stroke-width="1.5"></path><path d="M1564.41 339.45L1558.03 494.31" stroke="rgba(234, 234, 234, 0.28)" stroke-width="1.5"></path><path d="M1558.03 494.31L1558.03 494.31" stroke="rgba(234, 234, 234, 0.28)" stroke-width="1.5"></path><path d="M1558.03 494.31L1455.66 669.58" stroke="rgba(234, 234, 234, 0.28)" stroke-width="1.5"></path><path d="M1558.03 494.31L1295.19 555.5" stroke="rgba(234, 234, 234, 0.28)" stroke-width="1.5"></path><circle r="5" cx="-41.55" cy="389.11" fill="rgba(234, 234, 234, 0.28)"></circle><circle r="5" cx="-49.39" cy="549.88" fill="rgba(234, 234, 234, 0.28)"></circle><circle r="5" cx="-60.15" cy="696.12" fill="rgba(234, 234, 234, 0.28)"></circle><circle r="5" cx="109.74" cy="341.44" fill="rgba(234, 234, 234, 0.28)"></circle><circle r="5" cx="90.42" cy="531.29" fill="rgba(234, 234, 234, 0.28)"></circle><circle r="5" cx="94.81" cy="699.73" fill="rgba(234, 234, 234, 0.28)"></circle><circle r="5" cx="261.47" cy="341.37" fill="rgba(234, 234, 234, 0.28)"></circle><circle r="5" cx="197.23" cy="512.15" fill="rgba(234, 234, 234, 0.28)"></circle><circle r="5" cx="209.85" cy="677.69" fill="rgba(234, 234, 234, 0.28)"></circle><circle r="5" cx="381.99" cy="402.37" fill="rgba(234, 234, 234, 0.28)"></circle><circle r="5" cx="341.32" cy="520.81" fill="rgba(234, 234, 234, 0.28)"></circle><circle r="5" cx="530.48" cy="531.05" fill="rgba(234, 234, 234, 0.28)"></circle><circle r="5" cx="487.7" cy="653.47" fill="rgba(234, 234, 234, 0.28)"></circle><circle r="5" cx="674.16" cy="257.2" fill="rgba(234, 234, 234, 0.28)"></circle><circle r="5" cx="640.52" cy="395.45" fill="rgba(234, 234, 234, 0.28)"></circle><circle r="5" cx="699.43" cy="500.24" fill="rgba(234, 234, 234, 0.28)"></circle><circle r="5" cx="706.25" cy="660.79" fill="rgba(234, 234, 234, 0.28)"></circle><circle r="5" cx="853.58" cy="260.93" fill="rgba(234, 234, 234, 0.28)"></circle><circle r="5" cx="842.26" cy="531.3" fill="rgba(234, 234, 234, 0.28)"></circle><circle r="5" cx="821.42" cy="670.41" fill="rgba(234, 234, 234, 0.28)"></circle><circle r="5" cx="947.68" cy="-63.23" fill="rgba(234, 234, 234, 0.28)"></circle><circle r="5" cx="999.73" cy="49.52" fill="rgba(234, 234, 234, 0.28)"></circle><circle r="5" cx="993.12" cy="224.43" fill="rgba(234, 234, 234, 0.28)"></circle><circle r="5" cx="991.14" cy="411.26" fill="rgba(234, 234, 234, 0.28)"></circle><circle r="5" cx="998.05" cy="512.24" fill="rgba(234, 234, 234, 0.28)"></circle><circle r="5" cx="1161.36" cy="-43.36" fill="rgba(234, 234, 234, 0.28)"></circle><circle r="5" cx="1104.42" cy="45.94" fill="rgba(234, 234, 234, 0.28)"></circle><circle r="5" cx="1161.81" cy="217.81" fill="rgba(234, 234, 234, 0.28)"></circle><circle r="5" cx="1106.47" cy="373.36" fill="rgba(234, 234, 234, 0.28)"></circle><circle r="5" cx="1108.43" cy="503.47" fill="rgba(234, 234, 234, 0.28)"></circle><circle r="5" cx="1139.99" cy="637.81" fill="rgba(234, 234, 234, 0.28)"></circle><circle r="5" cx="1238.72" cy="67.52" fill="rgba(234, 234, 234, 0.28)"></circle><circle r="5" cx="1244.14" cy="246.36" fill="rgba(234, 234, 234, 0.28)"></circle><circle r="5" cx="1260.19" cy="372.02" fill="rgba(234, 234, 234, 0.28)"></circle><circle r="5" cx="1295.19" cy="555.5" fill="rgba(234, 234, 234, 0.28)"></circle><circle r="5" cx="1280.46" cy="695.16" fill="rgba(234, 234, 234, 0.28)"></circle><circle r="5" cx="1452.52" cy="-40.58" fill="rgba(234, 234, 234, 0.28)"></circle><circle r="5" cx="1443.97" cy="83.21" fill="rgba(234, 234, 234, 0.28)"></circle><circle r="5" cx="1450.46" cy="235.18" fill="rgba(234, 234, 234, 0.28)"></circle><circle r="5" cx="1413.26" cy="403.08" fill="rgba(234, 234, 234, 0.28)"></circle><circle r="5" cx="1413.99" cy="513.53" fill="rgba(234, 234, 234, 0.28)"></circle><circle r="5" cx="1455.66" cy="669.58" fill="rgba(234, 234, 234, 0.28)"></circle><circle r="5" cx="1601.57" cy="-67.7" fill="rgba(234, 234, 234, 0.28)"></circle><circle r="5" cx="1561.71" cy="105.2" fill="rgba(234, 234, 234, 0.28)"></circle><circle r="5" cx="1597.72" cy="210.9" fill="rgba(234, 234, 234, 0.28)"></circle><circle r="5" cx="1564.41" cy="339.45" fill="rgba(234, 234, 234, 0.28)"></circle><circle r="5" cx="1558.03" cy="494.31" fill="rgba(234, 234, 234, 0.28)"></circle><path d="M258.64 501.33L258.64 501.33" stroke="hsla(0, 0%, 100%, 0.28)" stroke-width="1.5"></path><path d="M258.64 501.33L396.88 512.63" stroke="hsla(0, 0%, 100%, 0.28)" stroke-width="1.5"></path><path d="M258.64 501.33L67.82 491.92" stroke="hsla(0, 0%, 100%, 0.28)" stroke-width="1.5"></path><path d="M258.64 501.33L245.67 702.02" stroke="hsla(0, 0%, 100%, 0.28)" stroke-width="1.5"></path><path d="M258.64 501.33L341.08 692.36" stroke="hsla(0, 0%, 100%, 0.28)" stroke-width="1.5"></path><path d="M258.64 501.33L111.73 685.55" stroke="hsla(0, 0%, 100%, 0.28)" stroke-width="1.5"></path><path d="M258.64 501.33L503.99 685.71" stroke="hsla(0, 0%, 100%, 0.28)" stroke-width="1.5"></path><path d="M678.62 551.96L678.62 551.96" stroke="hsla(0, 0%, 100%, 0.28)" stroke-width="1.5"></path><path d="M678.62 551.96L804.5 409.97" stroke="hsla(0, 0%, 100%, 0.28)" stroke-width="1.5"></path><path d="M678.62 551.96L835.61 678.86" stroke="hsla(0, 0%, 100%, 0.28)" stroke-width="1.5"></path><path d="M678.62 551.96L503.99 685.71" stroke="hsla(0, 0%, 100%, 0.28)" stroke-width="1.5"></path><path d="M959.26 406.82L959.26 406.82" stroke="hsla(0, 0%, 100%, 0.28)" stroke-width="1.5"></path><path d="M959.26 406.82L804.5 409.97" stroke="hsla(0, 0%, 100%, 0.28)" stroke-width="1.5"></path><path d="M959.26 406.82L1113.37 347.13" stroke="hsla(0, 0%, 100%, 0.28)" stroke-width="1.5"></path><path d="M959.26 406.82L1007.16 236.11" stroke="hsla(0, 0%, 100%, 0.28)" stroke-width="1.5"></path><path d="M1087.88 242.05L1087.88 242.05" stroke="hsla(0, 0%, 100%, 0.28)" stroke-width="1.5"></path><path d="M1087.88 242.05L1007.16 236.11" stroke="hsla(0, 0%, 100%, 0.28)" stroke-width="1.5"></path><path d="M1087.88 242.05L1113.37 347.13" stroke="hsla(0, 0%, 100%, 0.28)" stroke-width="1.5"></path><path d="M1087.88 242.05L1239.66 381.1" stroke="hsla(0, 0%, 100%, 0.28)" stroke-width="1.5"></path><path d="M1087.88 242.05L959.26 406.82" stroke="hsla(0, 0%, 100%, 0.28)" stroke-width="1.5"></path><path d="M1410.04 247.9L1410.04 247.9" stroke="hsla(0, 0%, 100%, 0.28)" stroke-width="1.5"></path><path d="M1410.04 247.9L1302.57 199.23" stroke="hsla(0, 0%, 100%, 0.28)" stroke-width="1.5"></path><path d="M1410.04 247.9L1432 379.88" stroke="hsla(0, 0%, 100%, 0.28)" stroke-width="1.5"></path><path d="M1410.04 247.9L1426.29 79.06" stroke="hsla(0, 0%, 100%, 0.28)" stroke-width="1.5"></path><path d="M1410.04 247.9L1310.67 109.69" stroke="hsla(0, 0%, 100%, 0.28)" stroke-width="1.5"></path><path d="M1410.04 247.9L1556.49 399.9" stroke="hsla(0, 0%, 100%, 0.28)" stroke-width="1.5"></path><path d="M1410.04 247.9L1239.66 381.1" stroke="hsla(0, 0%, 100%, 0.28)" stroke-width="1.5"></path><path d="M1555.18 82.52L1555.18 82.52" stroke="hsla(0, 0%, 100%, 0.28)" stroke-width="1.5"></path><path d="M1555.18 82.52L1426.29 79.06" stroke="hsla(0, 0%, 100%, 0.28)" stroke-width="1.5"></path><path d="M1555.18 82.52L1570.04 -80.14" stroke="hsla(0, 0%, 100%, 0.28)" stroke-width="1.5"></path><path d="M1555.18 82.52L1407.1 -78.14" stroke="hsla(0, 0%, 100%, 0.28)" stroke-width="1.5"></path><path d="M1555.18 82.52L1410.04 247.9" stroke="hsla(0, 0%, 100%, 0.28)" stroke-width="1.5"></path><path d="M1555.18 82.52L1310.67 109.69" stroke="hsla(0, 0%, 100%, 0.28)" stroke-width="1.5"></path><path d="M-100.64 499.09L-100.64 499.09" stroke="hsla(0, 0%, 100%, 0.28)" stroke-width="1.5"></path><path d="M-100.64 499.09L67.82 491.92" stroke="hsla(0, 0%, 100%, 0.28)" stroke-width="1.5"></path><path d="M-100.64 499.09L-86.93 670.3" stroke="hsla(0, 0%, 100%, 0.28)" stroke-width="1.5"></path><path d="M-100.64 499.09L111.73 685.55" stroke="hsla(0, 0%, 100%, 0.28)" stroke-width="1.5"></path><path d="M-86.93 670.3L-86.93 670.3" stroke="hsla(0, 0%, 100%, 0.28)" stroke-width="1.5"></path><path d="M-86.93 670.3L111.73 685.55" stroke="hsla(0, 0%, 100%, 0.28)" stroke-width="1.5"></path><path d="M-86.93 670.3L67.82 491.92" stroke="hsla(0, 0%, 100%, 0.28)" stroke-width="1.5"></path><path d="M67.82 491.92L67.82 491.92" stroke="hsla(0, 0%, 100%, 0.28)" stroke-width="1.5"></path><path d="M111.73 685.55L111.73 685.55" stroke="hsla(0, 0%, 100%, 0.28)" stroke-width="1.5"></path><path d="M111.73 685.55L245.67 702.02" stroke="hsla(0, 0%, 100%, 0.28)" stroke-width="1.5"></path><path d="M111.73 685.55L67.82 491.92" stroke="hsla(0, 0%, 100%, 0.28)" stroke-width="1.5"></path><path d="M111.73 685.55L341.08 692.36" stroke="hsla(0, 0%, 100%, 0.28)" stroke-width="1.5"></path><path d="M245.67 702.02L245.67 702.02" stroke="hsla(0, 0%, 100%, 0.28)" stroke-width="1.5"></path><path d="M245.67 702.02L341.08 692.36" stroke="hsla(0, 0%, 100%, 0.28)" stroke-width="1.5"></path><path d="M245.67 702.02L396.88 512.63" stroke="hsla(0, 0%, 100%, 0.28)" stroke-width="1.5"></path><path d="M245.67 702.02L503.99 685.71" stroke="hsla(0, 0%, 100%, 0.28)" stroke-width="1.5"></path><path d="M245.67 702.02L67.82 491.92" stroke="hsla(0, 0%, 100%, 0.28)" stroke-width="1.5"></path><path d="M396.88 512.63L396.88 512.63" stroke="hsla(0, 0%, 100%, 0.28)" stroke-width="1.5"></path><path d="M396.88 512.63L341.08 692.36" stroke="hsla(0, 0%, 100%, 0.28)" stroke-width="1.5"></path><path d="M396.88 512.63L503.99 685.71" stroke="hsla(0, 0%, 100%, 0.28)" stroke-width="1.5"></path><path d="M396.88 512.63L678.62 551.96" stroke="hsla(0, 0%, 100%, 0.28)" stroke-width="1.5"></path><path d="M341.08 692.36L341.08 692.36" stroke="hsla(0, 0%, 100%, 0.28)" stroke-width="1.5"></path><path d="M341.08 692.36L503.99 685.71" stroke="hsla(0, 0%, 100%, 0.28)" stroke-width="1.5"></path><path d="M503.99 685.71L503.99 685.71" stroke="hsla(0, 0%, 100%, 0.28)" stroke-width="1.5"></path><path d="M804.5 409.97L804.5 409.97" stroke="hsla(0, 0%, 100%, 0.28)" stroke-width="1.5"></path><path d="M804.5 409.97L1007.16 236.11" stroke="hsla(0, 0%, 100%, 0.28)" stroke-width="1.5"></path><path d="M804.5 409.97L835.61 678.86" stroke="hsla(0, 0%, 100%, 0.28)" stroke-width="1.5"></path><path d="M804.5 409.97L989.84 654.65" stroke="hsla(0, 0%, 100%, 0.28)" stroke-width="1.5"></path><path d="M835.61 678.86L835.61 678.86" stroke="hsla(0, 0%, 100%, 0.28)" stroke-width="1.5"></path><path d="M835.61 678.86L989.84 654.65" stroke="hsla(0, 0%, 100%, 0.28)" stroke-width="1.5"></path><path d="M835.61 678.86L1112.84 638.44" stroke="hsla(0, 0%, 100%, 0.28)" stroke-width="1.5"></path><path d="M835.61 678.86L959.26 406.82" stroke="hsla(0, 0%, 100%, 0.28)" stroke-width="1.5"></path><path d="M1007.16 236.11L1007.16 236.11" stroke="hsla(0, 0%, 100%, 0.28)" stroke-width="1.5"></path><path d="M989.84 654.65L989.84 654.65" stroke="hsla(0, 0%, 100%, 0.28)" stroke-width="1.5"></path><path d="M989.84 654.65L1112.84 638.44" stroke="hsla(0, 0%, 100%, 0.28)" stroke-width="1.5"></path><path d="M989.84 654.65L959.26 406.82" stroke="hsla(0, 0%, 100%, 0.28)" stroke-width="1.5"></path><path d="M989.84 654.65L1288.99 672.69" stroke="hsla(0, 0%, 100%, 0.28)" stroke-width="1.5"></path><path d="M989.84 654.65L1289.18 559.35" stroke="hsla(0, 0%, 100%, 0.28)" stroke-width="1.5"></path><path d="M1113.37 347.13L1113.37 347.13" stroke="hsla(0, 0%, 100%, 0.28)" stroke-width="1.5"></path><path d="M1113.37 347.13L1239.66 381.1" stroke="hsla(0, 0%, 100%, 0.28)" stroke-width="1.5"></path><path d="M1113.37 347.13L1007.16 236.11" stroke="hsla(0, 0%, 100%, 0.28)" stroke-width="1.5"></path><path d="M1113.37 347.13L1302.57 199.23" stroke="hsla(0, 0%, 100%, 0.28)" stroke-width="1.5"></path><path d="M1112.84 638.44L1112.84 638.44" stroke="hsla(0, 0%, 100%, 0.28)" stroke-width="1.5"></path><path d="M1112.84 638.44L1288.99 672.69" stroke="hsla(0, 0%, 100%, 0.28)" stroke-width="1.5"></path><path d="M1112.84 638.44L1289.18 559.35" stroke="hsla(0, 0%, 100%, 0.28)" stroke-width="1.5"></path><path d="M1307.71 -71.68L1307.71 -71.68" stroke="hsla(0, 0%, 100%, 0.28)" stroke-width="1.5"></path><path d="M1307.71 -71.68L1407.1 -78.14" stroke="hsla(0, 0%, 100%, 0.28)" stroke-width="1.5"></path><path d="M1307.71 -71.68L1310.67 109.69" stroke="hsla(0, 0%, 100%, 0.28)" stroke-width="1.5"></path><path d="M1310.67 109.69L1310.67 109.69" stroke="hsla(0, 0%, 100%, 0.28)" stroke-width="1.5"></path><path d="M1310.67 109.69L1302.57 199.23" stroke="hsla(0, 0%, 100%, 0.28)" stroke-width="1.5"></path><path d="M1310.67 109.69L1426.29 79.06" stroke="hsla(0, 0%, 100%, 0.28)" stroke-width="1.5"></path><path d="M1310.67 109.69L1407.1 -78.14" stroke="hsla(0, 0%, 100%, 0.28)" stroke-width="1.5"></path><path d="M1302.57 199.23L1302.57 199.23" stroke="hsla(0, 0%, 100%, 0.28)" stroke-width="1.5"></path><path d="M1239.66 381.1L1239.66 381.1" stroke="hsla(0, 0%, 100%, 0.28)" stroke-width="1.5"></path><path d="M1239.66 381.1L1289.18 559.35" stroke="hsla(0, 0%, 100%, 0.28)" stroke-width="1.5"></path><path d="M1239.66 381.1L1432 379.88" stroke="hsla(0, 0%, 100%, 0.28)" stroke-width="1.5"></path><path d="M1239.66 381.1L1302.57 199.23" stroke="hsla(0, 0%, 100%, 0.28)" stroke-width="1.5"></path><path d="M1289.18 559.35L1289.18 559.35" stroke="hsla(0, 0%, 100%, 0.28)" stroke-width="1.5"></path><path d="M1289.18 559.35L1288.99 672.69" stroke="hsla(0, 0%, 100%, 0.28)" stroke-width="1.5"></path><path d="M1288.99 672.69L1288.99 672.69" stroke="hsla(0, 0%, 100%, 0.28)" stroke-width="1.5"></path><path d="M1288.99 672.69L1419.5 517.4" stroke="hsla(0, 0%, 100%, 0.28)" stroke-width="1.5"></path><path d="M1407.1 -78.14L1407.1 -78.14" stroke="hsla(0, 0%, 100%, 0.28)" stroke-width="1.5"></path><path d="M1407.1 -78.14L1426.29 79.06" stroke="hsla(0, 0%, 100%, 0.28)" stroke-width="1.5"></path><path d="M1407.1 -78.14L1570.04 -80.14" stroke="hsla(0, 0%, 100%, 0.28)" stroke-width="1.5"></path><path d="M1407.1 -78.14L1302.57 199.23" stroke="hsla(0, 0%, 100%, 0.28)" stroke-width="1.5"></path><path d="M1426.29 79.06L1426.29 79.06" stroke="hsla(0, 0%, 100%, 0.28)" stroke-width="1.5"></path><path d="M1426.29 79.06L1302.57 199.23" stroke="hsla(0, 0%, 100%, 0.28)" stroke-width="1.5"></path><path d="M1432 379.88L1432 379.88" stroke="hsla(0, 0%, 100%, 0.28)" stroke-width="1.5"></path><path d="M1432 379.88L1556.49 399.9" stroke="hsla(0, 0%, 100%, 0.28)" stroke-width="1.5"></path><path d="M1432 379.88L1419.5 517.4" stroke="hsla(0, 0%, 100%, 0.28)" stroke-width="1.5"></path><path d="M1432 379.88L1563.87 548.46" stroke="hsla(0, 0%, 100%, 0.28)" stroke-width="1.5"></path><path d="M1419.5 517.4L1419.5 517.4" stroke="hsla(0, 0%, 100%, 0.28)" stroke-width="1.5"></path><path d="M1419.5 517.4L1289.18 559.35" stroke="hsla(0, 0%, 100%, 0.28)" stroke-width="1.5"></path><path d="M1419.5 517.4L1563.87 548.46" stroke="hsla(0, 0%, 100%, 0.28)" stroke-width="1.5"></path><path d="M1419.5 517.4L1556.49 399.9" stroke="hsla(0, 0%, 100%, 0.28)" stroke-width="1.5"></path><path d="M1419.5 517.4L1583.44 644.52" stroke="hsla(0, 0%, 100%, 0.28)" stroke-width="1.5"></path><path d="M1570.04 -80.14L1570.04 -80.14" stroke="hsla(0, 0%, 100%, 0.28)" stroke-width="1.5"></path><path d="M1556.49 399.9L1556.49 399.9" stroke="hsla(0, 0%, 100%, 0.28)" stroke-width="1.5"></path><path d="M1556.49 399.9L1563.87 548.46" stroke="hsla(0, 0%, 100%, 0.28)" stroke-width="1.5"></path><path d="M1563.87 548.46L1563.87 548.46" stroke="hsla(0, 0%, 100%, 0.28)" stroke-width="1.5"></path><path d="M1563.87 548.46L1583.44 644.52" stroke="hsla(0, 0%, 100%, 0.28)" stroke-width="1.5"></path><path d="M1563.87 548.46L1289.18 559.35" stroke="hsla(0, 0%, 100%, 0.28)" stroke-width="1.5"></path><path d="M1583.44 644.52L1583.44 644.52" stroke="hsla(0, 0%, 100%, 0.28)" stroke-width="1.5"></path><path d="M1583.44 644.52L1556.49 399.9" stroke="hsla(0, 0%, 100%, 0.28)" stroke-width="1.5"></path><path d="M1583.44 644.52L1288.99 672.69" stroke="hsla(0, 0%, 100%, 0.28)" stroke-width="1.5"></path><path d="M1583.44 644.52L1432 379.88" stroke="hsla(0, 0%, 100%, 0.28)" stroke-width="1.5"></path><path d="M1583.44 644.52L1289.18 559.35" stroke="hsla(0, 0%, 100%, 0.28)" stroke-width="1.5"></path><circle r="25" cx="258.64" cy="501.33" fill="url(&quot;#SvgjsRadialGradient2351&quot;)"></circle><circle r="25" cx="678.62" cy="551.96" fill="url(&quot;#SvgjsRadialGradient2351&quot;)"></circle><circle r="25" cx="959.26" cy="406.82" fill="url(&quot;#SvgjsRadialGradient2351&quot;)"></circle><circle r="25" cx="1087.88" cy="242.05" fill="url(&quot;#SvgjsRadialGradient2351&quot;)"></circle><circle r="25" cx="1410.04" cy="247.9" fill="url(&quot;#SvgjsRadialGradient2351&quot;)"></circle><circle r="25" cx="1555.18" cy="82.52" fill="url(&quot;#SvgjsRadialGradient2351&quot;)"></circle><circle r="5" cx="-100.64" cy="499.09" fill="rgba(252, 252, 252, 0.64)"></circle><circle r="5" cx="-86.93" cy="670.3" fill="rgba(252, 252, 252, 0.64)"></circle><circle r="5" cx="67.82" cy="491.92" fill="rgba(252, 252, 252, 0.64)"></circle><circle r="5" cx="111.73" cy="685.55" fill="rgba(252, 252, 252, 0.64)"></circle><circle r="5" cx="245.67" cy="702.02" fill="rgba(252, 252, 252, 0.64)"></circle><circle r="5" cx="396.88" cy="512.63" fill="rgba(252, 252, 252, 0.64)"></circle><circle r="5" cx="341.08" cy="692.36" fill="rgba(252, 252, 252, 0.64)"></circle><circle r="5" cx="503.99" cy="685.71" fill="rgba(252, 252, 252, 0.64)"></circle><circle r="5" cx="804.5" cy="409.97" fill="rgba(252, 252, 252, 0.64)"></circle><circle r="5" cx="835.61" cy="678.86" fill="rgba(252, 252, 252, 0.64)"></circle><circle r="5" cx="1007.16" cy="236.11" fill="rgba(252, 252, 252, 0.64)"></circle><circle r="5" cx="989.84" cy="654.65" fill="rgba(252, 252, 252, 0.64)"></circle><circle r="5" cx="1113.37" cy="347.13" fill="rgba(252, 252, 252, 0.64)"></circle><circle r="5" cx="1112.84" cy="638.44" fill="rgba(252, 252, 252, 0.64)"></circle><circle r="5" cx="1307.71" cy="-71.68" fill="rgba(252, 252, 252, 0.64)"></circle><circle r="5" cx="1310.67" cy="109.69" fill="rgba(252, 252, 252, 0.64)"></circle><circle r="5" cx="1302.57" cy="199.23" fill="rgba(252, 252, 252, 0.64)"></circle><circle r="5" cx="1239.66" cy="381.1" fill="rgba(252, 252, 252, 0.64)"></circle><circle r="5" cx="1289.18" cy="559.35" fill="rgba(252, 252, 252, 0.64)"></circle><circle r="5" cx="1288.99" cy="672.69" fill="rgba(252, 252, 252, 0.64)"></circle><circle r="5" cx="1407.1" cy="-78.14" fill="rgba(252, 252, 252, 0.64)"></circle><circle r="5" cx="1426.29" cy="79.06" fill="rgba(252, 252, 252, 0.64)"></circle><circle r="5" cx="1432" cy="379.88" fill="rgba(252, 252, 252, 0.64)"></circle><circle r="5" cx="1419.5" cy="517.4" fill="rgba(252, 252, 252, 0.64)"></circle><circle r="5" cx="1570.04" cy="-80.14" fill="rgba(252, 252, 252, 0.64)"></circle><circle r="5" cx="1556.49" cy="399.9" fill="rgba(252, 252, 252, 0.64)"></circle><circle r="5" cx="1563.87" cy="548.46" fill="rgba(252, 252, 252, 0.64)"></circle><circle r="5" cx="1583.44" cy="644.52" fill="rgba(252, 252, 252, 0.64)"></circle></g><defs><mask id="SvgjsMask2349"><rect width="1440" height="560" fill="#ffffff"></rect></mask><linearGradient x1="15.28%" y1="-39.29%" x2="84.72%" y2="139.29%" gradientUnits="userSpaceOnUse" id="SvgjsLinearGradient2350"><stop stop-color="#0e2a47" offset="0"></stop><stop stop-color="rgba(27, 114, 186, 0)" offset="1"></stop></linearGradient><radialGradient id="SvgjsRadialGradient2351"><stop stop-color="#ffffff" offset="0.1"></stop><stop stop-color="rgba(234, 234, 234, 0.28)" offset="0.2"></stop><stop stop-color="rgba(234, 234, 234, 0)" offset="1"></stop></radialGradient></defs></svg>