<svg xmlns="http://www.w3.org/2000/svg" version="1.1" xmlns:xlink="http://www.w3.org/1999/xlink" xmlns:svgjs="http://svgjs.dev/svgjs" width="1440" height="560" preserveAspectRatio="none" viewBox="0 0 1440 560"><g mask="url(&quot;#SvgjsMask1008&quot;)" fill="none"><rect width="1440" height="560" x="0" y="0" fill="rgba(237, 237, 237, 1)"></rect><path d="M-64.87 345.83L-64.87 345.83" stroke="rgba(181, 181, 181, 1)" stroke-width="1.5"></path><path d="M-64.87 345.83L54.2 358.82" stroke="rgba(181, 181, 181, 1)" stroke-width="1.5"></path><path d="M-64.87 345.83L-83.25 528.37" stroke="rgba(181, 181, 181, 1)" stroke-width="1.5"></path><path d="M-64.87 345.83L63.03 556.91" stroke="rgba(181, 181, 181, 1)" stroke-width="1.5"></path><path d="M-64.87 345.83L229.54 382.67" stroke="rgba(181, 181, 181, 1)" stroke-width="1.5"></path><path d="M-64.87 345.83L54.94 641.87" stroke="rgba(181, 181, 181, 1)" stroke-width="1.5"></path><path d="M-64.87 345.83L-65.41 679.78" stroke="rgba(181, 181, 181, 1)" stroke-width="1.5"></path><path d="M-83.25 528.37L-83.25 528.37" stroke="rgba(181, 181, 181, 1)" stroke-width="1.5"></path><path d="M-83.25 528.37L63.03 556.91" stroke="rgba(181, 181, 181, 1)" stroke-width="1.5"></path><path d="M-83.25 528.37L-65.41 679.78" stroke="rgba(181, 181, 181, 1)" stroke-width="1.5"></path><path d="M-65.41 679.78L-65.41 679.78" stroke="rgba(181, 181, 181, 1)" stroke-width="1.5"></path><path d="M-65.41 679.78L54.94 641.87" stroke="rgba(181, 181, 181, 1)" stroke-width="1.5"></path><path d="M-65.41 679.78L63.03 556.91" stroke="rgba(181, 181, 181, 1)" stroke-width="1.5"></path><path d="M-65.41 679.78L210.12 693.62" stroke="rgba(181, 181, 181, 1)" stroke-width="1.5"></path><path d="M-65.41 679.78L232.29 531.19" stroke="rgba(181, 181, 181, 1)" stroke-width="1.5"></path><path d="M54.2 358.82L54.2 358.82" stroke="rgba(181, 181, 181, 1)" stroke-width="1.5"></path><path d="M54.2 358.82L229.54 382.67" stroke="rgba(181, 181, 181, 1)" stroke-width="1.5"></path><path d="M54.2 358.82L63.03 556.91" stroke="rgba(181, 181, 181, 1)" stroke-width="1.5"></path><path d="M63.03 556.91L63.03 556.91" stroke="rgba(181, 181, 181, 1)" stroke-width="1.5"></path><path d="M63.03 556.91L54.94 641.87" stroke="rgba(181, 181, 181, 1)" stroke-width="1.5"></path><path d="M63.03 556.91L232.29 531.19" stroke="rgba(181, 181, 181, 1)" stroke-width="1.5"></path><path d="M54.94 641.87L54.94 641.87" stroke="rgba(181, 181, 181, 1)" stroke-width="1.5"></path><path d="M54.94 641.87L210.12 693.62" stroke="rgba(181, 181, 181, 1)" stroke-width="1.5"></path><path d="M229.54 382.67L229.54 382.67" stroke="rgba(181, 181, 181, 1)" stroke-width="1.5"></path><path d="M229.54 382.67L369.29 347.12" stroke="rgba(181, 181, 181, 1)" stroke-width="1.5"></path><path d="M229.54 382.67L232.29 531.19" stroke="rgba(181, 181, 181, 1)" stroke-width="1.5"></path><path d="M232.29 531.19L232.29 531.19" stroke="rgba(181, 181, 181, 1)" stroke-width="1.5"></path><path d="M232.29 531.19L361.85 555.9" stroke="rgba(181, 181, 181, 1)" stroke-width="1.5"></path><path d="M232.29 531.19L210.12 693.62" stroke="rgba(181, 181, 181, 1)" stroke-width="1.5"></path><path d="M232.29 531.19L351.09 646.47" stroke="rgba(181, 181, 181, 1)" stroke-width="1.5"></path><path d="M210.12 693.62L210.12 693.62" stroke="rgba(181, 181, 181, 1)" stroke-width="1.5"></path><path d="M210.12 693.62L351.09 646.47" stroke="rgba(181, 181, 181, 1)" stroke-width="1.5"></path><path d="M210.12 693.62L63.03 556.91" stroke="rgba(181, 181, 181, 1)" stroke-width="1.5"></path><path d="M210.12 693.62L361.85 555.9" stroke="rgba(181, 181, 181, 1)" stroke-width="1.5"></path><path d="M369.29 347.12L369.29 347.12" stroke="rgba(181, 181, 181, 1)" stroke-width="1.5"></path><path d="M369.29 347.12L520.09 338.15" stroke="rgba(181, 181, 181, 1)" stroke-width="1.5"></path><path d="M369.29 347.12L361.85 555.9" stroke="rgba(181, 181, 181, 1)" stroke-width="1.5"></path><path d="M369.29 347.12L502.94 530.82" stroke="rgba(181, 181, 181, 1)" stroke-width="1.5"></path><path d="M369.29 347.12L232.29 531.19" stroke="rgba(181, 181, 181, 1)" stroke-width="1.5"></path><path d="M361.85 555.9L361.85 555.9" stroke="rgba(181, 181, 181, 1)" stroke-width="1.5"></path><path d="M361.85 555.9L351.09 646.47" stroke="rgba(181, 181, 181, 1)" stroke-width="1.5"></path><path d="M351.09 646.47L351.09 646.47" stroke="rgba(181, 181, 181, 1)" stroke-width="1.5"></path><path d="M351.09 646.47L513.3 705.6" stroke="rgba(181, 181, 181, 1)" stroke-width="1.5"></path><path d="M351.09 646.47L502.94 530.82" stroke="rgba(181, 181, 181, 1)" stroke-width="1.5"></path><path d="M351.09 646.47L229.54 382.67" stroke="rgba(181, 181, 181, 1)" stroke-width="1.5"></path><path d="M520.09 338.15L520.09 338.15" stroke="rgba(181, 181, 181, 1)" stroke-width="1.5"></path><path d="M520.09 338.15L670.14 400.74" stroke="rgba(181, 181, 181, 1)" stroke-width="1.5"></path><path d="M520.09 338.15L674.85 233.68" stroke="rgba(181, 181, 181, 1)" stroke-width="1.5"></path><path d="M520.09 338.15L502.94 530.82" stroke="rgba(181, 181, 181, 1)" stroke-width="1.5"></path><path d="M520.09 338.15L663.41 499.4" stroke="rgba(181, 181, 181, 1)" stroke-width="1.5"></path><path d="M520.09 338.15L361.85 555.9" stroke="rgba(181, 181, 181, 1)" stroke-width="1.5"></path><path d="M502.94 530.82L502.94 530.82" stroke="rgba(181, 181, 181, 1)" stroke-width="1.5"></path><path d="M502.94 530.82L361.85 555.9" stroke="rgba(181, 181, 181, 1)" stroke-width="1.5"></path><path d="M502.94 530.82L663.41 499.4" stroke="rgba(181, 181, 181, 1)" stroke-width="1.5"></path><path d="M502.94 530.82L513.3 705.6" stroke="rgba(181, 181, 181, 1)" stroke-width="1.5"></path><path d="M513.3 705.6L513.3 705.6" stroke="rgba(181, 181, 181, 1)" stroke-width="1.5"></path><path d="M513.3 705.6L648.3 689.57" stroke="rgba(181, 181, 181, 1)" stroke-width="1.5"></path><path d="M513.3 705.6L361.85 555.9" stroke="rgba(181, 181, 181, 1)" stroke-width="1.5"></path><path d="M513.3 705.6L663.41 499.4" stroke="rgba(181, 181, 181, 1)" stroke-width="1.5"></path><path d="M674.85 233.68L674.85 233.68" stroke="rgba(181, 181, 181, 1)" stroke-width="1.5"></path><path d="M674.85 233.68L670.14 400.74" stroke="rgba(181, 181, 181, 1)" stroke-width="1.5"></path><path d="M674.85 233.68L855.69 210.87" stroke="rgba(181, 181, 181, 1)" stroke-width="1.5"></path><path d="M674.85 233.68L821.54 351.25" stroke="rgba(181, 181, 181, 1)" stroke-width="1.5"></path><path d="M674.85 233.68L828.77 97.83" stroke="rgba(181, 181, 181, 1)" stroke-width="1.5"></path><path d="M674.85 233.68L663.41 499.4" stroke="rgba(181, 181, 181, 1)" stroke-width="1.5"></path><path d="M670.14 400.74L670.14 400.74" stroke="rgba(181, 181, 181, 1)" stroke-width="1.5"></path><path d="M670.14 400.74L663.41 499.4" stroke="rgba(181, 181, 181, 1)" stroke-width="1.5"></path><path d="M670.14 400.74L821.54 351.25" stroke="rgba(181, 181, 181, 1)" stroke-width="1.5"></path><path d="M670.14 400.74L797.43 503.22" stroke="rgba(181, 181, 181, 1)" stroke-width="1.5"></path><path d="M663.41 499.4L663.41 499.4" stroke="rgba(181, 181, 181, 1)" stroke-width="1.5"></path><path d="M663.41 499.4L797.43 503.22" stroke="rgba(181, 181, 181, 1)" stroke-width="1.5"></path><path d="M648.3 689.57L648.3 689.57" stroke="rgba(181, 181, 181, 1)" stroke-width="1.5"></path><path d="M648.3 689.57L809.13 695.71" stroke="rgba(181, 181, 181, 1)" stroke-width="1.5"></path><path d="M648.3 689.57L663.41 499.4" stroke="rgba(181, 181, 181, 1)" stroke-width="1.5"></path><path d="M828.77 97.83L828.77 97.83" stroke="rgba(181, 181, 181, 1)" stroke-width="1.5"></path><path d="M828.77 97.83L855.69 210.87" stroke="rgba(181, 181, 181, 1)" stroke-width="1.5"></path><path d="M828.77 97.83L940.57 204.52" stroke="rgba(181, 181, 181, 1)" stroke-width="1.5"></path><path d="M828.77 97.83L1005.58 105.87" stroke="rgba(181, 181, 181, 1)" stroke-width="1.5"></path><path d="M855.69 210.87L855.69 210.87" stroke="rgba(181, 181, 181, 1)" stroke-width="1.5"></path><path d="M855.69 210.87L940.57 204.52" stroke="rgba(181, 181, 181, 1)" stroke-width="1.5"></path><path d="M855.69 210.87L821.54 351.25" stroke="rgba(181, 181, 181, 1)" stroke-width="1.5"></path><path d="M821.54 351.25L821.54 351.25" stroke="rgba(181, 181, 181, 1)" stroke-width="1.5"></path><path d="M821.54 351.25L948.35 406.85" stroke="rgba(181, 181, 181, 1)" stroke-width="1.5"></path><path d="M797.43 503.22L797.43 503.22" stroke="rgba(181, 181, 181, 1)" stroke-width="1.5"></path><path d="M797.43 503.22L821.54 351.25" stroke="rgba(181, 181, 181, 1)" stroke-width="1.5"></path><path d="M797.43 503.22L964.33 531.05" stroke="rgba(181, 181, 181, 1)" stroke-width="1.5"></path><path d="M809.13 695.71L809.13 695.71" stroke="rgba(181, 181, 181, 1)" stroke-width="1.5"></path><path d="M809.13 695.71L991.32 660.85" stroke="rgba(181, 181, 181, 1)" stroke-width="1.5"></path><path d="M809.13 695.71L797.43 503.22" stroke="rgba(181, 181, 181, 1)" stroke-width="1.5"></path><path d="M974.79 -61.55L974.79 -61.55" stroke="rgba(181, 181, 181, 1)" stroke-width="1.5"></path><path d="M974.79 -61.55L1005.58 105.87" stroke="rgba(181, 181, 181, 1)" stroke-width="1.5"></path><path d="M974.79 -61.55L828.77 97.83" stroke="rgba(181, 181, 181, 1)" stroke-width="1.5"></path><path d="M974.79 -61.55L1135.15 111.99" stroke="rgba(181, 181, 181, 1)" stroke-width="1.5"></path><path d="M974.79 -61.55L940.57 204.52" stroke="rgba(181, 181, 181, 1)" stroke-width="1.5"></path><path d="M1005.58 105.87L1005.58 105.87" stroke="rgba(181, 181, 181, 1)" stroke-width="1.5"></path><path d="M1005.58 105.87L940.57 204.52" stroke="rgba(181, 181, 181, 1)" stroke-width="1.5"></path><path d="M1005.58 105.87L1135.15 111.99" stroke="rgba(181, 181, 181, 1)" stroke-width="1.5"></path><path d="M940.57 204.52L940.57 204.52" stroke="rgba(181, 181, 181, 1)" stroke-width="1.5"></path><path d="M940.57 204.52L821.54 351.25" stroke="rgba(181, 181, 181, 1)" stroke-width="1.5"></path><path d="M940.57 204.52L948.35 406.85" stroke="rgba(181, 181, 181, 1)" stroke-width="1.5"></path><path d="M948.35 406.85L948.35 406.85" stroke="rgba(181, 181, 181, 1)" stroke-width="1.5"></path><path d="M948.35 406.85L964.33 531.05" stroke="rgba(181, 181, 181, 1)" stroke-width="1.5"></path><path d="M964.33 531.05L964.33 531.05" stroke="rgba(181, 181, 181, 1)" stroke-width="1.5"></path><path d="M964.33 531.05L991.32 660.85" stroke="rgba(181, 181, 181, 1)" stroke-width="1.5"></path><path d="M991.32 660.85L991.32 660.85" stroke="rgba(181, 181, 181, 1)" stroke-width="1.5"></path><path d="M991.32 660.85L1156.93 638.81" stroke="rgba(181, 181, 181, 1)" stroke-width="1.5"></path><path d="M1135.15 111.99L1135.15 111.99" stroke="rgba(181, 181, 181, 1)" stroke-width="1.5"></path><path d="M1135.15 111.99L1162.29 242.79" stroke="rgba(181, 181, 181, 1)" stroke-width="1.5"></path><path d="M1162.29 242.79L1162.29 242.79" stroke="rgba(181, 181, 181, 1)" stroke-width="1.5"></path><path d="M1162.29 242.79L1239.52 220.62" stroke="rgba(181, 181, 181, 1)" stroke-width="1.5"></path><path d="M1162.29 242.79L1110.69 389.83" stroke="rgba(181, 181, 181, 1)" stroke-width="1.5"></path><path d="M1162.29 242.79L1306.58 382.98" stroke="rgba(181, 181, 181, 1)" stroke-width="1.5"></path><path d="M1162.29 242.79L1270.99 70.73" stroke="rgba(181, 181, 181, 1)" stroke-width="1.5"></path><path d="M1110.69 389.83L1110.69 389.83" stroke="rgba(181, 181, 181, 1)" stroke-width="1.5"></path><path d="M1110.69 389.83L1121.69 536.58" stroke="rgba(181, 181, 181, 1)" stroke-width="1.5"></path><path d="M1110.69 389.83L948.35 406.85" stroke="rgba(181, 181, 181, 1)" stroke-width="1.5"></path><path d="M1121.69 536.58L1121.69 536.58" stroke="rgba(181, 181, 181, 1)" stroke-width="1.5"></path><path d="M1121.69 536.58L1156.93 638.81" stroke="rgba(181, 181, 181, 1)" stroke-width="1.5"></path><path d="M1121.69 536.58L964.33 531.05" stroke="rgba(181, 181, 181, 1)" stroke-width="1.5"></path><path d="M1121.69 536.58L1291.16 495.58" stroke="rgba(181, 181, 181, 1)" stroke-width="1.5"></path><path d="M1156.93 638.81L1156.93 638.81" stroke="rgba(181, 181, 181, 1)" stroke-width="1.5"></path><path d="M1156.93 638.81L1291.16 495.58" stroke="rgba(181, 181, 181, 1)" stroke-width="1.5"></path><path d="M1156.93 638.81L964.33 531.05" stroke="rgba(181, 181, 181, 1)" stroke-width="1.5"></path><path d="M1280.21 -84.87L1280.21 -84.87" stroke="rgba(181, 181, 181, 1)" stroke-width="1.5"></path><path d="M1280.21 -84.87L1391.78 -107.2" stroke="rgba(181, 181, 181, 1)" stroke-width="1.5"></path><path d="M1280.21 -84.87L1270.99 70.73" stroke="rgba(181, 181, 181, 1)" stroke-width="1.5"></path><path d="M1270.99 70.73L1270.99 70.73" stroke="rgba(181, 181, 181, 1)" stroke-width="1.5"></path><path d="M1270.99 70.73L1408.23 102.21" stroke="rgba(181, 181, 181, 1)" stroke-width="1.5"></path><path d="M1270.99 70.73L1135.15 111.99" stroke="rgba(181, 181, 181, 1)" stroke-width="1.5"></path><path d="M1239.52 220.62L1239.52 220.62" stroke="rgba(181, 181, 181, 1)" stroke-width="1.5"></path><path d="M1239.52 220.62L1135.15 111.99" stroke="rgba(181, 181, 181, 1)" stroke-width="1.5"></path><path d="M1239.52 220.62L1270.99 70.73" stroke="rgba(181, 181, 181, 1)" stroke-width="1.5"></path><path d="M1239.52 220.62L1306.58 382.98" stroke="rgba(181, 181, 181, 1)" stroke-width="1.5"></path><path d="M1239.52 220.62L1414.71 192.81" stroke="rgba(181, 181, 181, 1)" stroke-width="1.5"></path><path d="M1306.58 382.98L1306.58 382.98" stroke="rgba(181, 181, 181, 1)" stroke-width="1.5"></path><path d="M1306.58 382.98L1416.88 378.72" stroke="rgba(181, 181, 181, 1)" stroke-width="1.5"></path><path d="M1306.58 382.98L1291.16 495.58" stroke="rgba(181, 181, 181, 1)" stroke-width="1.5"></path><path d="M1291.16 495.58L1291.16 495.58" stroke="rgba(181, 181, 181, 1)" stroke-width="1.5"></path><path d="M1291.16 495.58L1413.86 551.71" stroke="rgba(181, 181, 181, 1)" stroke-width="1.5"></path><path d="M1291.16 495.58L1416.88 378.72" stroke="rgba(181, 181, 181, 1)" stroke-width="1.5"></path><path d="M1391.78 -107.2L1391.78 -107.2" stroke="rgba(181, 181, 181, 1)" stroke-width="1.5"></path><path d="M1391.78 -107.2L1408.23 102.21" stroke="rgba(181, 181, 181, 1)" stroke-width="1.5"></path><path d="M1391.78 -107.2L1600.89 -70.77" stroke="rgba(181, 181, 181, 1)" stroke-width="1.5"></path><path d="M1408.23 102.21L1408.23 102.21" stroke="rgba(181, 181, 181, 1)" stroke-width="1.5"></path><path d="M1408.23 102.21L1414.71 192.81" stroke="rgba(181, 181, 181, 1)" stroke-width="1.5"></path><path d="M1408.23 102.21L1581.34 85.81" stroke="rgba(181, 181, 181, 1)" stroke-width="1.5"></path><path d="M1414.71 192.81L1414.71 192.81" stroke="rgba(181, 181, 181, 1)" stroke-width="1.5"></path><path d="M1414.71 192.81L1544.06 224.38" stroke="rgba(181, 181, 181, 1)" stroke-width="1.5"></path><path d="M1414.71 192.81L1416.88 378.72" stroke="rgba(181, 181, 181, 1)" stroke-width="1.5"></path><path d="M1414.71 192.81L1270.99 70.73" stroke="rgba(181, 181, 181, 1)" stroke-width="1.5"></path><path d="M1416.88 378.72L1416.88 378.72" stroke="rgba(181, 181, 181, 1)" stroke-width="1.5"></path><path d="M1416.88 378.72L1549.33 361.43" stroke="rgba(181, 181, 181, 1)" stroke-width="1.5"></path><path d="M1413.86 551.71L1413.86 551.71" stroke="rgba(181, 181, 181, 1)" stroke-width="1.5"></path><path d="M1413.86 551.71L1420.06 694.51" stroke="rgba(181, 181, 181, 1)" stroke-width="1.5"></path><path d="M1413.86 551.71L1571.17 559.59" stroke="rgba(181, 181, 181, 1)" stroke-width="1.5"></path><path d="M1420.06 694.51L1420.06 694.51" stroke="rgba(181, 181, 181, 1)" stroke-width="1.5"></path><path d="M1420.06 694.51L1568.41 693.64" stroke="rgba(181, 181, 181, 1)" stroke-width="1.5"></path><path d="M1420.06 694.51L1571.17 559.59" stroke="rgba(181, 181, 181, 1)" stroke-width="1.5"></path><path d="M1600.89 -70.77L1600.89 -70.77" stroke="rgba(181, 181, 181, 1)" stroke-width="1.5"></path><path d="M1600.89 -70.77L1581.34 85.81" stroke="rgba(181, 181, 181, 1)" stroke-width="1.5"></path><path d="M1581.34 85.81L1581.34 85.81" stroke="rgba(181, 181, 181, 1)" stroke-width="1.5"></path><path d="M1581.34 85.81L1544.06 224.38" stroke="rgba(181, 181, 181, 1)" stroke-width="1.5"></path><path d="M1544.06 224.38L1544.06 224.38" stroke="rgba(181, 181, 181, 1)" stroke-width="1.5"></path><path d="M1544.06 224.38L1549.33 361.43" stroke="rgba(181, 181, 181, 1)" stroke-width="1.5"></path><path d="M1544.06 224.38L1408.23 102.21" stroke="rgba(181, 181, 181, 1)" stroke-width="1.5"></path><path d="M1544.06 224.38L1416.88 378.72" stroke="rgba(181, 181, 181, 1)" stroke-width="1.5"></path><path d="M1544.06 224.38L1306.58 382.98" stroke="rgba(181, 181, 181, 1)" stroke-width="1.5"></path><path d="M1549.33 361.43L1549.33 361.43" stroke="rgba(181, 181, 181, 1)" stroke-width="1.5"></path><path d="M1571.17 559.59L1571.17 559.59" stroke="rgba(181, 181, 181, 1)" stroke-width="1.5"></path><path d="M1571.17 559.59L1568.41 693.64" stroke="rgba(181, 181, 181, 1)" stroke-width="1.5"></path><path d="M1571.17 559.59L1549.33 361.43" stroke="rgba(181, 181, 181, 1)" stroke-width="1.5"></path><path d="M1571.17 559.59L1416.88 378.72" stroke="rgba(181, 181, 181, 1)" stroke-width="1.5"></path><path d="M1568.41 693.64L1568.41 693.64" stroke="rgba(181, 181, 181, 1)" stroke-width="1.5"></path><circle r="5" cx="-64.87" cy="345.83" fill="rgba(181, 181, 181, 1)"></circle><circle r="5" cx="-83.25" cy="528.37" fill="rgba(181, 181, 181, 1)"></circle><circle r="5" cx="-65.41" cy="679.78" fill="rgba(181, 181, 181, 1)"></circle><circle r="5" cx="54.2" cy="358.82" fill="rgba(181, 181, 181, 1)"></circle><circle r="5" cx="63.03" cy="556.91" fill="rgba(181, 181, 181, 1)"></circle><circle r="5" cx="54.94" cy="641.87" fill="rgba(181, 181, 181, 1)"></circle><circle r="5" cx="229.54" cy="382.67" fill="rgba(181, 181, 181, 1)"></circle><circle r="5" cx="232.29" cy="531.19" fill="rgba(181, 181, 181, 1)"></circle><circle r="5" cx="210.12" cy="693.62" fill="rgba(181, 181, 181, 1)"></circle><circle r="5" cx="369.29" cy="347.12" fill="rgba(181, 181, 181, 1)"></circle><circle r="5" cx="361.85" cy="555.9" fill="rgba(181, 181, 181, 1)"></circle><circle r="5" cx="351.09" cy="646.47" fill="rgba(181, 181, 181, 1)"></circle><circle r="5" cx="520.09" cy="338.15" fill="rgba(181, 181, 181, 1)"></circle><circle r="5" cx="502.94" cy="530.82" fill="rgba(181, 181, 181, 1)"></circle><circle r="5" cx="513.3" cy="705.6" fill="rgba(181, 181, 181, 1)"></circle><circle r="5" cx="674.85" cy="233.68" fill="rgba(181, 181, 181, 1)"></circle><circle r="5" cx="670.14" cy="400.74" fill="rgba(181, 181, 181, 1)"></circle><circle r="5" cx="663.41" cy="499.4" fill="rgba(181, 181, 181, 1)"></circle><circle r="5" cx="648.3" cy="689.57" fill="rgba(181, 181, 181, 1)"></circle><circle r="5" cx="828.77" cy="97.83" fill="rgba(181, 181, 181, 1)"></circle><circle r="5" cx="855.69" cy="210.87" fill="rgba(181, 181, 181, 1)"></circle><circle r="5" cx="821.54" cy="351.25" fill="rgba(181, 181, 181, 1)"></circle><circle r="5" cx="797.43" cy="503.22" fill="rgba(181, 181, 181, 1)"></circle><circle r="5" cx="809.13" cy="695.71" fill="rgba(181, 181, 181, 1)"></circle><circle r="5" cx="974.79" cy="-61.55" fill="rgba(181, 181, 181, 1)"></circle><circle r="5" cx="1005.58" cy="105.87" fill="rgba(181, 181, 181, 1)"></circle><circle r="5" cx="940.57" cy="204.52" fill="rgba(181, 181, 181, 1)"></circle><circle r="5" cx="948.35" cy="406.85" fill="rgba(181, 181, 181, 1)"></circle><circle r="5" cx="964.33" cy="531.05" fill="rgba(181, 181, 181, 1)"></circle><circle r="5" cx="991.32" cy="660.85" fill="rgba(181, 181, 181, 1)"></circle><circle r="5" cx="1135.15" cy="111.99" fill="rgba(181, 181, 181, 1)"></circle><circle r="5" cx="1162.29" cy="242.79" fill="rgba(181, 181, 181, 1)"></circle><circle r="5" cx="1110.69" cy="389.83" fill="rgba(181, 181, 181, 1)"></circle><circle r="5" cx="1121.69" cy="536.58" fill="rgba(181, 181, 181, 1)"></circle><circle r="5" cx="1156.93" cy="638.81" fill="rgba(181, 181, 181, 1)"></circle><circle r="5" cx="1280.21" cy="-84.87" fill="rgba(181, 181, 181, 1)"></circle><circle r="5" cx="1270.99" cy="70.73" fill="rgba(181, 181, 181, 1)"></circle><circle r="5" cx="1239.52" cy="220.62" fill="rgba(181, 181, 181, 1)"></circle><circle r="5" cx="1306.58" cy="382.98" fill="rgba(181, 181, 181, 1)"></circle><circle r="5" cx="1291.16" cy="495.58" fill="rgba(181, 181, 181, 1)"></circle><circle r="5" cx="1391.78" cy="-107.2" fill="rgba(181, 181, 181, 1)"></circle><circle r="5" cx="1408.23" cy="102.21" fill="rgba(181, 181, 181, 1)"></circle><circle r="5" cx="1414.71" cy="192.81" fill="rgba(181, 181, 181, 1)"></circle><circle r="5" cx="1416.88" cy="378.72" fill="rgba(181, 181, 181, 1)"></circle><circle r="5" cx="1413.86" cy="551.71" fill="rgba(181, 181, 181, 1)"></circle><circle r="5" cx="1420.06" cy="694.51" fill="rgba(181, 181, 181, 1)"></circle><circle r="5" cx="1600.89" cy="-70.77" fill="rgba(181, 181, 181, 1)"></circle><circle r="5" cx="1581.34" cy="85.81" fill="rgba(181, 181, 181, 1)"></circle><circle r="5" cx="1544.06" cy="224.38" fill="rgba(181, 181, 181, 1)"></circle><circle r="5" cx="1549.33" cy="361.43" fill="rgba(181, 181, 181, 1)"></circle><circle r="5" cx="1571.17" cy="559.59" fill="rgba(181, 181, 181, 1)"></circle><circle r="5" cx="1568.41" cy="693.64" fill="rgba(181, 181, 181, 1)"></circle><path d="M789.81 663.82L789.81 663.82" stroke="hsl(0, 0%, 100%)" stroke-width="1.5"></path><path d="M789.81 663.82L709.45 681.43" stroke="hsl(0, 0%, 100%)" stroke-width="1.5"></path><path d="M789.81 663.82L849.84 537.5" stroke="hsl(0, 0%, 100%)" stroke-width="1.5"></path><path d="M789.81 663.82L967.51 657.8" stroke="hsl(0, 0%, 100%)" stroke-width="1.5"></path><path d="M789.81 663.82L969.46 531.01" stroke="hsl(0, 0%, 100%)" stroke-width="1.5"></path><path d="M789.81 663.82L561.79 661.67" stroke="hsl(0, 0%, 100%)" stroke-width="1.5"></path><path d="M1279.03 650.45L1279.03 650.45" stroke="hsl(0, 0%, 100%)" stroke-width="1.5"></path><path d="M1279.03 650.45L1242.06 545.75" stroke="hsl(0, 0%, 100%)" stroke-width="1.5"></path><path d="M1279.03 650.45L1415.46 695.74" stroke="hsl(0, 0%, 100%)" stroke-width="1.5"></path><path d="M1279.03 650.45L1095.28 690.49" stroke="hsl(0, 0%, 100%)" stroke-width="1.5"></path><path d="M1279.03 650.45L1122.61 531.82" stroke="hsl(0, 0%, 100%)" stroke-width="1.5"></path><path d="M1279.03 650.45L1415.68 491.87" stroke="hsl(0, 0%, 100%)" stroke-width="1.5"></path><path d="M1279.03 650.45L1283.02 387.68" stroke="hsl(0, 0%, 100%)" stroke-width="1.5"></path><path d="M1538.87 489.79L1538.87 489.79" stroke="hsl(0, 0%, 100%)" stroke-width="1.5"></path><path d="M1538.87 489.79L1582.15 411.63" stroke="hsl(0, 0%, 100%)" stroke-width="1.5"></path><path d="M1538.87 489.79L1415.68 491.87" stroke="hsl(0, 0%, 100%)" stroke-width="1.5"></path><path d="M1538.87 489.79L1447.32 389.37" stroke="hsl(0, 0%, 100%)" stroke-width="1.5"></path><path d="M-59.08 514.94L-59.08 514.94" stroke="hsl(0, 0%, 100%)" stroke-width="1.5"></path><path d="M-59.08 514.94L105.54 510.99" stroke="hsl(0, 0%, 100%)" stroke-width="1.5"></path><path d="M-59.08 514.94L-99.08 702.11" stroke="hsl(0, 0%, 100%)" stroke-width="1.5"></path><path d="M-59.08 514.94L46.67 699.26" stroke="hsl(0, 0%, 100%)" stroke-width="1.5"></path><path d="M-59.08 514.94L233.66 540.82" stroke="hsl(0, 0%, 100%)" stroke-width="1.5"></path><path d="M-59.08 514.94L382.1 637.58" stroke="hsl(0, 0%, 100%)" stroke-width="1.5"></path><path d="M-99.08 702.11L-99.08 702.11" stroke="hsl(0, 0%, 100%)" stroke-width="1.5"></path><path d="M-99.08 702.11L46.67 699.26" stroke="hsl(0, 0%, 100%)" stroke-width="1.5"></path><path d="M-99.08 702.11L105.54 510.99" stroke="hsl(0, 0%, 100%)" stroke-width="1.5"></path><path d="M-99.08 702.11L233.66 540.82" stroke="hsl(0, 0%, 100%)" stroke-width="1.5"></path><path d="M-99.08 702.11L382.1 637.58" stroke="hsl(0, 0%, 100%)" stroke-width="1.5"></path><path d="M105.54 510.99L105.54 510.99" stroke="hsl(0, 0%, 100%)" stroke-width="1.5"></path><path d="M105.54 510.99L233.66 540.82" stroke="hsl(0, 0%, 100%)" stroke-width="1.5"></path><path d="M46.67 699.26L46.67 699.26" stroke="hsl(0, 0%, 100%)" stroke-width="1.5"></path><path d="M46.67 699.26L105.54 510.99" stroke="hsl(0, 0%, 100%)" stroke-width="1.5"></path><path d="M46.67 699.26L233.66 540.82" stroke="hsl(0, 0%, 100%)" stroke-width="1.5"></path><path d="M46.67 699.26L382.1 637.58" stroke="hsl(0, 0%, 100%)" stroke-width="1.5"></path><path d="M46.67 699.26L402.27 532.48" stroke="hsl(0, 0%, 100%)" stroke-width="1.5"></path><path d="M233.66 540.82L233.66 540.82" stroke="hsl(0, 0%, 100%)" stroke-width="1.5"></path><path d="M233.66 540.82L402.27 532.48" stroke="hsl(0, 0%, 100%)" stroke-width="1.5"></path><path d="M233.66 540.82L382.1 637.58" stroke="hsl(0, 0%, 100%)" stroke-width="1.5"></path><path d="M402.27 532.48L402.27 532.48" stroke="hsl(0, 0%, 100%)" stroke-width="1.5"></path><path d="M402.27 532.48L382.1 637.58" stroke="hsl(0, 0%, 100%)" stroke-width="1.5"></path><path d="M402.27 532.48L545.23 546.26" stroke="hsl(0, 0%, 100%)" stroke-width="1.5"></path><path d="M382.1 637.58L382.1 637.58" stroke="hsl(0, 0%, 100%)" stroke-width="1.5"></path><path d="M545.23 546.26L545.23 546.26" stroke="hsl(0, 0%, 100%)" stroke-width="1.5"></path><path d="M545.23 546.26L561.79 661.67" stroke="hsl(0, 0%, 100%)" stroke-width="1.5"></path><path d="M545.23 546.26L382.1 637.58" stroke="hsl(0, 0%, 100%)" stroke-width="1.5"></path><path d="M545.23 546.26L709.45 681.43" stroke="hsl(0, 0%, 100%)" stroke-width="1.5"></path><path d="M561.79 661.67L561.79 661.67" stroke="hsl(0, 0%, 100%)" stroke-width="1.5"></path><path d="M561.79 661.67L709.45 681.43" stroke="hsl(0, 0%, 100%)" stroke-width="1.5"></path><path d="M561.79 661.67L382.1 637.58" stroke="hsl(0, 0%, 100%)" stroke-width="1.5"></path><path d="M561.79 661.67L402.27 532.48" stroke="hsl(0, 0%, 100%)" stroke-width="1.5"></path><path d="M711.83 410.66L711.83 410.66" stroke="hsl(0, 0%, 100%)" stroke-width="1.5"></path><path d="M711.83 410.66L856.11 360.44" stroke="hsl(0, 0%, 100%)" stroke-width="1.5"></path><path d="M711.83 410.66L849.84 537.5" stroke="hsl(0, 0%, 100%)" stroke-width="1.5"></path><path d="M711.83 410.66L545.23 546.26" stroke="hsl(0, 0%, 100%)" stroke-width="1.5"></path><path d="M711.83 410.66L967.57 350.73" stroke="hsl(0, 0%, 100%)" stroke-width="1.5"></path><path d="M711.83 410.66L789.81 663.82" stroke="hsl(0, 0%, 100%)" stroke-width="1.5"></path><path d="M711.83 410.66L709.45 681.43" stroke="hsl(0, 0%, 100%)" stroke-width="1.5"></path><path d="M709.45 681.43L709.45 681.43" stroke="hsl(0, 0%, 100%)" stroke-width="1.5"></path><path d="M709.45 681.43L849.84 537.5" stroke="hsl(0, 0%, 100%)" stroke-width="1.5"></path><path d="M709.45 681.43L967.51 657.8" stroke="hsl(0, 0%, 100%)" stroke-width="1.5"></path><path d="M856.11 360.44L856.11 360.44" stroke="hsl(0, 0%, 100%)" stroke-width="1.5"></path><path d="M856.11 360.44L967.57 350.73" stroke="hsl(0, 0%, 100%)" stroke-width="1.5"></path><path d="M849.84 537.5L849.84 537.5" stroke="hsl(0, 0%, 100%)" stroke-width="1.5"></path><path d="M849.84 537.5L969.46 531.01" stroke="hsl(0, 0%, 100%)" stroke-width="1.5"></path><path d="M849.84 537.5L967.51 657.8" stroke="hsl(0, 0%, 100%)" stroke-width="1.5"></path><path d="M967.57 350.73L967.57 350.73" stroke="hsl(0, 0%, 100%)" stroke-width="1.5"></path><path d="M967.57 350.73L1090.48 409.93" stroke="hsl(0, 0%, 100%)" stroke-width="1.5"></path><path d="M967.57 350.73L969.46 531.01" stroke="hsl(0, 0%, 100%)" stroke-width="1.5"></path><path d="M969.46 531.01L969.46 531.01" stroke="hsl(0, 0%, 100%)" stroke-width="1.5"></path><path d="M969.46 531.01L967.51 657.8" stroke="hsl(0, 0%, 100%)" stroke-width="1.5"></path><path d="M967.51 657.8L967.51 657.8" stroke="hsl(0, 0%, 100%)" stroke-width="1.5"></path><path d="M967.51 657.8L1095.28 690.49" stroke="hsl(0, 0%, 100%)" stroke-width="1.5"></path><path d="M1160.12 -38.13L1160.12 -38.13" stroke="hsl(0, 0%, 100%)" stroke-width="1.5"></path><path d="M1160.12 -38.13L1291.81 43.05" stroke="hsl(0, 0%, 100%)" stroke-width="1.5"></path><path d="M1160.12 -38.13L1404.01 -46.57" stroke="hsl(0, 0%, 100%)" stroke-width="1.5"></path><path d="M1160.12 -38.13L1259.01 195.92" stroke="hsl(0, 0%, 100%)" stroke-width="1.5"></path><path d="M1090.48 409.93L1090.48 409.93" stroke="hsl(0, 0%, 100%)" stroke-width="1.5"></path><path d="M1090.48 409.93L1122.61 531.82" stroke="hsl(0, 0%, 100%)" stroke-width="1.5"></path><path d="M1090.48 409.93L969.46 531.01" stroke="hsl(0, 0%, 100%)" stroke-width="1.5"></path><path d="M1122.61 531.82L1122.61 531.82" stroke="hsl(0, 0%, 100%)" stroke-width="1.5"></path><path d="M1122.61 531.82L1242.06 545.75" stroke="hsl(0, 0%, 100%)" stroke-width="1.5"></path><path d="M1122.61 531.82L969.46 531.01" stroke="hsl(0, 0%, 100%)" stroke-width="1.5"></path><path d="M1095.28 690.49L1095.28 690.49" stroke="hsl(0, 0%, 100%)" stroke-width="1.5"></path><path d="M1095.28 690.49L1122.61 531.82" stroke="hsl(0, 0%, 100%)" stroke-width="1.5"></path><path d="M1095.28 690.49L969.46 531.01" stroke="hsl(0, 0%, 100%)" stroke-width="1.5"></path><path d="M1291.81 43.05L1291.81 43.05" stroke="hsl(0, 0%, 100%)" stroke-width="1.5"></path><path d="M1291.81 43.05L1416.47 53.37" stroke="hsl(0, 0%, 100%)" stroke-width="1.5"></path><path d="M1259.01 195.92L1259.01 195.92" stroke="hsl(0, 0%, 100%)" stroke-width="1.5"></path><path d="M1259.01 195.92L1291.81 43.05" stroke="hsl(0, 0%, 100%)" stroke-width="1.5"></path><path d="M1259.01 195.92L1404.83 254.03" stroke="hsl(0, 0%, 100%)" stroke-width="1.5"></path><path d="M1259.01 195.92L1283.02 387.68" stroke="hsl(0, 0%, 100%)" stroke-width="1.5"></path><path d="M1283.02 387.68L1283.02 387.68" stroke="hsl(0, 0%, 100%)" stroke-width="1.5"></path><path d="M1283.02 387.68L1242.06 545.75" stroke="hsl(0, 0%, 100%)" stroke-width="1.5"></path><path d="M1283.02 387.68L1447.32 389.37" stroke="hsl(0, 0%, 100%)" stroke-width="1.5"></path><path d="M1283.02 387.68L1415.68 491.87" stroke="hsl(0, 0%, 100%)" stroke-width="1.5"></path><path d="M1283.02 387.68L1404.83 254.03" stroke="hsl(0, 0%, 100%)" stroke-width="1.5"></path><path d="M1283.02 387.68L1090.48 409.93" stroke="hsl(0, 0%, 100%)" stroke-width="1.5"></path><path d="M1242.06 545.75L1242.06 545.75" stroke="hsl(0, 0%, 100%)" stroke-width="1.5"></path><path d="M1242.06 545.75L1415.68 491.87" stroke="hsl(0, 0%, 100%)" stroke-width="1.5"></path><path d="M1404.01 -46.57L1404.01 -46.57" stroke="hsl(0, 0%, 100%)" stroke-width="1.5"></path><path d="M1404.01 -46.57L1416.47 53.37" stroke="hsl(0, 0%, 100%)" stroke-width="1.5"></path><path d="M1404.01 -46.57L1537.6 -66.07" stroke="hsl(0, 0%, 100%)" stroke-width="1.5"></path><path d="M1404.01 -46.57L1291.81 43.05" stroke="hsl(0, 0%, 100%)" stroke-width="1.5"></path><path d="M1404.01 -46.57L1540.53 43.04" stroke="hsl(0, 0%, 100%)" stroke-width="1.5"></path><path d="M1416.47 53.37L1416.47 53.37" stroke="hsl(0, 0%, 100%)" stroke-width="1.5"></path><path d="M1416.47 53.37L1540.53 43.04" stroke="hsl(0, 0%, 100%)" stroke-width="1.5"></path><path d="M1416.47 53.37L1537.6 -66.07" stroke="hsl(0, 0%, 100%)" stroke-width="1.5"></path><path d="M1416.47 53.37L1404.83 254.03" stroke="hsl(0, 0%, 100%)" stroke-width="1.5"></path><path d="M1404.83 254.03L1404.83 254.03" stroke="hsl(0, 0%, 100%)" stroke-width="1.5"></path><path d="M1404.83 254.03L1447.32 389.37" stroke="hsl(0, 0%, 100%)" stroke-width="1.5"></path><path d="M1404.83 254.03L1550.34 225.59" stroke="hsl(0, 0%, 100%)" stroke-width="1.5"></path><path d="M1447.32 389.37L1447.32 389.37" stroke="hsl(0, 0%, 100%)" stroke-width="1.5"></path><path d="M1447.32 389.37L1415.68 491.87" stroke="hsl(0, 0%, 100%)" stroke-width="1.5"></path><path d="M1415.68 491.87L1415.68 491.87" stroke="hsl(0, 0%, 100%)" stroke-width="1.5"></path><path d="M1415.46 695.74L1415.46 695.74" stroke="hsl(0, 0%, 100%)" stroke-width="1.5"></path><path d="M1415.46 695.74L1593.91 685.09" stroke="hsl(0, 0%, 100%)" stroke-width="1.5"></path><path d="M1415.46 695.74L1415.68 491.87" stroke="hsl(0, 0%, 100%)" stroke-width="1.5"></path><path d="M1415.46 695.74L1242.06 545.75" stroke="hsl(0, 0%, 100%)" stroke-width="1.5"></path><path d="M1537.6 -66.07L1537.6 -66.07" stroke="hsl(0, 0%, 100%)" stroke-width="1.5"></path><path d="M1537.6 -66.07L1540.53 43.04" stroke="hsl(0, 0%, 100%)" stroke-width="1.5"></path><path d="M1537.6 -66.07L1291.81 43.05" stroke="hsl(0, 0%, 100%)" stroke-width="1.5"></path><path d="M1540.53 43.04L1540.53 43.04" stroke="hsl(0, 0%, 100%)" stroke-width="1.5"></path><path d="M1540.53 43.04L1550.34 225.59" stroke="hsl(0, 0%, 100%)" stroke-width="1.5"></path><path d="M1540.53 43.04L1291.81 43.05" stroke="hsl(0, 0%, 100%)" stroke-width="1.5"></path><path d="M1550.34 225.59L1550.34 225.59" stroke="hsl(0, 0%, 100%)" stroke-width="1.5"></path><path d="M1550.34 225.59L1582.15 411.63" stroke="hsl(0, 0%, 100%)" stroke-width="1.5"></path><path d="M1550.34 225.59L1447.32 389.37" stroke="hsl(0, 0%, 100%)" stroke-width="1.5"></path><path d="M1582.15 411.63L1582.15 411.63" stroke="hsl(0, 0%, 100%)" stroke-width="1.5"></path><path d="M1582.15 411.63L1447.32 389.37" stroke="hsl(0, 0%, 100%)" stroke-width="1.5"></path><path d="M1582.15 411.63L1415.68 491.87" stroke="hsl(0, 0%, 100%)" stroke-width="1.5"></path><path d="M1593.91 685.09L1593.91 685.09" stroke="hsl(0, 0%, 100%)" stroke-width="1.5"></path><path d="M1593.91 685.09L1538.87 489.79" stroke="hsl(0, 0%, 100%)" stroke-width="1.5"></path><path d="M1593.91 685.09L1415.68 491.87" stroke="hsl(0, 0%, 100%)" stroke-width="1.5"></path><circle r="25" cx="789.81" cy="663.82" fill="url(&quot;#SvgjsRadialGradient1009&quot;)"></circle><circle r="25" cx="1279.03" cy="650.45" fill="url(&quot;#SvgjsRadialGradient1009&quot;)"></circle><circle r="25" cx="1538.87" cy="489.79" fill="url(&quot;#SvgjsRadialGradient1009&quot;)"></circle><circle r="5" cx="-59.08" cy="514.94" fill="#f5f5f5"></circle><circle r="5" cx="-99.08" cy="702.11" fill="#f5f5f5"></circle><circle r="5" cx="105.54" cy="510.99" fill="#f5f5f5"></circle><circle r="5" cx="46.67" cy="699.26" fill="#f5f5f5"></circle><circle r="5" cx="233.66" cy="540.82" fill="#f5f5f5"></circle><circle r="5" cx="402.27" cy="532.48" fill="#f5f5f5"></circle><circle r="5" cx="382.1" cy="637.58" fill="#f5f5f5"></circle><circle r="5" cx="545.23" cy="546.26" fill="#f5f5f5"></circle><circle r="5" cx="561.79" cy="661.67" fill="#f5f5f5"></circle><circle r="5" cx="711.83" cy="410.66" fill="#f5f5f5"></circle><circle r="5" cx="709.45" cy="681.43" fill="#f5f5f5"></circle><circle r="5" cx="856.11" cy="360.44" fill="#f5f5f5"></circle><circle r="5" cx="849.84" cy="537.5" fill="#f5f5f5"></circle><circle r="5" cx="967.57" cy="350.73" fill="#f5f5f5"></circle><circle r="5" cx="969.46" cy="531.01" fill="#f5f5f5"></circle><circle r="5" cx="967.51" cy="657.8" fill="#f5f5f5"></circle><circle r="5" cx="1160.12" cy="-38.13" fill="#f5f5f5"></circle><circle r="5" cx="1090.48" cy="409.93" fill="#f5f5f5"></circle><circle r="5" cx="1122.61" cy="531.82" fill="#f5f5f5"></circle><circle r="5" cx="1095.28" cy="690.49" fill="#f5f5f5"></circle><circle r="5" cx="1291.81" cy="43.05" fill="#f5f5f5"></circle><circle r="5" cx="1259.01" cy="195.92" fill="#f5f5f5"></circle><circle r="5" cx="1283.02" cy="387.68" fill="#f5f5f5"></circle><circle r="5" cx="1242.06" cy="545.75" fill="#f5f5f5"></circle><circle r="5" cx="1404.01" cy="-46.57" fill="#f5f5f5"></circle><circle r="5" cx="1416.47" cy="53.37" fill="#f5f5f5"></circle><circle r="5" cx="1404.83" cy="254.03" fill="#f5f5f5"></circle><circle r="5" cx="1447.32" cy="389.37" fill="#f5f5f5"></circle><circle r="5" cx="1415.68" cy="491.87" fill="#f5f5f5"></circle><circle r="5" cx="1415.46" cy="695.74" fill="#f5f5f5"></circle><circle r="5" cx="1537.6" cy="-66.07" fill="#f5f5f5"></circle><circle r="5" cx="1540.53" cy="43.04" fill="#f5f5f5"></circle><circle r="5" cx="1550.34" cy="225.59" fill="#f5f5f5"></circle><circle r="5" cx="1582.15" cy="411.63" fill="#f5f5f5"></circle><circle r="5" cx="1593.91" cy="685.09" fill="#f5f5f5"></circle></g><defs><mask id="SvgjsMask1008"><rect width="1440" height="560" fill="#ffffff"></rect></mask><radialGradient id="SvgjsRadialGradient1009"><stop stop-color="#ffffff" offset="0.1"></stop><stop stop-color="rgba(234, 234, 234, 1)" offset="0.2"></stop><stop stop-color="rgba(234, 234, 234, 0)" offset="1"></stop></radialGradient></defs></svg>