<svg id="Layer_1" data-name="Layer 1" xmlns="http://www.w3.org/2000/svg" viewBox="0 0 458.48 215.49"><defs><style>.cls-1{font-size:24.93px;fill:#707070;font-family:TrebuchetMS, Trebuchet MS;letter-spacing:0.02em;}.cls-2{fill:#a21c26;}.cls-3{fill:#a31d27;}.cls-4{fill:#a31f28;}.cls-5{fill:#a6242d;}.cls-6{fill:#fefefe;}.cls-7{fill:#fefdfd;}.cls-8{font-size:5.99px;font-family:MyriadPro-Regular, Myriad Pro;letter-spacing:0.05em;}.cls-9{fill:#1b72ba;stroke:#1b72ba;}.cls-10,.cls-9{stroke-miterlimit:10;stroke-width:5px;}.cls-10{fill:#b29731;stroke:#b29731;}</style></defs><title>PaySii-pw-Safari-tm</title><text class="cls-1" transform="translate(245.17 171.05)">powered by</text><path class="cls-2" d="M364.92,202.42c0,2.42,0,4.52,0,6.61a3.32,3.32,0,1,1-6.64,0c0-7.82,0-15.64,0-23.46,0-2.35,1-3.66,2.92-4,1.76-.28,3.2.88,3.87,3.23a9.08,9.08,0,0,1,6.09-3.36c6.34-.5,11.36,4.15,11.7,10.88a15.1,15.1,0,0,1-1.5,7.9A10.12,10.12,0,0,1,364.92,202.42Z"/><path class="cls-2" d="M400.44,203.09a9.58,9.58,0,0,1-8.21,2.56c-4.34-.6-6.75-3.27-6.71-7.28s2.54-6.61,6.83-7.22a18.44,18.44,0,0,1,8,.64,3.47,3.47,0,0,0-3.07-4.28,14.27,14.27,0,0,0-6.09.44c-1.89.5-3.24-.14-3.74-1.71s.23-2.94,2.07-3.56a19.72,19.72,0,0,1,10.49-.75c4.55.94,6.93,4.1,7,9.17,0,3.5,0,7,0,10.49,0,2.25-.77,3.48-2.38,3.86C402.89,205.88,401.61,205.2,400.44,203.09Z"/><path class="cls-2" d="M421.69,197.17c1.42-3.95,2.81-7.83,4.22-11.7a13.82,13.82,0,0,1,1-2.43,3.17,3.17,0,0,1,5.78,2.33,12.88,12.88,0,0,1-.71,2q-3.78,9.1-7.58,18.22c-.37.86-.75,1.72-1.2,2.55a8,8,0,0,1-10.66,3.56,2.85,2.85,0,0,1-1.81-3.47c.42-1.51,1.6-2.18,3.37-1.88.44.07.86.23,1.3.3a2.41,2.41,0,0,0,2.36-.87c.62-.74.34-1.42,0-2.15-2.44-5.63-4.89-11.26-7.3-16.9-1.13-2.65-.2-4.69,2.26-5.13,1.71-.31,3,.52,3.76,2.51,1.45,3.82,2.86,7.66,4.3,11.49A2.65,2.65,0,0,0,421.69,197.17Z"/><path class="cls-2" d="M283,202.1c-3.63,3.71-7.63,4.55-12.11,2.91a6.82,6.82,0,0,1,0-12.83c3.55-1.33,7.19-1,10.81-.26.33.06.65.14,1,.21a.83.83,0,0,0,.15,0c.36-3.75-1.64-6.22-5.32-6.6a13.49,13.49,0,0,0-6.67,1c-1,.43-1.91.45-2.39-.62s.14-1.75,1.16-2.17a16.9,16.9,0,0,1,10.09-1c4.23.87,6.5,3.87,6.54,8.38,0,4,0,8,0,12,0,1.18-.07,2.34-1.61,2.39s-1.75-1-1.67-2.27C283,202.93,283,202.66,283,202.1Z"/><path class="cls-2" d="M322.15,192.14c.44-3.75-1.62-6.31-5.31-6.65a13.39,13.39,0,0,0-6.5,1c-1,.43-2,.62-2.54-.59s.47-1.89,1.49-2.3a17.56,17.56,0,0,1,9.15-1c4.46.65,7.05,3.62,7.15,8.21.1,4.21,0,8.43,0,12.64,0,1.14-.33,2-1.62,2.06s-1.76-.9-1.71-2.11c0-.31,0-.62,0-1.25a10.43,10.43,0,0,1-9.79,3.52c-4.27-.7-6.88-3.47-6.81-7.1s2.79-6.46,7.1-7a22.75,22.75,0,0,1,4.81-.1C319.14,191.52,320.63,191.9,322.15,192.14Z"/><path class="cls-2" d="M254,182.31a15.44,15.44,0,0,1,6.57,1.6c1,.45,1.78,1.15,1.22,2.34s-1.57,1.05-2.55.5a12.62,12.62,0,0,0-4.38-1.48,5.78,5.78,0,0,0-3.72.57,2.69,2.69,0,0,0-.1,4.91,20.73,20.73,0,0,0,4.5,1.7,18.41,18.41,0,0,1,4,1.58,6,6,0,0,1,.37,10.13,9.35,9.35,0,0,1-6.17,1.56,15.64,15.64,0,0,1-7.36-2.39c-.94-.59-1.66-1.32-1-2.43s1.61-.83,2.58-.21a12.12,12.12,0,0,0,6.88,2.12,5.46,5.46,0,0,0,2.85-.81,2.93,2.93,0,0,0,0-5.18,17.17,17.17,0,0,0-4.5-1.67,18.19,18.19,0,0,1-4.17-1.61,5.75,5.75,0,0,1-.52-9.63A8.72,8.72,0,0,1,254,182.31Z"/><path class="cls-2" d="M297.36,195.21c0,2.72,0,5.44,0,8.15,0,1.23-.32,2.15-1.71,2.11s-1.69-1-1.69-2.18c0-5.38,0-10.76,0-16.14,0-1-.13-1.55-1.32-1.41s-1.93-.29-1.95-1.5.87-1.6,1.94-1.46,1.43-.4,1.32-1.42a8.37,8.37,0,0,1,0-1.66,6.91,6.91,0,0,1,9.55-6.19,1.47,1.47,0,0,1,1.1,1.79c-.15.86-.78,1.14-1.58,1.16a1.86,1.86,0,0,1-.33,0c-4.1-.38-5.67,1.2-5.41,5.34.05.82.35,1,1.1,1,1.5,0,3,0,4.49,0,.92,0,1.69.32,1.73,1.38s-.67,1.58-1.7,1.6c-1.49,0-3,.05-4.49,0-.88,0-1.14.28-1.12,1.14C297.39,189.66,297.36,192.44,297.36,195.21Z"/><path class="cls-3" d="M335.56,187.32A14.33,14.33,0,0,1,340.5,183a6.13,6.13,0,0,1,2.89-.57,1.5,1.5,0,0,1,1.49,1.32,1.66,1.66,0,0,1-.94,1.94,3.34,3.34,0,0,1-.8.18c-4.84,1.1-7.46,4.29-7.57,9.31-.06,2.6,0,5.21,0,7.81,0,1.26-.2,2.48-1.77,2.48S332,204.29,332,203V184.89c0-1.27.29-2.42,1.86-2.38s1.69,1.19,1.69,2.38C335.56,185.7,335.56,186.51,335.56,187.32Z"/><path class="cls-4" d="M349.42,194c0-3,0-6.09,0-9.14,0-1.22.2-2.32,1.7-2.33s1.77,1,1.77,2.27q0,9.22,0,18.45c0,1.26-.35,2.27-1.8,2.25s-1.68-1-1.67-2.19C349.43,200.18,349.42,197.08,349.42,194Z"/><path class="cls-5" d="M352.87,178a1.7,1.7,0,0,1-1.61,1.77,1.58,1.58,0,0,1-1.82-1.7,1.56,1.56,0,0,1,1.65-1.7A1.66,1.66,0,0,1,352.87,178Z"/><path class="cls-6" d="M364.87,193.43c.09-4.76,4.22-7.66,8.08-5.67,2.81,1.45,4,5.23,2.7,8.56a5.43,5.43,0,0,1-6.51,3.5C366.53,199.16,364.81,196.59,364.87,193.43Z"/><path class="cls-7" d="M396.58,195c.76.07,1.37.07,2,.17,2.21.37,2.85,2,1.55,3.89a5.62,5.62,0,0,1-6.88,1.37,2.76,2.76,0,0,1,0-4.6A6.27,6.27,0,0,1,396.58,195Z"/><path class="cls-6" d="M277.25,193.87a30.29,30.29,0,0,1,4.68.66,1.19,1.19,0,0,1,1.1,1.31c.14,2.77-.84,4.91-3.32,6.16-2.66,1.34-5.43,1.62-8-.11a4.1,4.1,0,0,1,.23-6.95C273,194.24,274.69,193.86,277.25,193.87Z"/><path class="cls-6" d="M316,193.75c1.42.2,2.83.48,4.25.57,1.75.11,2.29.88,2.15,2.63-.29,3.7-4,6.56-8.06,6.08a6.31,6.31,0,0,1-3.91-1.61,4.16,4.16,0,0,1,.92-6.53A10.47,10.47,0,0,1,316,193.75Z"/><text class="cls-8" transform="translate(435.75 185.04)">TM</text><path class="cls-9" d="M34.74,68.58c4.67.23,9.29.53,13.91.68a41.78,41.78,0,0,0,15.59-2.35c10-3.6,15.59-11,17.29-21.67a23.78,23.78,0,0,0-1.3-12.65c-2.59-6.6-7.58-10.37-14.3-10.85-8.15-.59-16.35-.39-24.52-.51-3.1,0-6.21,0-9.31,0-1.25,0-1.68.48-1.72,1.74-.36,9.52-.8,19-1.15,28.56-.3,8-.53,16-.79,24-.25,7.74-.58,15.47-.76,23.21q-.45,19.77-.73,39.53c0,1.85-.52,2.38-2.3,2.33-4.51-.12-9-.07-13.52,0-1.29,0-1.79-.22-1.61-1.8.48-4.33.79-8.69,1-13,.58-12.22,1.07-24.45,1.59-36.68q.41-9.42.77-18.84c.4-10.51.86-21,1.15-31.53.24-9.27.33-18.55.36-27.82,0-1.91.49-2.58,2.38-2.44,3,.22,6.06.32,9.09.31,13.88-.07,27.76-.34,41.64-.23,7.17.06,14.14,1.39,19.91,6.37A30.44,30.44,0,0,1,97.92,35.4c1.38,13-2.2,24.22-11.21,33.49-6.1,6.27-13.78,9.43-22.07,11.18s-16.78,1.38-25.17,0a2.42,2.42,0,0,1-2.31-2.17C36.52,74.74,35.56,71.65,34.74,68.58Z"/><path class="cls-9" d="M184.86,167.9c5.08,2.27,10,3.68,15.19,3.6,6.06-.1,11.13-2.33,14.72-7.48a108.25,108.25,0,0,0,12.16-23.51,3.6,3.6,0,0,0-.09-2.22q-16.4-47.52-32.87-95c-.25-.72-.46-1.45-.82-2.55,1.77.13,3.25.33,4.72.32,3.29,0,6.58-.16,9.86-.25,1.18,0,2.27-.28,2.78,1.47Q216,60.88,221.65,79.43c4.49,14.6,9.09,29.16,13.65,43.74.11.35.27.68.6,1.48.45-.93.76-1.5,1-2.1q14.32-34.69,28.62-69.42c1.47-3.58,2.64-7.3,4.07-10.9a2.41,2.41,0,0,1,1.66-1.38c4.67-.11,9.34-.07,14-.05a5.74,5.74,0,0,1,1.09.26c-1.24,2.85-2.38,5.57-3.58,8.27Q259,103.26,235.11,157.19c-2.81,6.34-5.82,12.57-10.88,17.46-4.91,4.75-10.84,7-17.4,7.87-6.3.85-12.48,0-18.65-1.17a2.13,2.13,0,0,1-2.1-2.35C185.86,175.4,185.31,171.81,184.86,167.9Z"/><path class="cls-9" d="M166.9,80.34a3.3,3.3,0,0,0-.71.21c-7.13,6-16,7.55-24.48,10.23a151.32,151.32,0,0,0-17,6.31,25.42,25.42,0,0,0-8,6.07c-6.66,7.4-4.58,21.4,7.68,24.75,8.44,2.31,16.87,1.47,25.21-.86,1.14-.31,2.27-.67,3.65-1.08a13.42,13.42,0,0,1-.19,1.42c-.61,2.44-1.39,4.84-1.81,7.32a2.41,2.41,0,0,1-2.54,2.27c-6.39.53-12.79,1.37-19.19,1.45a54.73,54.73,0,0,1-13.09-1.6c-11.72-2.77-18.36-11.88-18.2-24.27.11-9,4.41-15.55,11.47-20.47,6.69-4.65,14.3-7,22-9.22s15.09-4.08,22.59-6.28a19.32,19.32,0,0,0,9.11-5.31c6.19-6.7,4.79-15.85-3.18-20.15-3.83-2.07-8-2.65-12.26-2.8a84.41,84.41,0,0,0-34.24,6c-.85.34-1.73.61-2.92,1l.92-6.82c0-.2.11-.38.14-.57.79-4.6.8-4.55,5.32-5.64a123.1,123.1,0,0,1,32.4-3.79c6.93.18,13.83.94,20.33,3.75,7.71,3.32,12.52,8.9,12.69,17.78.1,5.29-.11,10.59-.31,15.87-.17,4.59-.57,9.17-.79,13.75q-.81,17.35-1.53,34.7c-.13,3.43-.1,6.88,0,10.31,0,1.44-.42,1.91-1.84,1.88-4.09-.09-8.19-.08-12.27,0-1.45,0-2.09-.31-1.95-1.94.52-6.05,1-12.1,1.4-18.16.31-4.38.59-8.77.8-13.16.33-6.92.58-13.83.86-20.75C166.92,81.91,166.9,81.21,166.9,80.34Z"/><path class="cls-10" d="M290.48,118.47c3.48,1.37,6.61,2.69,9.8,3.85a63.3,63.3,0,0,0,25.45,4,28.76,28.76,0,0,0,14.63-4.66c9-6.08,10.26-18.39,2.36-26.81-5-5.28-10.59-9.94-16-14.78-6.92-6.2-14.07-12.15-20.84-18.5-4.63-4.35-8.43-9.47-10.07-15.79-3.44-13.24,2.45-26,14.84-32.43,5.71-3,11.85-4.09,18.19-4.66,9.91-.9,19.62.63,29.36,2,1.41.2,2.12.7,2.17,2.4.1,3.58.57,7.16.87,10.73,0,.36,0,.72,0,1.22-3.43-.93-6.74-1.91-10.09-2.69-7.74-1.81-15.56-2.66-23.44-1a22,22,0,0,0-11.5,6.24c-5.77,5.93-6.32,13.87-1.55,21,3.57,5.3,8.27,9.53,13.08,13.65,8.21,7,16.55,13.9,24.63,21.08,4.95,4.39,9.07,9.55,10.93,16.1,3.73,13.11-1.25,28.36-16.85,35a56.46,56.46,0,0,1-17.08,3.86c-12.55,1.14-24.59-1.48-36.56-4.67a2.41,2.41,0,0,1-1.5-1.57c-.38-4-.58-8-.83-12.07C290.46,119.48,290.48,119.11,290.48,118.47Z"/><path class="cls-10" d="M405.7,43.6q-.84,12.88-1.67,25.8c-.16,2.51-.3,5-.39,7.55-.18,4.54-.32,9.08-.45,13.63q-.4,14.19-.77,28.38c-.13,5.18-.31,10.35-.33,15.52,0,1.68-.51,2.17-2.18,2.12-4-.12-8.05-.11-12.08,0-2.41.06-2.53-.09-2.31-2.48.41-4.46.68-8.93.93-13.39.52-9.38,1-18.76,1.46-28.14.16-3,.3-5.92.4-8.89.17-5.3.29-10.6.44-15.89.23-7.7.45-15.39.76-23.08,0-.51.78-1.4,1.2-1.41,4.8-.09,9.6,0,14.41,0C405.28,43.3,405.44,43.46,405.7,43.6Z"/><path class="cls-10" d="M448.47,43.25c-.57,10.76-1.13,21.13-1.66,31.51-.28,5.55-.56,11.09-.74,16.63-.3,9.15-.53,18.3-.77,27.44-.14,5.3-.31,10.6-.34,15.9,0,1.59-.64,1.89-2,1.87-4.15-.08-8.3-.07-12.46,0-2.18,0-2.29-.17-2.09-2.35q.61-6.69,1-13.39c.44-8.76.78-17.52,1.18-26.27.24-5.55.56-11.09.73-16.63.31-9.78.52-19.56.79-29.34a28.54,28.54,0,0,1,.36-4.13c.08-.46.69-1.17,1.07-1.18C438.43,43.22,443.4,43.25,448.47,43.25Z"/><path class="cls-10" d="M398.45,9.84c2.33,0,4.67,0,7,0,1.15,0,1.6.42,1.54,1.56-.15,3.28-.22,6.55-.45,9.82a1.78,1.78,0,0,1-1.29,1.13q-7.2.14-14.4,0A1.84,1.84,0,0,1,389.58,21q0-5,.37-10c0-.42.95-1.08,1.49-1.11C393.77,9.77,396.11,9.84,398.45,9.84Z"/><path class="cls-10" d="M440.83,22.39c-2.27,0-4.55-.05-6.82,0-1.25,0-1.7-.46-1.64-1.68.16-3.21.21-6.43.44-9.63A1.77,1.77,0,0,1,434,9.89q7.29-.12,14.59,0a1.71,1.71,0,0,1,1.19,1.2c0,3.4-.15,6.81-.41,10.2,0,.4-1,1-1.56,1C445.51,22.45,443.17,22.39,440.83,22.39Z"/></svg>